<?xml version="1.0" encoding="UTF-8"?>
<svg xmlns="http://www.w3.org/2000/svg" xmlns:xlink="http://www.w3.org/1999/xlink" width="99px" height="36px" viewBox="0 0 99 36" version="1.1">
<g id="surface1">
<path style=" stroke:none;fill-rule:nonzero;fill:rgb(100%,99.607843%,99.607843%);fill-opacity:1;" d="M 70.871094 36.101562 C 47.246094 36.101562 23.664062 36.101562 0.0820312 36.101562 C 0.0820312 24.101562 0.0820312 12.101562 0.0820312 0.101562 C 33.082031 0.101562 66.082031 0.101562 99.082031 0.101562 C 99.082031 12.101562 99.082031 24.101562 99.082031 36.101562 C 89.691406 36.101562 80.300781 36.101562 70.871094 36.101562 M 18.304688 22.394531 C 18.242188 22.464844 18.179688 22.53125 18.089844 22.640625 C 18.050781 22.671875 18.015625 22.699219 17.921875 22.714844 C 17.875 22.777344 17.828125 22.835938 17.757812 22.921875 C 17.757812 22.921875 17.726562 22.929688 17.660156 22.910156 C 17.5625 22.976562 17.464844 23.039062 17.363281 23.101562 C 17.363281 23.101562 17.367188 23.105469 17.308594 23.09375 C 17.242188 23.152344 17.171875 23.210938 17.050781 23.289062 C 17.015625 23.292969 16.980469 23.296875 16.894531 23.238281 C 16.203125 23.234375 15.515625 23.191406 14.859375 22.898438 C 14.859375 22.898438 14.859375 22.902344 14.851562 22.832031 C 14.785156 22.796875 14.722656 22.761719 14.617188 22.699219 C 14.558594 22.632812 14.5 22.5625 14.4375 22.425781 C 14.347656 22.324219 14.257812 22.226562 14.191406 22.109375 C 14.191406 22.109375 14.167969 22.125 14.179688 22.050781 C 14.042969 21.800781 13.90625 21.550781 13.753906 21.269531 C 13.753906 21.269531 13.75 21.234375 13.765625 21.152344 C 13.660156 20.800781 13.554688 20.449219 13.4375 20.03125 C 13.441406 19.988281 13.441406 19.945312 13.488281 19.847656 C 13.484375 19.394531 13.679688 19.289062 14.035156 19.289062 C 15.933594 19.308594 17.828125 19.300781 19.726562 19.296875 C 19.882812 19.296875 20.039062 19.234375 20.199219 19.195312 C 20.199219 19.195312 20.203125 19.195312 20.246094 19.183594 C 20.257812 19.152344 20.265625 19.121094 20.269531 19.042969 C 20.269531 19.042969 20.277344 18.996094 20.328125 18.941406 C 20.332031 18.511719 20.523438 18.042969 20.132812 17.617188 C 20.128906 17.546875 20.125 17.472656 20.164062 17.363281 C 20.125 17.242188 20.085938 17.117188 20.03125 16.9375 C 20.019531 16.871094 20.007812 16.808594 20.011719 16.691406 C 19.996094 16.660156 19.976562 16.628906 19.945312 16.554688 C 19.945312 16.554688 19.941406 16.511719 19.949219 16.4375 C 19.84375 16.222656 19.742188 16.007812 19.621094 15.742188 C 19.609375 15.707031 19.601562 15.671875 19.601562 15.566406 C 19.5 15.441406 19.398438 15.316406 19.277344 15.164062 C 19.277344 15.164062 19.265625 15.128906 19.261719 15.070312 C 19.238281 15.050781 19.210938 15.03125 19.140625 14.976562 C 18.847656 14.699219 18.578125 14.378906 18.265625 14.152344 C 17.371094 13.503906 16.382812 13.484375 15.394531 13.675781 C 14.097656 13.925781 13.210938 14.867188 12.601562 16.226562 C 12.039062 17.492188 12.0625 18.847656 12.140625 20.21875 C 12.246094 22.144531 13.550781 24.105469 15.300781 24.546875 C 17.382812 25.070312 19.238281 24.0625 20.226562 21.847656 C 20.253906 21.78125 20.210938 21.671875 20.175781 21.539062 C 20.148438 21.535156 20.117188 21.53125 20.058594 21.515625 C 20.058594 21.515625 20.039062 21.488281 20.03125 21.414062 C 19.914062 21.351562 19.792969 21.289062 19.644531 21.214844 C 19.644531 21.214844 19.617188 21.1875 19.59375 21.125 C 19.441406 20.976562 19.289062 20.707031 19.117188 21.101562 C 19.117188 21.101562 19.121094 21.105469 19.0625 21.109375 C 18.882812 21.4375 18.707031 21.769531 18.53125 22.101562 C 18.53125 22.101562 18.53125 22.101562 18.472656 22.105469 C 18.4375 22.203125 18.398438 22.300781 18.363281 22.398438 C 18.363281 22.398438 18.363281 22.398438 18.304688 22.394531 M 82.671875 20.601562 C 82.65625 20.605469 82.640625 20.609375 82.578125 20.59375 C 82.542969 20.558594 82.507812 20.519531 82.464844 20.441406 C 82.449219 20.414062 82.429688 20.398438 82.363281 20.355469 C 82.308594 20.273438 82.253906 20.191406 82.261719 20.097656 C 82.363281 19.976562 82.46875 19.851562 82.570312 19.730469 C 82.542969 19.6875 82.519531 19.644531 82.492188 19.597656 C 82.371094 19.667969 82.253906 19.738281 82.070312 19.804688 C 82.027344 19.808594 81.984375 19.816406 81.910156 19.804688 C 81.890625 19.785156 81.875 19.765625 81.882812 19.660156 C 81.882812 19.609375 81.882812 19.558594 81.886719 19.414062 C 81.886719 19.097656 81.886719 18.78125 81.886719 18.464844 C 81.855469 18.429688 81.824219 18.394531 81.792969 18.359375 C 81.710938 19.054688 81.375 18.675781 81.140625 18.628906 C 81.214844 18.546875 81.300781 18.480469 81.363281 18.386719 C 81.515625 18.164062 81.65625 17.929688 81.804688 17.699219 C 81.804688 17.699219 81.804688 17.699219 81.863281 17.695312 C 82.0625 17.5625 82.261719 17.429688 82.523438 17.324219 C 82.996094 17.539062 82.957031 17.136719 82.96875 16.746094 C 82.96875 16.746094 82.972656 16.699219 83.03125 16.699219 C 83.09375 16.632812 83.160156 16.5625 83.269531 16.464844 C 83.339844 16.34375 83.410156 16.222656 83.539062 16.101562 C 83.679688 16.203125 83.820312 16.304688 83.980469 16.417969 C 84.042969 16.257812 84.09375 16.128906 84.1875 15.960938 C 84.382812 15.496094 84.648438 15.1875 85.136719 15.289062 C 85.230469 15.308594 85.347656 15.1875 85.453125 15.128906 C 85.402344 15.027344 85.339844 14.925781 85.300781 14.816406 C 85.265625 14.714844 85.25 14.597656 85.25 14.429688 C 85.289062 14.3125 85.324219 14.195312 85.367188 14.074219 C 85.367188 14.074219 85.367188 14.066406 85.414062 14.085938 C 85.4375 14.078125 85.460938 14.066406 85.484375 14.058594 C 85.441406 14.046875 85.402344 14.039062 85.328125 14.019531 C 85.328125 14.019531 85.308594 13.992188 85.300781 13.917969 C 85.234375 13.882812 85.167969 13.816406 85.097656 13.808594 C 84.726562 13.769531 84.355469 13.738281 83.910156 13.703125 C 83.652344 13.703125 83.390625 13.671875 83.136719 13.71875 C 83.023438 13.738281 82.835938 13.929688 82.84375 14.011719 C 82.898438 14.394531 82.714844 14.511719 82.402344 14.601562 C 82.230469 14.714844 81.90625 14.855469 81.914062 14.945312 C 81.980469 15.535156 81.597656 15.628906 81.3125 15.671875 C 80.921875 15.730469 80.929688 15.921875 81.027344 16.261719 C 81.058594 16.367188 81.046875 16.488281 81.027344 16.652344 C 80.980469 16.671875 80.9375 16.691406 80.859375 16.65625 C 80.757812 16.804688 80.65625 16.957031 80.527344 17.167969 C 80.375 17.300781 80.230469 17.445312 80.074219 17.570312 C 79.816406 17.773438 79.65625 17.679688 79.632812 17.316406 C 79.625 17.183594 79.628906 17.050781 79.628906 16.914062 C 79.632812 13.523438 79.632812 10.128906 79.625 6.734375 C 79.625 6.558594 79.519531 6.382812 79.421875 6.203125 C 79.40625 6.195312 79.394531 6.1875 79.332031 6.128906 C 79.015625 6.148438 78.699219 6.164062 78.347656 6.203125 C 78.347656 6.203125 78.3125 6.214844 78.242188 6.21875 C 78.207031 6.398438 78.140625 6.582031 78.140625 6.761719 C 78.132812 8.898438 78.140625 11.039062 78.125 13.175781 C 78.125 13.363281 77.996094 13.546875 77.898438 13.730469 C 77.898438 13.730469 77.875 13.707031 77.867188 13.636719 C 77.707031 13.625 77.542969 13.613281 77.324219 13.609375 C 77.285156 13.601562 77.25 13.59375 77.167969 13.535156 C 76.988281 13.554688 76.808594 13.570312 76.574219 13.609375 C 76.539062 13.609375 76.5 13.609375 76.429688 13.554688 C 76.328125 13.597656 76.226562 13.640625 76.085938 13.710938 C 76.054688 13.714844 76.027344 13.722656 75.929688 13.710938 C 75.527344 13.886719 75.089844 14.011719 74.949219 14.667969 C 74.921875 14.710938 74.894531 14.753906 74.828125 14.824219 C 74.820312 14.855469 74.8125 14.886719 74.800781 14.898438 C 74.800781 14.898438 74.808594 14.917969 74.742188 14.90625 C 74.632812 14.925781 74.527344 14.941406 74.371094 14.96875 C 74.371094 14.726562 74.398438 14.507812 74.363281 14.304688 C 74.339844 14.1875 74.21875 14.097656 74.089844 13.984375 C 74.074219 13.976562 74.054688 13.972656 73.996094 13.917969 C 73.671875 13.894531 73.347656 13.867188 73.019531 13.851562 C 73.003906 13.851562 72.984375 13.957031 72.957031 14.058594 C 72.957031 14.058594 72.9375 14.101562 72.886719 14.136719 C 72.882812 14.457031 72.871094 14.777344 72.871094 15.097656 C 72.867188 17.109375 72.875 19.125 72.867188 21.140625 C 72.863281 22.085938 72.816406 23.03125 72.804688 23.976562 C 72.804688 24.078125 72.917969 24.183594 73.011719 24.292969 C 73.011719 24.292969 73.039062 24.3125 73.078125 24.363281 C 73.289062 24.351562 73.5 24.335938 73.777344 24.308594 C 73.894531 24.304688 74.007812 24.304688 74.164062 24.351562 C 74.234375 24.210938 74.363281 24.070312 74.363281 23.925781 C 74.375 22.207031 74.375 20.484375 74.367188 18.765625 C 74.367188 18.644531 74.316406 18.519531 74.285156 18.324219 C 74.296875 18.253906 74.304688 18.179688 74.367188 18.09375 C 74.367188 17.996094 74.371094 17.898438 74.375 17.734375 C 74.382812 17.691406 74.390625 17.648438 74.453125 17.589844 C 74.527344 17.339844 74.601562 17.089844 74.683594 16.792969 C 74.699219 16.761719 74.710938 16.734375 74.785156 16.691406 C 74.832031 16.546875 74.882812 16.398438 74.933594 16.21875 C 74.933594 16.21875 74.953125 16.195312 75.015625 16.199219 C 75.078125 16.097656 75.140625 15.996094 75.210938 15.898438 C 75.210938 15.898438 75.207031 15.894531 75.261719 15.894531 C 75.328125 15.800781 75.394531 15.703125 75.492188 15.566406 C 75.53125 15.539062 75.570312 15.511719 75.671875 15.496094 C 75.824219 15.371094 75.980469 15.246094 76.183594 15.101562 C 76.222656 15.101562 76.257812 15.097656 76.34375 15.15625 C 76.660156 15.136719 76.980469 15.117188 77.359375 15.09375 C 77.460938 15.03125 77.558594 14.96875 77.714844 14.890625 C 77.789062 14.621094 77.863281 14.347656 77.9375 14.070312 C 77.9375 14.070312 77.9375 14.066406 78.007812 14.097656 C 78.050781 14.222656 78.128906 14.351562 78.128906 14.480469 C 78.140625 15.203125 78.136719 15.929688 78.136719 16.65625 C 78.136719 18.617188 78.136719 20.582031 78.136719 22.546875 C 78.136719 23.074219 78.140625 23.601562 78.15625 24.125 C 78.15625 24.179688 78.257812 24.230469 78.351562 24.292969 C 78.351562 24.292969 78.382812 24.3125 78.394531 24.34375 C 78.417969 24.335938 78.441406 24.324219 78.519531 24.304688 C 78.558594 24.308594 78.59375 24.3125 78.679688 24.367188 C 78.886719 24.351562 79.09375 24.332031 79.351562 24.300781 C 79.386719 24.296875 79.421875 24.292969 79.515625 24.292969 C 79.574219 24.214844 79.679688 24.136719 79.675781 24.058594 C 79.671875 22.871094 79.652344 21.683594 79.699219 20.5 C 80.042969 20.566406 80.382812 20.632812 80.769531 20.738281 C 81.085938 21.089844 81.40625 21.441406 81.722656 21.875 C 81.734375 22.214844 81.792969 22.503906 82.152344 22.511719 C 82.203125 22.515625 82.269531 22.59375 82.292969 22.65625 C 82.511719 23.234375 82.832031 23.644531 83.414062 23.753906 C 83.464844 23.832031 83.511719 23.910156 83.558594 24.078125 C 83.558594 24.261719 83.558594 24.445312 83.558594 24.710938 C 83.742188 24.574219 83.859375 24.484375 84.03125 24.398438 C 84.066406 24.398438 84.105469 24.402344 84.148438 24.472656 C 84.328125 24.824219 84.460938 24.773438 84.5625 24.359375 C 84.5625 24.359375 84.5625 24.316406 84.636719 24.300781 C 84.890625 24.308594 85.140625 24.3125 85.410156 24.355469 C 85.429688 24.378906 85.453125 24.394531 85.488281 24.46875 C 85.652344 24.445312 85.851562 24.488281 85.964844 24.386719 C 86.207031 24.175781 86.367188 24.179688 86.53125 24.421875 C 86.800781 24.402344 87.0625 24.457031 87.320312 24.507812 C 87.652344 24.570312 87.984375 24.632812 88.371094 24.683594 C 88.410156 24.695312 88.445312 24.703125 88.53125 24.765625 C 88.734375 24.75 88.941406 24.734375 89.210938 24.695312 C 89.273438 24.695312 89.335938 24.695312 89.4375 24.753906 C 89.769531 24.683594 90.101562 24.613281 90.429688 24.53125 C 90.445312 24.527344 90.441406 24.414062 90.453125 24.363281 C 90.453125 24.363281 90.453125 24.351562 90.523438 24.382812 C 90.859375 24.472656 90.996094 24.238281 91.089844 23.875 C 91.089844 23.875 91.117188 23.878906 91.179688 23.890625 C 91.429688 23.621094 91.710938 23.382812 91.925781 23.074219 C 92 22.964844 91.910156 22.695312 91.894531 22.429688 C 91.902344 22.386719 91.914062 22.34375 91.972656 22.265625 C 91.976562 22.109375 91.980469 21.953125 91.972656 21.71875 C 91.976562 21.578125 91.980469 21.441406 92.035156 21.25 C 92.191406 20.710938 91.941406 20.269531 91.742188 19.859375 C 91.480469 19.316406 91.199219 18.714844 90.503906 18.824219 C 90.503906 18.824219 90.484375 18.800781 90.480469 18.730469 C 90.445312 18.683594 90.417969 18.609375 90.375 18.589844 C 89.804688 18.328125 89.234375 18.070312 88.664062 17.816406 C 88.640625 17.808594 88.597656 17.867188 88.519531 17.894531 C 88.476562 17.867188 88.4375 17.839844 88.390625 17.742188 C 87.820312 17.179688 87.378906 16.574219 87.890625 15.640625 C 87.910156 15.605469 87.894531 15.542969 87.910156 15.472656 C 87.910156 15.472656 87.9375 15.472656 88.007812 15.488281 C 88.058594 15.484375 88.121094 15.496094 88.167969 15.46875 C 88.886719 15.015625 89.546875 15.042969 90.144531 15.773438 C 90.324219 15.996094 90.53125 16.195312 90.734375 16.402344 C 90.734375 16.402344 90.734375 16.414062 90.742188 16.484375 C 91.035156 16.597656 91.886719 16.132812 91.96875 15.804688 C 91.992188 15.71875 91.980469 15.597656 91.945312 15.515625 C 91.675781 14.886719 91.421875 14.21875 90.847656 13.90625 C 90.480469 13.707031 90.109375 13.367188 89.582031 13.609375 C 89.492188 13.597656 89.402344 13.589844 89.261719 13.527344 C 88.636719 13.449219 88.015625 13.453125 87.441406 13.785156 C 87.261719 13.886719 87.136719 14.132812 86.980469 14.300781 C 86.980469 14.300781 86.988281 14.308594 86.929688 14.308594 C 86.804688 14.410156 86.652344 14.484375 86.566406 14.617188 C 86.347656 14.960938 86.019531 15.273438 86.234375 15.867188 C 86.222656 15.910156 86.214844 15.953125 86.144531 16.019531 C 85.914062 16.746094 86.164062 17.425781 86.308594 18.105469 C 86.339844 18.25 86.53125 18.519531 86.789062 18.257812 C 86.796875 18.273438 86.804688 18.289062 86.828125 18.347656 C 86.855469 18.363281 86.878906 18.378906 86.941406 18.40625 C 86.96875 18.421875 86.984375 18.445312 86.984375 18.554688 C 87.183594 19.105469 87.636719 19.390625 88.148438 19.300781 C 88.148438 19.300781 88.152344 19.289062 88.160156 19.363281 C 88.386719 19.523438 88.6875 19.621094 88.832031 19.855469 C 89.195312 20.445312 89.714844 20.496094 90.234375 20.601562 C 90.234375 20.601562 90.238281 20.597656 90.242188 20.671875 C 90.398438 20.949219 90.554688 21.226562 90.726562 21.582031 C 90.71875 21.6875 90.710938 21.789062 90.648438 21.90625 C 90.585938 21.96875 90.492188 22.019531 90.464844 22.097656 C 90.25 22.703125 89.804688 23 89.332031 23.011719 C 88.800781 23.027344 88.265625 22.816406 87.683594 22.683594 C 87.644531 22.648438 87.601562 22.613281 87.546875 22.539062 C 87.53125 22.515625 87.507812 22.5 87.480469 22.5 C 87.480469 22.5 87.480469 22.5 87.484375 22.414062 C 87.515625 21.816406 87.042969 21.625 86.796875 21.054688 C 86.691406 21.34375 86.640625 21.488281 86.585938 21.628906 C 86.585938 21.628906 86.582031 21.628906 86.515625 21.609375 C 86.417969 21.617188 86.273438 21.578125 86.234375 21.636719 C 86.027344 21.976562 85.777344 21.945312 85.496094 21.746094 C 85.546875 22.46875 85.742188 23.027344 86.230469 23.398438 C 86.230469 23.398438 86.234375 23.390625 86.246094 23.441406 C 86.273438 23.457031 86.296875 23.476562 86.3125 23.496094 C 86.3125 23.496094 86.320312 23.488281 86.316406 23.558594 C 86.386719 24.160156 85.984375 24.023438 85.675781 24.082031 C 85.640625 24.046875 85.601562 24.007812 85.5625 23.894531 C 85.523438 23.765625 85.515625 23.601562 85.441406 23.515625 C 85.1875 23.210938 84.917969 22.917969 84.636719 22.652344 C 84.421875 22.453125 84.179688 22.300781 83.972656 22.101562 C 83.972656 22.101562 83.949219 22.132812 83.964844 22.054688 C 83.777344 21.867188 83.585938 21.683594 83.390625 21.5 C 83.390625 21.5 83.394531 21.492188 83.394531 21.40625 C 83.429688 20.984375 83.304688 20.789062 82.941406 20.9375 C 82.941406 20.9375 82.929688 20.941406 82.953125 20.871094 C 82.878906 20.78125 82.800781 20.691406 82.671875 20.601562 M 5.863281 24.335938 C 6.265625 24.457031 6.660156 24.640625 7.070312 24.679688 C 7.859375 24.757812 8.597656 24.515625 9.296875 24.058594 C 10.140625 23.503906 10.707031 22.667969 11.027344 21.613281 C 11.472656 20.136719 11.507812 18.636719 11.144531 17.105469 C 10.890625 16.042969 10.402344 15.191406 9.714844 14.496094 C 8.816406 13.589844 7.75 13.476562 6.644531 13.652344 C 5.867188 13.773438 5.195312 14.167969 4.710938 14.945312 C 4.613281 15.105469 4.472656 15.230469 4.285156 15.441406 C 4.285156 12.308594 4.285156 9.28125 4.285156 6.222656 C 3.863281 6.222656 3.480469 6.222656 3.078125 6.222656 C 3.078125 12.25 3.078125 18.253906 3.078125 24.300781 C 3.382812 24.300781 3.660156 24.285156 3.9375 24.308594 C 4.210938 24.328125 4.3125 24.207031 4.296875 23.875 C 4.277344 23.5 4.292969 23.117188 4.292969 22.820312 C 4.816406 23.335938 5.308594 23.820312 5.863281 24.335938 M 55.515625 17.894531 C 55.542969 17.632812 55.566406 17.367188 55.601562 17.105469 C 55.695312 16.46875 55.894531 15.898438 56.320312 15.46875 C 56.96875 14.816406 57.722656 14.820312 58.492188 15.007812 C 59.046875 15.140625 59.460938 15.53125 59.601562 16.203125 C 59.734375 16.824219 59.859375 17.464844 59.871094 18.101562 C 59.90625 19.984375 59.882812 21.867188 59.882812 23.75 C 59.882812 23.910156 59.882812 24.074219 59.882812 24.269531 C 60.304688 24.269531 60.683594 24.269531 61.0625 24.269531 C 61.082031 24.191406 61.105469 24.144531 61.105469 24.097656 C 61.105469 21.648438 61.117188 19.199219 61.085938 16.75 C 61.074219 15.859375 60.75 15.085938 60.214844 14.445312 C 59.128906 13.144531 56.65625 13.332031 55.660156 14.789062 C 55.496094 15.027344 55.324219 15.257812 55.183594 15.449219 C 53.488281 12.796875 51.707031 13.039062 49.820312 15.183594 C 49.800781 14.738281 49.785156 14.382812 49.769531 14.019531 C 49.355469 14.019531 48.984375 14.019531 48.605469 14.019531 C 48.605469 17.453125 48.605469 20.859375 48.605469 24.273438 C 49.007812 24.273438 49.378906 24.273438 49.792969 24.273438 C 49.792969 24.0625 49.792969 23.882812 49.792969 23.703125 C 49.808594 21.703125 49.773438 19.703125 49.851562 17.707031 C 49.910156 16.300781 50.542969 15.070312 51.792969 14.917969 C 52.835938 14.789062 53.5625 15.066406 53.933594 16.0625 C 54.128906 16.585938 54.171875 17.222656 54.183594 17.8125 C 54.214844 19.644531 54.1875 21.480469 54.199219 23.3125 C 54.207031 24.421875 54.015625 24.273438 55.042969 24.3125 C 55.425781 24.328125 55.5 24.160156 55.496094 23.738281 C 55.484375 21.820312 55.503906 19.90625 55.515625 17.894531 M 40.355469 19.148438 C 40.375 18.652344 40.351562 18.144531 40.417969 17.65625 C 40.535156 16.796875 40.710938 15.9375 41.367188 15.414062 C 42.238281 14.722656 43.1875 14.777344 44.125 15.144531 C 44.371094 15.238281 44.570312 15.570312 44.75 15.835938 C 45.109375 16.367188 45.15625 17.023438 45.160156 17.675781 C 45.167969 19.691406 45.167969 21.707031 45.167969 23.722656 C 45.167969 23.898438 45.167969 24.074219 45.167969 24.300781 C 45.476562 24.300781 45.726562 24.277344 45.972656 24.308594 C 46.339844 24.351562 46.476562 24.21875 46.472656 23.734375 C 46.445312 21.800781 46.46875 19.871094 46.457031 17.9375 C 46.453125 17.410156 46.402344 16.875 46.339844 16.351562 C 46.15625 14.832031 45.203125 13.773438 43.910156 13.625 C 42.828125 13.5 41.804688 13.632812 40.953125 14.558594 C 40.761719 14.769531 40.582031 14.992188 40.394531 15.210938 C 40.363281 15.191406 40.328125 15.167969 40.296875 15.144531 C 40.296875 12.171875 40.296875 9.203125 40.296875 6.222656 C 39.894531 6.222656 39.539062 6.222656 39.171875 6.222656 C 39.171875 12.253906 39.171875 18.253906 39.171875 24.269531 C 39.574219 24.269531 39.941406 24.269531 40.355469 24.269531 C 40.355469 22.574219 40.355469 20.914062 40.355469 19.148438 M 70.832031 19.550781 C 70.832031 17.710938 70.832031 15.867188 70.832031 13.984375 C 70.488281 13.984375 70.210938 13.996094 69.9375 13.980469 C 69.683594 13.960938 69.582031 14.070312 69.597656 14.378906 C 69.613281 14.746094 69.601562 15.113281 69.601562 15.570312 C 69.46875 15.460938 69.421875 15.445312 69.40625 15.40625 C 68.867188 14.339844 68.066406 13.773438 67.042969 13.621094 C 65.675781 13.421875 64.472656 13.832031 63.5625 15.097656 C 62.773438 16.183594 62.445312 17.519531 62.410156 18.949219 C 62.378906 20.339844 62.640625 21.636719 63.335938 22.789062 C 63.925781 23.769531 64.71875 24.3125 65.6875 24.574219 C 66.824219 24.882812 67.835938 24.628906 68.710938 23.722656 C 69.019531 23.402344 69.261719 22.992188 69.59375 22.542969 C 69.59375 23.167969 69.59375 23.710938 69.59375 24.269531 C 70.027344 24.269531 70.410156 24.269531 70.832031 24.269531 C 70.832031 22.703125 70.832031 21.175781 70.832031 19.550781 M 29.03125 21.550781 C 29.03125 21.050781 29.035156 20.550781 29.03125 20.050781 C 29.023438 18.953125 29.042969 17.851562 28.996094 16.753906 C 28.949219 15.796875 28.632812 14.9375 28.007812 14.320312 C 26.882812 13.207031 24.300781 13.253906 23.242188 14.9375 C 23.164062 15.066406 23.125 15.226562 23.066406 15.371094 C 23.007812 15.320312 22.953125 15.269531 22.898438 15.21875 C 22.878906 14.816406 22.863281 14.414062 22.847656 14.007812 C 22.441406 14.007812 22.089844 14.007812 21.71875 14.007812 C 21.71875 17.453125 21.71875 20.855469 21.71875 24.304688 C 21.996094 24.304688 22.246094 24.28125 22.492188 24.308594 C 22.835938 24.347656 22.953125 24.207031 22.945312 23.78125 C 22.925781 22.53125 22.917969 21.28125 22.945312 20.035156 C 22.96875 19.070312 23.03125 18.109375 23.117188 17.148438 C 23.179688 16.492188 23.441406 15.929688 23.882812 15.5 C 24.542969 14.855469 25.320312 14.828125 26.101562 14.972656 C 26.4375 15.035156 26.800781 15.210938 27.066406 15.464844 C 27.644531 16.007812 27.785156 16.820312 27.789062 17.65625 C 27.800781 19.667969 27.792969 21.683594 27.796875 23.699219 C 27.796875 23.890625 27.796875 24.082031 27.796875 24.304688 C 28.148438 24.304688 28.425781 24.289062 28.703125 24.308594 C 28.964844 24.328125 29.039062 24.195312 29.035156 23.898438 C 29.023438 23.148438 29.03125 22.398438 29.03125 21.550781 M 34.371094 23.316406 C 34.160156 23.234375 33.945312 23.171875 33.742188 23.070312 C 32.660156 22.546875 31.925781 21.664062 31.703125 20.242188 C 31.558594 19.304688 31.574219 18.355469 31.835938 17.480469 C 32.191406 16.292969 32.867188 15.398438 33.9375 15.082031 C 35.265625 14.683594 36.523438 14.925781 37.785156 15.871094 C 37.785156 15.320312 37.796875 14.859375 37.773438 14.402344 C 37.765625 14.296875 37.625 14.175781 37.527344 14.117188 C 36.496094 13.542969 35.394531 13.484375 34.300781 13.65625 C 33.695312 13.75 33.054688 13.960938 32.539062 14.335938 C 30.335938 15.921875 29.949219 18.945312 30.71875 21.527344 C 30.828125 21.90625 31.042969 22.253906 31.246094 22.585938 C 31.917969 23.6875 32.832031 24.308594 33.957031 24.574219 C 35.316406 24.894531 36.566406 24.53125 37.792969 23.886719 C 37.855469 23.851562 37.9375 23.746094 37.9375 23.671875 C 37.953125 23.214844 37.945312 22.757812 37.945312 22.214844 C 36.804688 23.023438 35.710938 23.589844 34.371094 23.316406 M 85.660156 23.359375 C 85.660156 23.320312 85.660156 23.28125 85.660156 23.242188 C 85.648438 23.242188 85.625 23.242188 85.625 23.242188 C 85.621094 23.28125 85.621094 23.320312 85.660156 23.359375 Z M 85.660156 23.359375 "/>
<path style=" stroke:none;fill-rule:nonzero;fill:rgb(89.019608%,21.960784%,22.352941%);fill-opacity:1;" d="M 5.832031 24.324219 C 5.308594 23.820312 4.816406 23.335938 4.292969 22.820312 C 4.292969 23.117188 4.277344 23.5 4.296875 23.875 C 4.3125 24.207031 4.210938 24.328125 3.9375 24.308594 C 3.660156 24.285156 3.382812 24.300781 3.078125 24.300781 C 3.078125 18.253906 3.078125 12.25 3.078125 6.222656 C 3.480469 6.222656 3.863281 6.222656 4.285156 6.222656 C 4.285156 9.28125 4.285156 12.308594 4.285156 15.441406 C 4.472656 15.230469 4.613281 15.105469 4.710938 14.945312 C 5.195312 14.167969 5.867188 13.773438 6.644531 13.652344 C 7.75 13.476562 8.816406 13.589844 9.714844 14.496094 C 10.402344 15.191406 10.890625 16.042969 11.144531 17.105469 C 11.507812 18.636719 11.472656 20.136719 11.027344 21.613281 C 10.707031 22.667969 10.140625 23.503906 9.296875 24.058594 C 8.597656 24.515625 7.859375 24.757812 7.070312 24.679688 C 6.660156 24.640625 6.265625 24.457031 5.832031 24.324219 M 6.828125 14.90625 C 5.800781 14.984375 5.058594 15.558594 4.613281 16.691406 C 4.199219 17.746094 4.214844 18.847656 4.335938 19.960938 C 4.511719 21.59375 5.128906 22.769531 6.574219 23.175781 C 7.96875 23.566406 9.449219 22.671875 9.832031 20.910156 C 10.074219 19.800781 10.078125 18.660156 9.859375 17.546875 C 9.6875 16.664062 9.324219 15.910156 8.65625 15.382812 C 8.109375 14.949219 7.519531 14.910156 6.828125 14.90625 Z M 6.828125 14.90625 "/>
<path style=" stroke:none;fill-rule:nonzero;fill:rgb(89.019608%,22.745098%,23.137255%);fill-opacity:1;" d="M 55.511719 17.941406 C 55.503906 19.90625 55.484375 21.820312 55.496094 23.738281 C 55.5 24.160156 55.425781 24.328125 55.042969 24.3125 C 54.015625 24.273438 54.207031 24.421875 54.199219 23.3125 C 54.1875 21.480469 54.214844 19.644531 54.183594 17.8125 C 54.171875 17.222656 54.128906 16.585938 53.933594 16.0625 C 53.5625 15.066406 52.835938 14.789062 51.792969 14.917969 C 50.542969 15.070312 49.910156 16.300781 49.851562 17.707031 C 49.773438 19.703125 49.808594 21.703125 49.792969 23.703125 C 49.792969 23.882812 49.792969 24.0625 49.792969 24.273438 C 49.378906 24.273438 49.007812 24.273438 48.605469 24.273438 C 48.605469 20.859375 48.605469 17.453125 48.605469 14.019531 C 48.984375 14.019531 49.355469 14.019531 49.769531 14.019531 C 49.785156 14.382812 49.800781 14.738281 49.820312 15.183594 C 51.707031 13.039062 53.488281 12.796875 55.183594 15.449219 C 55.324219 15.257812 55.496094 15.027344 55.660156 14.789062 C 56.65625 13.332031 59.128906 13.144531 60.214844 14.445312 C 60.75 15.085938 61.074219 15.859375 61.085938 16.75 C 61.117188 19.199219 61.105469 21.648438 61.105469 24.097656 C 61.105469 24.144531 61.082031 24.191406 61.0625 24.269531 C 60.683594 24.269531 60.304688 24.269531 59.882812 24.269531 C 59.882812 24.074219 59.882812 23.910156 59.882812 23.75 C 59.882812 21.867188 59.90625 19.984375 59.871094 18.101562 C 59.859375 17.464844 59.734375 16.824219 59.601562 16.203125 C 59.460938 15.53125 59.046875 15.140625 58.492188 15.007812 C 57.722656 14.820312 56.96875 14.816406 56.320312 15.46875 C 55.894531 15.898438 55.695312 16.46875 55.601562 17.105469 C 55.566406 17.367188 55.542969 17.632812 55.511719 17.941406 Z M 55.511719 17.941406 "/>
<path style=" stroke:none;fill-rule:nonzero;fill:rgb(89.019608%,22.352941%,22.745098%);fill-opacity:1;" d="M 40.355469 19.199219 C 40.355469 20.914062 40.355469 22.574219 40.355469 24.269531 C 39.941406 24.269531 39.574219 24.269531 39.171875 24.269531 C 39.171875 18.253906 39.171875 12.253906 39.171875 6.222656 C 39.539062 6.222656 39.894531 6.222656 40.296875 6.222656 C 40.296875 9.203125 40.296875 12.171875 40.296875 15.144531 C 40.328125 15.167969 40.363281 15.191406 40.394531 15.210938 C 40.582031 14.992188 40.761719 14.769531 40.953125 14.558594 C 41.804688 13.632812 42.828125 13.5 43.910156 13.625 C 45.203125 13.773438 46.15625 14.832031 46.339844 16.351562 C 46.402344 16.875 46.453125 17.410156 46.457031 17.9375 C 46.46875 19.871094 46.445312 21.800781 46.472656 23.734375 C 46.476562 24.21875 46.339844 24.351562 45.972656 24.308594 C 45.726562 24.277344 45.476562 24.300781 45.167969 24.300781 C 45.167969 24.074219 45.167969 23.898438 45.167969 23.722656 C 45.167969 21.707031 45.167969 19.691406 45.160156 17.675781 C 45.15625 17.023438 45.109375 16.367188 44.75 15.835938 C 44.570312 15.570312 44.371094 15.238281 44.125 15.144531 C 43.1875 14.777344 42.238281 14.722656 41.367188 15.414062 C 40.710938 15.9375 40.535156 16.796875 40.417969 17.65625 C 40.351562 18.144531 40.375 18.652344 40.355469 19.199219 Z M 40.355469 19.199219 "/>
<path style=" stroke:none;fill-rule:nonzero;fill:rgb(89.019608%,22.352941%,22.745098%);fill-opacity:1;" d="M 70.832031 19.601562 C 70.832031 21.175781 70.832031 22.703125 70.832031 24.269531 C 70.410156 24.269531 70.027344 24.269531 69.59375 24.269531 C 69.59375 23.710938 69.59375 23.167969 69.59375 22.542969 C 69.261719 22.992188 69.019531 23.402344 68.710938 23.722656 C 67.835938 24.628906 66.824219 24.882812 65.6875 24.574219 C 64.71875 24.3125 63.925781 23.769531 63.335938 22.789062 C 62.640625 21.636719 62.378906 20.339844 62.410156 18.949219 C 62.445312 17.519531 62.773438 16.183594 63.5625 15.097656 C 64.472656 13.832031 65.675781 13.421875 67.042969 13.621094 C 68.066406 13.773438 68.867188 14.339844 69.40625 15.40625 C 69.421875 15.445312 69.46875 15.460938 69.601562 15.570312 C 69.601562 15.113281 69.613281 14.746094 69.597656 14.378906 C 69.582031 14.070312 69.683594 13.960938 69.9375 13.980469 C 70.210938 13.996094 70.488281 13.984375 70.832031 13.984375 C 70.832031 15.867188 70.832031 17.710938 70.832031 19.601562 M 69.34375 20.902344 C 69.621094 19.699219 69.726562 18.507812 69.402344 17.277344 C 69.0625 15.992188 68.414062 15.136719 67.285156 14.957031 C 65.707031 14.710938 64.871094 15.191406 64.289062 16.535156 C 63.632812 18.054688 63.632812 19.667969 64.121094 21.304688 C 64.53125 22.675781 65.660156 23.265625 66.613281 23.269531 C 67.835938 23.269531 68.847656 22.535156 69.34375 20.902344 Z M 69.34375 20.902344 "/>
<path style=" stroke:none;fill-rule:nonzero;fill:rgb(89.411765%,21.960784%,22.745098%);fill-opacity:1;" d="M 20.277344 18.996094 C 20.277344 18.996094 20.269531 19.042969 20.253906 19.074219 C 20.214844 19.132812 20.207031 19.160156 20.203125 19.195312 C 20.203125 19.195312 20.199219 19.195312 20.160156 19.191406 C 17.878906 19.1875 15.636719 19.1875 13.332031 19.1875 C 13.378906 19.492188 13.410156 19.695312 13.441406 19.898438 C 13.441406 19.945312 13.441406 19.988281 13.4375 20.105469 C 13.539062 20.53125 13.644531 20.882812 13.75 21.234375 C 13.75 21.234375 13.753906 21.269531 13.757812 21.324219 C 13.898438 21.625 14.03125 21.875 14.167969 22.125 C 14.167969 22.125 14.191406 22.109375 14.183594 22.152344 C 14.261719 22.296875 14.351562 22.394531 14.441406 22.496094 C 14.5 22.5625 14.558594 22.632812 14.644531 22.746094 C 14.734375 22.828125 14.796875 22.863281 14.859375 22.902344 C 14.859375 22.902344 14.859375 22.898438 14.875 22.929688 C 15.535156 23.410156 16.21875 23.554688 16.945312 23.296875 C 16.980469 23.296875 17.015625 23.292969 17.105469 23.289062 C 17.230469 23.230469 17.296875 23.167969 17.367188 23.105469 C 17.367188 23.105469 17.363281 23.101562 17.394531 23.105469 C 17.527344 23.050781 17.625 22.992188 17.726562 22.929688 C 17.726562 22.929688 17.757812 22.921875 17.796875 22.914062 C 17.882812 22.847656 17.933594 22.789062 17.980469 22.730469 C 18.015625 22.699219 18.050781 22.671875 18.128906 22.617188 C 18.234375 22.53125 18.296875 22.464844 18.363281 22.398438 C 18.363281 22.398438 18.363281 22.398438 18.390625 22.390625 C 18.453125 22.285156 18.492188 22.195312 18.53125 22.101562 C 18.53125 22.101562 18.53125 22.101562 18.558594 22.089844 C 18.765625 21.753906 18.941406 21.429688 19.121094 21.105469 C 19.121094 21.105469 19.117188 21.101562 19.148438 21.101562 C 19.328125 21.128906 19.472656 21.160156 19.617188 21.1875 C 19.617188 21.1875 19.644531 21.214844 19.671875 21.246094 C 19.816406 21.351562 19.925781 21.417969 20.039062 21.488281 C 20.039062 21.488281 20.058594 21.515625 20.085938 21.542969 C 20.144531 21.574219 20.171875 21.578125 20.203125 21.582031 C 20.210938 21.671875 20.253906 21.78125 20.226562 21.847656 C 19.238281 24.0625 17.382812 25.070312 15.300781 24.546875 C 13.550781 24.105469 12.246094 22.144531 12.140625 20.21875 C 12.0625 18.847656 12.039062 17.492188 12.601562 16.226562 C 13.210938 14.867188 14.097656 13.925781 15.394531 13.675781 C 16.382812 13.484375 17.371094 13.503906 18.265625 14.152344 C 18.578125 14.378906 18.847656 14.699219 19.167969 15.019531 C 19.21875 15.085938 19.242188 15.105469 19.265625 15.128906 C 19.265625 15.128906 19.277344 15.164062 19.285156 15.210938 C 19.394531 15.386719 19.492188 15.511719 19.589844 15.636719 C 19.601562 15.671875 19.609375 15.707031 19.625 15.800781 C 19.734375 16.078125 19.839844 16.296875 19.941406 16.511719 C 19.941406 16.511719 19.945312 16.554688 19.949219 16.605469 C 19.964844 16.683594 19.980469 16.714844 19.992188 16.746094 C 20.007812 16.808594 20.019531 16.871094 20.035156 17.003906 C 20.0625 17.179688 20.09375 17.289062 20.121094 17.398438 C 20.125 17.472656 20.128906 17.546875 20.128906 17.695312 C 20.179688 18.179688 20.226562 18.589844 20.277344 18.996094 M 16.820312 17.898438 C 17.464844 17.898438 18.113281 17.898438 18.761719 17.898438 C 18.683594 16.203125 17.78125 14.972656 16.03125 14.988281 C 14.53125 15.003906 13.445312 16.648438 13.496094 17.898438 C 14.574219 17.898438 15.65625 17.898438 16.820312 17.898438 Z M 16.820312 17.898438 "/>
<path style=" stroke:none;fill-rule:nonzero;fill:rgb(88.627451%,21.960784%,22.352941%);fill-opacity:1;" d="M 85.5625 23.972656 C 85.601562 24.007812 85.640625 24.046875 85.695312 24.121094 C 85.710938 24.191406 85.710938 24.226562 85.679688 24.265625 C 85.5625 24.285156 85.476562 24.300781 85.394531 24.316406 C 85.140625 24.3125 84.890625 24.308594 84.566406 24.296875 C 84.316406 24.214844 84.113281 24.167969 83.953125 24.046875 C 83.753906 23.894531 83.582031 23.675781 83.394531 23.492188 C 83.390625 23.496094 83.402344 23.492188 83.394531 23.464844 C 83.363281 23.421875 83.335938 23.40625 83.308594 23.394531 C 83.308594 23.398438 83.3125 23.394531 83.304688 23.363281 C 83.214844 23.257812 83.136719 23.179688 83.058594 23.097656 C 83.054688 23.101562 83.058594 23.097656 83.054688 23.074219 C 83.023438 23.027344 83 23.011719 82.96875 22.972656 C 82.945312 22.921875 82.921875 22.902344 82.894531 22.863281 C 82.835938 22.785156 82.78125 22.738281 82.714844 22.664062 C 82.601562 22.554688 82.5 22.472656 82.394531 22.359375 C 82.285156 22.207031 82.175781 22.089844 82.058594 21.953125 C 82.023438 21.914062 82 21.898438 81.96875 21.863281 C 81.496094 21.285156 81.027344 20.738281 80.554688 20.199219 C 80.550781 20.199219 80.554688 20.195312 80.546875 20.164062 C 80.460938 20.058594 80.378906 19.980469 80.300781 19.898438 C 80.300781 19.898438 80.300781 19.898438 80.292969 19.867188 C 80.183594 19.757812 80.078125 19.675781 79.972656 19.597656 C 79.96875 19.597656 79.972656 19.59375 79.96875 19.558594 C 79.828125 19.371094 79.6875 19.214844 79.550781 19.058594 C 79.519531 19.082031 79.488281 19.109375 79.457031 19.132812 C 79.457031 20.851562 79.457031 22.570312 79.457031 24.289062 C 79.421875 24.292969 79.386719 24.296875 79.289062 24.296875 C 79.027344 24.300781 78.832031 24.308594 78.632812 24.316406 C 78.59375 24.3125 78.558594 24.308594 78.472656 24.300781 C 78.410156 24.300781 78.398438 24.304688 78.382812 24.3125 C 78.382812 24.3125 78.351562 24.292969 78.328125 24.242188 C 78.304688 20.980469 78.300781 17.769531 78.300781 14.554688 C 78.300781 11.773438 78.308594 8.996094 78.3125 6.214844 C 78.3125 6.214844 78.347656 6.203125 78.402344 6.203125 C 78.765625 6.195312 79.074219 6.191406 79.382812 6.183594 C 79.394531 6.1875 79.40625 6.195312 79.445312 6.25 C 79.46875 10.320312 79.46875 14.339844 79.46875 18.359375 C 79.519531 18.386719 79.570312 18.414062 79.621094 18.441406 C 79.992188 18 80.367188 17.558594 80.757812 17.105469 C 80.796875 17.082031 80.808594 17.058594 80.847656 17.027344 C 81.074219 16.8125 81.269531 16.605469 81.46875 16.398438 C 81.46875 16.398438 81.46875 16.394531 81.492188 16.390625 C 81.527344 16.359375 81.542969 16.332031 81.554688 16.300781 C 81.554688 16.300781 81.558594 16.304688 81.582031 16.300781 C 81.648438 16.234375 81.691406 16.171875 81.726562 16.105469 C 81.722656 16.097656 81.726562 16.109375 81.753906 16.101562 C 81.910156 15.933594 82.039062 15.777344 82.183594 15.613281 C 82.199219 15.609375 82.21875 15.578125 82.238281 15.574219 C 82.285156 15.558594 82.296875 15.53125 82.3125 15.484375 C 82.351562 15.449219 82.371094 15.425781 82.414062 15.394531 C 82.511719 15.296875 82.578125 15.203125 82.640625 15.101562 C 82.640625 15.101562 82.644531 15.105469 82.671875 15.101562 C 82.832031 14.9375 82.960938 14.78125 83.105469 14.617188 C 83.117188 14.613281 83.136719 14.582031 83.164062 14.582031 C 83.257812 14.488281 83.328125 14.394531 83.410156 14.292969 C 83.453125 14.257812 83.464844 14.230469 83.496094 14.195312 C 83.535156 14.164062 83.550781 14.136719 83.5625 14.105469 C 83.558594 14.101562 83.566406 14.113281 83.601562 14.109375 C 84.191406 14.066406 84.75 14.03125 85.308594 13.992188 C 85.308594 13.992188 85.328125 14.019531 85.34375 14.035156 C 85.355469 14.050781 85.367188 14.066406 85.367188 14.066406 C 85.367188 14.066406 85.367188 14.074219 85.339844 14.078125 C 85.195312 14.21875 85.082031 14.355469 84.972656 14.496094 C 84.976562 14.5 84.96875 14.488281 84.941406 14.496094 C 84.679688 14.734375 84.453125 14.964844 84.222656 15.199219 C 84.226562 15.199219 84.222656 15.195312 84.195312 15.199219 C 84.050781 15.339844 83.9375 15.472656 83.800781 15.617188 C 83.761719 15.648438 83.742188 15.675781 83.699219 15.703125 C 83.628906 15.765625 83.585938 15.828125 83.523438 15.898438 C 83.484375 15.925781 83.472656 15.949219 83.4375 15.988281 C 83.167969 16.253906 82.925781 16.515625 82.664062 16.785156 C 82.617188 16.835938 82.585938 16.871094 82.527344 16.90625 C 82.265625 17.171875 82.035156 17.433594 81.804688 17.699219 C 81.804688 17.699219 81.804688 17.699219 81.773438 17.703125 C 81.433594 17.988281 81.125 18.273438 80.769531 18.59375 C 80.902344 18.691406 80.976562 18.746094 81.058594 18.824219 C 81.082031 18.875 81.105469 18.894531 81.132812 18.9375 C 81.21875 19.046875 81.304688 19.121094 81.398438 19.21875 C 81.445312 19.269531 81.480469 19.300781 81.519531 19.363281 C 81.644531 19.507812 81.757812 19.621094 81.871094 19.734375 C 81.875 19.765625 81.890625 19.785156 81.933594 19.84375 C 82.015625 19.933594 82.070312 19.984375 82.132812 20.054688 C 82.152344 20.101562 82.171875 20.113281 82.199219 20.109375 C 82.253906 20.191406 82.308594 20.273438 82.382812 20.402344 C 82.425781 20.460938 82.449219 20.472656 82.472656 20.484375 C 82.507812 20.519531 82.542969 20.558594 82.609375 20.628906 C 82.664062 20.683594 82.6875 20.699219 82.726562 20.742188 C 82.800781 20.828125 82.867188 20.886719 82.929688 20.941406 C 82.929688 20.941406 82.941406 20.9375 82.945312 20.976562 C 83.097656 21.171875 83.246094 21.332031 83.394531 21.492188 C 83.394531 21.492188 83.390625 21.5 83.402344 21.527344 C 83.589844 21.75 83.769531 21.941406 83.949219 22.132812 C 83.949219 22.132812 83.972656 22.101562 83.96875 22.148438 C 84.496094 22.789062 85.03125 23.378906 85.5625 23.972656 Z M 85.5625 23.972656 "/>
<path style=" stroke:none;fill-rule:nonzero;fill:rgb(88.627451%,23.137255%,23.921569%);fill-opacity:1;" d="M 29.03125 21.601562 C 29.03125 22.398438 29.023438 23.148438 29.035156 23.898438 C 29.039062 24.195312 28.964844 24.328125 28.703125 24.308594 C 28.425781 24.289062 28.148438 24.304688 27.796875 24.304688 C 27.796875 24.082031 27.796875 23.890625 27.796875 23.699219 C 27.792969 21.683594 27.800781 19.667969 27.789062 17.65625 C 27.785156 16.820312 27.644531 16.007812 27.066406 15.464844 C 26.800781 15.210938 26.4375 15.035156 26.101562 14.972656 C 25.320312 14.828125 24.542969 14.855469 23.882812 15.5 C 23.441406 15.929688 23.179688 16.492188 23.117188 17.148438 C 23.03125 18.109375 22.96875 19.070312 22.945312 20.035156 C 22.917969 21.28125 22.925781 22.53125 22.945312 23.78125 C 22.953125 24.207031 22.835938 24.347656 22.492188 24.308594 C 22.246094 24.28125 21.996094 24.304688 21.71875 24.304688 C 21.71875 20.855469 21.71875 17.453125 21.71875 14.007812 C 22.089844 14.007812 22.441406 14.007812 22.847656 14.007812 C 22.863281 14.414062 22.878906 14.816406 22.898438 15.21875 C 22.953125 15.269531 23.007812 15.320312 23.066406 15.371094 C 23.125 15.226562 23.164062 15.066406 23.242188 14.9375 C 24.300781 13.253906 26.882812 13.207031 28.007812 14.320312 C 28.632812 14.9375 28.949219 15.796875 28.996094 16.753906 C 29.042969 17.851562 29.023438 18.953125 29.03125 20.050781 C 29.035156 20.550781 29.03125 21.050781 29.03125 21.601562 Z M 29.03125 21.601562 "/>
<path style=" stroke:none;fill-rule:nonzero;fill:rgb(89.019608%,22.352941%,23.137255%);fill-opacity:1;" d="M 91.117188 23.878906 C 91.117188 23.878906 91.089844 23.875 91.050781 23.886719 C 90.824219 24.050781 90.640625 24.199219 90.453125 24.351562 C 90.453125 24.351562 90.453125 24.363281 90.417969 24.359375 C 90.054688 24.46875 89.726562 24.582031 89.398438 24.695312 C 89.335938 24.695312 89.273438 24.695312 89.144531 24.695312 C 88.878906 24.699219 88.679688 24.707031 88.484375 24.710938 C 88.445312 24.703125 88.410156 24.695312 88.324219 24.664062 C 87.785156 24.398438 87.292969 24.164062 86.808594 23.898438 C 86.632812 23.800781 86.480469 23.625 86.320312 23.488281 C 86.320312 23.488281 86.3125 23.496094 86.3125 23.46875 C 86.285156 23.421875 86.257812 23.40625 86.234375 23.390625 C 86.234375 23.390625 86.230469 23.398438 86.230469 23.359375 C 86.128906 23.105469 86.035156 22.890625 85.929688 22.679688 C 85.804688 22.421875 85.730469 22.21875 86.058594 22.074219 C 86.253906 21.984375 86.410156 21.78125 86.582031 21.628906 C 86.582031 21.628906 86.585938 21.628906 86.621094 21.628906 C 86.78125 21.691406 86.9375 21.71875 87.03125 21.824219 C 87.199219 22.023438 87.332031 22.269531 87.480469 22.5 C 87.480469 22.5 87.480469 22.5 87.484375 22.523438 C 87.515625 22.558594 87.539062 22.566406 87.5625 22.578125 C 87.601562 22.613281 87.644531 22.648438 87.710938 22.726562 C 88.011719 22.921875 88.269531 23.113281 88.550781 23.21875 C 89.3125 23.503906 90.527344 23.054688 90.703125 21.894531 C 90.710938 21.789062 90.71875 21.6875 90.726562 21.507812 C 90.5625 21.152344 90.402344 20.875 90.238281 20.597656 C 90.238281 20.597656 90.234375 20.601562 90.226562 20.566406 C 89.660156 19.808594 88.886719 19.597656 88.152344 19.289062 C 88.152344 19.289062 88.148438 19.300781 88.136719 19.265625 C 87.742188 18.984375 87.367188 18.734375 86.988281 18.480469 C 86.984375 18.445312 86.96875 18.421875 86.917969 18.375 C 86.863281 18.332031 86.839844 18.316406 86.8125 18.300781 C 86.804688 18.289062 86.796875 18.273438 86.757812 18.222656 C 86.234375 17.566406 86.175781 16.796875 86.207031 15.996094 C 86.214844 15.953125 86.222656 15.910156 86.246094 15.808594 C 86.503906 15.269531 86.746094 14.789062 86.988281 14.308594 C 86.988281 14.308594 86.980469 14.300781 87.011719 14.296875 C 87.726562 13.722656 88.5 13.5625 89.316406 13.578125 C 89.402344 13.589844 89.492188 13.597656 89.640625 13.632812 C 90.613281 13.84375 91.296875 14.425781 91.703125 15.433594 C 91.75 15.550781 91.738281 15.820312 91.679688 15.863281 C 91.378906 16.074219 91.050781 16.234375 90.734375 16.414062 C 90.734375 16.414062 90.734375 16.402344 90.730469 16.367188 C 90.496094 15.996094 90.296875 15.609375 90.019531 15.332031 C 89.496094 14.804688 88.308594 14.914062 87.9375 15.472656 C 87.9375 15.472656 87.910156 15.472656 87.875 15.488281 C 87.09375 16.351562 87.59375 17.542969 88.394531 17.8125 C 88.4375 17.839844 88.476562 17.867188 88.558594 17.921875 C 89.230469 18.234375 89.859375 18.519531 90.484375 18.800781 C 90.484375 18.800781 90.503906 18.824219 90.53125 18.851562 C 90.808594 19.085938 91.070312 19.273438 91.296875 19.507812 C 91.746094 19.976562 91.855469 20.648438 91.984375 21.300781 C 91.980469 21.441406 91.976562 21.578125 91.960938 21.785156 C 91.9375 22.003906 91.929688 22.152344 91.921875 22.296875 C 91.914062 22.34375 91.902344 22.386719 91.867188 22.476562 C 91.601562 22.976562 91.359375 23.429688 91.117188 23.878906 Z M 91.117188 23.878906 "/>
<path style=" stroke:none;fill-rule:nonzero;fill:rgb(88.627451%,23.137255%,23.529412%);fill-opacity:1;" d="M 34.40625 23.320312 C 35.710938 23.589844 36.804688 23.023438 37.945312 22.214844 C 37.945312 22.757812 37.953125 23.214844 37.9375 23.671875 C 37.9375 23.746094 37.855469 23.851562 37.792969 23.886719 C 36.566406 24.53125 35.316406 24.894531 33.957031 24.574219 C 32.832031 24.308594 31.917969 23.6875 31.246094 22.585938 C 31.042969 22.253906 30.828125 21.90625 30.71875 21.527344 C 29.949219 18.945312 30.335938 15.921875 32.539062 14.335938 C 33.054688 13.960938 33.695312 13.75 34.300781 13.65625 C 35.394531 13.484375 36.496094 13.542969 37.527344 14.117188 C 37.625 14.175781 37.765625 14.296875 37.773438 14.402344 C 37.796875 14.859375 37.785156 15.320312 37.785156 15.871094 C 36.523438 14.925781 35.265625 14.683594 33.9375 15.082031 C 32.867188 15.398438 32.191406 16.292969 31.835938 17.480469 C 31.574219 18.355469 31.558594 19.304688 31.703125 20.242188 C 31.925781 21.664062 32.660156 22.546875 33.742188 23.070312 C 33.945312 23.171875 34.160156 23.234375 34.40625 23.320312 Z M 34.40625 23.320312 "/>
<path style=" stroke:none;fill-rule:nonzero;fill:rgb(90.588235%,21.960784%,22.352941%);fill-opacity:1;" d="M 77.210938 13.585938 C 77.25 13.59375 77.285156 13.601562 77.375 13.632812 C 77.578125 13.671875 77.726562 13.691406 77.875 13.707031 C 77.875 13.707031 77.898438 13.730469 77.910156 13.765625 C 77.929688 13.886719 77.933594 13.976562 77.9375 14.066406 C 77.9375 14.066406 77.9375 14.070312 77.914062 14.09375 C 77.8125 14.378906 77.738281 14.644531 77.660156 14.90625 C 77.558594 14.96875 77.460938 15.03125 77.300781 15.070312 C 76.929688 15.066406 76.609375 15.082031 76.292969 15.097656 C 76.257812 15.097656 76.222656 15.101562 76.128906 15.105469 C 75.917969 15.234375 75.765625 15.359375 75.609375 15.484375 C 75.570312 15.511719 75.53125 15.539062 75.449219 15.585938 C 75.339844 15.699219 75.273438 15.796875 75.207031 15.894531 C 75.207031 15.894531 75.210938 15.898438 75.183594 15.910156 C 75.085938 16.007812 75.019531 16.101562 74.953125 16.195312 C 74.953125 16.195312 74.933594 16.21875 74.910156 16.257812 C 74.832031 16.433594 74.777344 16.566406 74.722656 16.703125 C 74.710938 16.734375 74.699219 16.761719 74.652344 16.828125 C 74.546875 17.113281 74.472656 17.359375 74.398438 17.605469 C 74.390625 17.648438 74.382812 17.691406 74.355469 17.789062 C 74.328125 17.933594 74.320312 18.019531 74.316406 18.105469 C 74.304688 18.179688 74.296875 18.253906 74.265625 18.382812 C 74.214844 18.5625 74.179688 18.6875 74.113281 18.832031 C 74.070312 19.035156 74.042969 19.214844 74.042969 19.394531 C 74.039062 20.773438 74.03125 22.15625 74.046875 23.535156 C 74.054688 23.972656 73.933594 24.117188 73.570312 24.113281 C 73.21875 24.109375 73.113281 23.964844 73.117188 23.554688 C 73.125 20.578125 73.117188 17.597656 73.132812 14.621094 C 73.132812 14.460938 73.269531 14.300781 73.34375 14.140625 C 73.574219 14.3125 74.050781 13.957031 74.046875 14.636719 C 74.042969 14.992188 74.101562 15.34375 74.144531 15.722656 C 74.210938 15.757812 74.304688 15.789062 74.324219 15.761719 C 74.492188 15.484375 74.648438 15.199219 74.808594 14.917969 C 74.808594 14.917969 74.800781 14.898438 74.824219 14.898438 C 74.851562 14.863281 74.859375 14.832031 74.867188 14.800781 C 74.894531 14.753906 74.921875 14.710938 74.988281 14.636719 C 75.351562 14.316406 75.671875 14.023438 75.996094 13.726562 C 76.027344 13.722656 76.054688 13.714844 76.136719 13.707031 C 76.277344 13.671875 76.371094 13.640625 76.464844 13.609375 C 76.5 13.609375 76.539062 13.609375 76.636719 13.609375 C 76.871094 13.601562 77.042969 13.59375 77.210938 13.585938 Z M 77.210938 13.585938 "/>
<path style=" stroke:none;fill-rule:nonzero;fill:rgb(99.215686%,83.921569%,83.921569%);fill-opacity:1;" d="M 77.972656 14.082031 C 77.933594 13.976562 77.929688 13.886719 77.925781 13.765625 C 77.996094 13.546875 78.125 13.363281 78.125 13.175781 C 78.140625 11.039062 78.132812 8.898438 78.140625 6.761719 C 78.140625 6.582031 78.207031 6.398438 78.277344 6.21875 C 78.308594 8.996094 78.300781 11.773438 78.300781 14.554688 C 78.300781 17.769531 78.304688 20.980469 78.3125 24.238281 C 78.257812 24.230469 78.15625 24.179688 78.15625 24.125 C 78.140625 23.601562 78.136719 23.074219 78.136719 22.546875 C 78.136719 20.582031 78.136719 18.617188 78.136719 16.65625 C 78.136719 15.929688 78.140625 15.203125 78.128906 14.480469 C 78.128906 14.351562 78.050781 14.222656 77.972656 14.082031 Z M 77.972656 14.082031 "/>
<path style=" stroke:none;fill-rule:nonzero;fill:rgb(78.823529%,27.843137%,27.843137%);fill-opacity:1;" d="M 74.136719 15.695312 C 74.101562 15.34375 74.042969 14.992188 74.046875 14.636719 C 74.050781 13.957031 73.574219 14.3125 73.34375 14.140625 C 73.269531 14.300781 73.132812 14.460938 73.132812 14.621094 C 73.117188 17.597656 73.125 20.578125 73.117188 23.554688 C 73.113281 23.964844 73.21875 24.109375 73.570312 24.113281 C 73.933594 24.117188 74.054688 23.972656 74.046875 23.535156 C 74.03125 22.15625 74.039062 20.773438 74.042969 19.394531 C 74.042969 19.214844 74.070312 19.035156 74.121094 18.878906 C 74.144531 20.699219 74.136719 22.5 74.125 24.300781 C 74.007812 24.304688 73.894531 24.304688 73.707031 24.304688 C 73.4375 24.304688 73.238281 24.308594 73.039062 24.3125 C 73.039062 24.3125 73.011719 24.292969 72.988281 24.242188 C 72.964844 22.476562 72.964844 20.761719 72.957031 19.046875 C 72.953125 17.398438 72.945312 15.75 72.9375 14.101562 C 72.9375 14.101562 72.957031 14.058594 73 14.035156 C 73.375 13.992188 73.707031 13.980469 74.039062 13.964844 C 74.054688 13.972656 74.074219 13.976562 74.117188 14.035156 C 74.140625 14.625 74.136719 15.160156 74.136719 15.695312 Z M 74.136719 15.695312 "/>
<path style=" stroke:none;fill-rule:nonzero;fill:rgb(99.215686%,83.921569%,83.921569%);fill-opacity:1;" d="M 80.738281 17.117188 C 80.367188 17.558594 79.992188 18 79.621094 18.441406 C 79.570312 18.414062 79.519531 18.386719 79.46875 18.359375 C 79.46875 14.339844 79.46875 10.320312 79.464844 6.253906 C 79.519531 6.382812 79.625 6.558594 79.625 6.734375 C 79.632812 10.128906 79.632812 13.523438 79.628906 16.914062 C 79.628906 17.050781 79.625 17.183594 79.632812 17.316406 C 79.65625 17.679688 79.816406 17.773438 80.074219 17.570312 C 80.230469 17.445312 80.375 17.300781 80.570312 17.136719 C 80.65625 17.105469 80.699219 17.113281 80.738281 17.117188 Z M 80.738281 17.117188 "/>
<path style=" stroke:none;fill-rule:nonzero;fill:rgb(99.215686%,83.921569%,83.921569%);fill-opacity:1;" d="M 74.144531 24.324219 C 74.136719 22.5 74.144531 20.699219 74.148438 18.855469 C 74.179688 18.6875 74.214844 18.5625 74.269531 18.421875 C 74.316406 18.519531 74.367188 18.644531 74.367188 18.765625 C 74.375 20.484375 74.375 22.207031 74.363281 23.925781 C 74.363281 24.070312 74.234375 24.210938 74.144531 24.324219 Z M 74.144531 24.324219 "/>
<path style=" stroke:none;fill-rule:nonzero;fill:rgb(98.823529%,90.980392%,90.588235%);fill-opacity:1;" d="M 90.738281 16.449219 C 91.050781 16.234375 91.378906 16.074219 91.679688 15.863281 C 91.738281 15.820312 91.75 15.550781 91.703125 15.433594 C 91.296875 14.425781 90.613281 13.84375 89.671875 13.625 C 90.109375 13.367188 90.480469 13.707031 90.847656 13.90625 C 91.421875 14.21875 91.675781 14.886719 91.945312 15.515625 C 91.980469 15.597656 91.992188 15.71875 91.96875 15.804688 C 91.886719 16.132812 91.035156 16.597656 90.738281 16.449219 Z M 90.738281 16.449219 "/>
<path style=" stroke:none;fill-rule:nonzero;fill:rgb(99.215686%,83.921569%,83.921569%);fill-opacity:1;" d="M 79.484375 24.289062 C 79.457031 22.570312 79.457031 20.851562 79.457031 19.132812 C 79.488281 19.109375 79.519531 19.082031 79.550781 19.058594 C 79.6875 19.214844 79.828125 19.371094 79.9375 19.5625 C 79.5625 19.792969 79.707031 20.191406 79.632812 20.5 C 79.652344 21.683594 79.671875 22.871094 79.675781 24.058594 C 79.679688 24.136719 79.574219 24.214844 79.484375 24.289062 Z M 79.484375 24.289062 "/>
<path style=" stroke:none;fill-rule:nonzero;fill:rgb(98.823529%,98.039216%,97.647059%);fill-opacity:1;" d="M 82.21875 15.578125 C 82.21875 15.578125 82.199219 15.609375 82.152344 15.609375 C 81.980469 15.777344 81.855469 15.945312 81.726562 16.109375 C 81.726562 16.109375 81.722656 16.097656 81.699219 16.105469 C 81.632812 16.171875 81.597656 16.238281 81.558594 16.304688 C 81.558594 16.304688 81.554688 16.300781 81.535156 16.308594 C 81.5 16.339844 81.484375 16.367188 81.46875 16.394531 C 81.46875 16.394531 81.46875 16.398438 81.4375 16.398438 C 81.289062 16.464844 81.171875 16.535156 81.054688 16.605469 C 81.046875 16.488281 81.058594 16.367188 81.027344 16.261719 C 80.929688 15.921875 80.921875 15.730469 81.3125 15.671875 C 81.597656 15.628906 81.980469 15.535156 81.914062 14.945312 C 81.90625 14.855469 82.230469 14.714844 82.4375 14.632812 C 82.445312 14.746094 82.417969 14.824219 82.359375 14.902344 C 82.28125 14.9375 82.230469 14.972656 82.179688 15.011719 C 82.25 15.039062 82.320312 15.070312 82.386719 15.125 C 82.390625 15.167969 82.390625 15.183594 82.386719 15.234375 C 82.386719 15.3125 82.386719 15.355469 82.386719 15.398438 C 82.371094 15.425781 82.351562 15.449219 82.296875 15.492188 C 82.238281 15.523438 82.222656 15.546875 82.21875 15.578125 Z M 82.21875 15.578125 "/>
<path style=" stroke:none;fill-rule:nonzero;fill:rgb(98.823529%,90.980392%,90.588235%);fill-opacity:1;" d="M 86.320312 23.523438 C 86.480469 23.625 86.632812 23.800781 86.808594 23.898438 C 87.292969 24.164062 87.785156 24.398438 88.296875 24.671875 C 87.984375 24.632812 87.652344 24.570312 87.320312 24.507812 C 87.0625 24.457031 86.800781 24.402344 86.53125 24.421875 C 86.367188 24.179688 86.207031 24.175781 85.964844 24.386719 C 85.851562 24.488281 85.652344 24.445312 85.511719 24.433594 C 85.59375 24.351562 85.652344 24.308594 85.710938 24.261719 C 85.710938 24.226562 85.710938 24.191406 85.71875 24.132812 C 85.984375 24.023438 86.386719 24.160156 86.320312 23.523438 Z M 86.320312 23.523438 "/>
<path style=" stroke:none;fill-rule:nonzero;fill:rgb(99.215686%,83.921569%,83.921569%);fill-opacity:1;" d="M 72.914062 14.117188 C 72.945312 15.75 72.953125 17.398438 72.957031 19.046875 C 72.964844 20.761719 72.964844 22.476562 72.972656 24.238281 C 72.917969 24.183594 72.804688 24.078125 72.804688 23.976562 C 72.816406 23.03125 72.863281 22.085938 72.867188 21.140625 C 72.875 19.125 72.867188 17.109375 72.871094 15.097656 C 72.871094 14.777344 72.882812 14.457031 72.914062 14.117188 Z M 72.914062 14.117188 "/>
<path style=" stroke:none;fill-rule:nonzero;fill:rgb(98.039216%,78.823529%,78.823529%);fill-opacity:1;" d="M 13.464844 19.871094 C 13.410156 19.695312 13.378906 19.492188 13.332031 19.1875 C 15.636719 19.1875 17.878906 19.1875 20.15625 19.191406 C 20.039062 19.234375 19.882812 19.296875 19.726562 19.296875 C 17.828125 19.300781 15.933594 19.308594 14.035156 19.289062 C 13.679688 19.289062 13.484375 19.394531 13.464844 19.871094 Z M 13.464844 19.871094 "/>
<path style=" stroke:none;fill-rule:nonzero;fill:rgb(98.823529%,97.647059%,97.647059%);fill-opacity:1;" d="M 82.390625 15.203125 C 82.390625 15.183594 82.390625 15.167969 82.390625 15.09375 C 82.386719 14.988281 82.386719 14.945312 82.390625 14.898438 C 82.417969 14.824219 82.445312 14.746094 82.472656 14.632812 C 82.714844 14.511719 82.898438 14.394531 82.84375 14.011719 C 82.835938 13.929688 83.023438 13.738281 83.136719 13.71875 C 83.390625 13.671875 83.652344 13.703125 83.941406 13.738281 C 83.832031 13.890625 83.699219 14 83.566406 14.113281 C 83.566406 14.113281 83.558594 14.101562 83.539062 14.109375 C 83.507812 14.144531 83.492188 14.171875 83.472656 14.199219 C 83.464844 14.230469 83.453125 14.257812 83.382812 14.292969 C 83.269531 14.398438 83.203125 14.488281 83.136719 14.582031 C 83.136719 14.582031 83.117188 14.613281 83.074219 14.613281 C 82.898438 14.777344 82.773438 14.941406 82.644531 15.105469 C 82.644531 15.105469 82.640625 15.101562 82.613281 15.101562 C 82.523438 15.136719 82.457031 15.167969 82.390625 15.203125 Z M 82.390625 15.203125 "/>
<path style=" stroke:none;fill-rule:nonzero;fill:rgb(99.215686%,98.039216%,97.254902%);fill-opacity:1;" d="M 82.894531 22.894531 C 82.921875 22.902344 82.945312 22.921875 82.972656 22.996094 C 83.011719 23.0625 83.035156 23.082031 83.058594 23.097656 C 83.058594 23.097656 83.054688 23.101562 83.054688 23.136719 C 83.140625 23.246094 83.226562 23.320312 83.3125 23.394531 C 83.3125 23.394531 83.308594 23.398438 83.316406 23.421875 C 83.351562 23.460938 83.375 23.476562 83.402344 23.492188 C 83.402344 23.492188 83.390625 23.496094 83.390625 23.527344 C 83.394531 23.605469 83.394531 23.652344 83.394531 23.699219 C 82.832031 23.644531 82.511719 23.234375 82.292969 22.65625 C 82.269531 22.59375 82.203125 22.515625 82.152344 22.511719 C 81.792969 22.503906 81.734375 22.214844 81.746094 21.847656 C 81.839844 21.847656 81.90625 21.871094 81.972656 21.894531 C 82 21.898438 82.023438 21.914062 82.054688 21.988281 C 82.175781 22.160156 82.289062 22.273438 82.402344 22.390625 C 82.5 22.472656 82.601562 22.554688 82.714844 22.695312 C 82.785156 22.804688 82.839844 22.847656 82.894531 22.894531 Z M 82.894531 22.894531 "/>
<path style=" stroke:none;fill-rule:nonzero;fill:rgb(98.823529%,90.980392%,90.588235%);fill-opacity:1;" d="M 90.675781 21.902344 C 90.527344 23.054688 89.3125 23.503906 88.550781 23.21875 C 88.269531 23.113281 88.011719 22.921875 87.734375 22.734375 C 88.265625 22.816406 88.800781 23.027344 89.332031 23.011719 C 89.804688 23 90.25 22.703125 90.464844 22.097656 C 90.492188 22.019531 90.585938 21.96875 90.675781 21.902344 Z M 90.675781 21.902344 "/>
<path style=" stroke:none;fill-rule:nonzero;fill:rgb(98.823529%,90.980392%,90.588235%);fill-opacity:1;" d="M 88.15625 19.328125 C 88.886719 19.597656 89.660156 19.808594 90.226562 20.566406 C 89.714844 20.496094 89.195312 20.445312 88.832031 19.855469 C 88.6875 19.621094 88.386719 19.523438 88.15625 19.328125 Z M 88.15625 19.328125 "/>
<path style=" stroke:none;fill-rule:nonzero;fill:rgb(98.823529%,90.980392%,90.588235%);fill-opacity:1;" d="M 87.972656 15.480469 C 88.308594 14.914062 89.496094 14.804688 90.019531 15.332031 C 90.296875 15.609375 90.496094 15.996094 90.726562 16.367188 C 90.53125 16.195312 90.324219 15.996094 90.144531 15.773438 C 89.546875 15.042969 88.886719 15.015625 88.167969 15.46875 C 88.121094 15.496094 88.058594 15.484375 87.972656 15.480469 Z M 87.972656 15.480469 "/>
<path style=" stroke:none;fill-rule:nonzero;fill:rgb(98.431373%,98.431373%,97.647059%);fill-opacity:1;" d="M 79.667969 20.5 C 79.707031 20.191406 79.5625 19.792969 79.9375 19.597656 C 79.972656 19.59375 79.96875 19.597656 79.96875 19.632812 C 80.078125 19.746094 80.191406 19.824219 80.300781 19.898438 C 80.300781 19.898438 80.300781 19.898438 80.300781 19.9375 C 80.386719 20.046875 80.472656 20.121094 80.554688 20.195312 C 80.554688 20.195312 80.550781 20.199219 80.554688 20.230469 C 80.613281 20.40625 80.667969 20.550781 80.726562 20.695312 C 80.382812 20.632812 80.042969 20.566406 79.667969 20.5 Z M 79.667969 20.5 "/>
<path style=" stroke:none;fill-rule:nonzero;fill:rgb(99.607843%,98.039216%,98.039216%);fill-opacity:1;" d="M 85.222656 14.488281 C 85.25 14.597656 85.265625 14.714844 85.300781 14.816406 C 85.339844 14.925781 85.402344 15.027344 85.453125 15.128906 C 85.347656 15.1875 85.230469 15.308594 85.136719 15.289062 C 84.648438 15.1875 84.382812 15.496094 84.140625 15.957031 C 84.082031 15.832031 84.070312 15.710938 84.074219 15.5625 C 84.132812 15.421875 84.179688 15.308594 84.222656 15.195312 C 84.222656 15.195312 84.226562 15.199219 84.253906 15.199219 C 84.644531 15.140625 84.890625 14.933594 84.96875 14.488281 C 84.96875 14.488281 84.976562 14.5 85.003906 14.5 C 85.09375 14.496094 85.160156 14.492188 85.222656 14.488281 Z M 85.222656 14.488281 "/>
<path style=" stroke:none;fill-rule:nonzero;fill:rgb(99.215686%,83.921569%,83.921569%);fill-opacity:1;" d="M 74.144531 15.722656 C 74.136719 15.160156 74.140625 14.625 74.140625 14.039062 C 74.21875 14.097656 74.339844 14.1875 74.363281 14.304688 C 74.398438 14.507812 74.371094 14.726562 74.371094 14.96875 C 74.527344 14.941406 74.632812 14.925781 74.773438 14.910156 C 74.648438 15.199219 74.492188 15.484375 74.324219 15.761719 C 74.304688 15.789062 74.210938 15.757812 74.144531 15.722656 Z M 74.144531 15.722656 "/>
<path style=" stroke:none;fill-rule:nonzero;fill:rgb(98.823529%,90.980392%,90.588235%);fill-opacity:1;" d="M 92.007812 21.277344 C 91.855469 20.648438 91.746094 19.976562 91.296875 19.507812 C 91.070312 19.273438 90.808594 19.085938 90.546875 18.851562 C 91.199219 18.714844 91.480469 19.316406 91.742188 19.859375 C 91.941406 20.269531 92.191406 20.710938 92.007812 21.277344 Z M 92.007812 21.277344 "/>
<path style=" stroke:none;fill-rule:nonzero;fill:rgb(98.823529%,90.980392%,90.588235%);fill-opacity:1;" d="M 86.546875 21.621094 C 86.410156 21.78125 86.253906 21.984375 86.058594 22.074219 C 85.730469 22.21875 85.804688 22.421875 85.929688 22.679688 C 86.035156 22.890625 86.128906 23.105469 86.234375 23.355469 C 85.742188 23.027344 85.546875 22.46875 85.496094 21.746094 C 85.777344 21.945312 86.027344 21.976562 86.234375 21.636719 C 86.273438 21.578125 86.417969 21.617188 86.546875 21.621094 Z M 86.546875 21.621094 "/>
<path style=" stroke:none;fill-rule:nonzero;fill:rgb(98.823529%,90.980392%,90.588235%);fill-opacity:1;" d="M 85.5625 23.933594 C 85.03125 23.378906 84.496094 22.789062 83.957031 22.164062 C 84.179688 22.300781 84.421875 22.453125 84.636719 22.652344 C 84.917969 22.917969 85.1875 23.210938 85.441406 23.515625 C 85.515625 23.601562 85.523438 23.765625 85.5625 23.933594 Z M 85.5625 23.933594 "/>
<path style=" stroke:none;fill-rule:nonzero;fill:rgb(98.823529%,90.980392%,90.588235%);fill-opacity:1;" d="M 86.175781 16.007812 C 86.175781 16.796875 86.234375 17.566406 86.738281 18.214844 C 86.53125 18.519531 86.339844 18.25 86.308594 18.105469 C 86.164062 17.425781 85.914062 16.746094 86.175781 16.007812 Z M 86.175781 16.007812 "/>
<path style=" stroke:none;fill-rule:nonzero;fill:rgb(98.823529%,90.980392%,90.588235%);fill-opacity:1;" d="M 88.390625 17.777344 C 87.59375 17.542969 87.09375 16.351562 87.867188 15.5 C 87.894531 15.542969 87.910156 15.605469 87.890625 15.640625 C 87.378906 16.574219 87.820312 17.179688 88.390625 17.777344 Z M 88.390625 17.777344 "/>
<path style=" stroke:none;fill-rule:nonzero;fill:rgb(99.215686%,83.921569%,83.921569%);fill-opacity:1;" d="M 80.746094 20.71875 C 80.667969 20.550781 80.613281 20.40625 80.554688 20.230469 C 81.027344 20.738281 81.496094 21.285156 81.96875 21.863281 C 81.90625 21.871094 81.839844 21.847656 81.746094 21.808594 C 81.40625 21.441406 81.085938 21.089844 80.746094 20.71875 Z M 80.746094 20.71875 "/>
<path style=" stroke:none;fill-rule:nonzero;fill:rgb(98.823529%,90.980392%,90.588235%);fill-opacity:1;" d="M 90.480469 18.765625 C 89.859375 18.519531 89.230469 18.234375 88.585938 17.921875 C 88.597656 17.867188 88.640625 17.808594 88.664062 17.816406 C 89.234375 18.070312 89.804688 18.328125 90.375 18.589844 C 90.417969 18.609375 90.445312 18.683594 90.480469 18.765625 Z M 90.480469 18.765625 "/>
<path style=" stroke:none;fill-rule:nonzero;fill:rgb(98.823529%,90.980392%,90.588235%);fill-opacity:1;" d="M 89.289062 13.550781 C 88.5 13.5625 87.726562 13.722656 87.015625 14.304688 C 87.136719 14.132812 87.261719 13.886719 87.441406 13.785156 C 88.015625 13.453125 88.636719 13.449219 89.289062 13.550781 Z M 89.289062 13.550781 "/>
<path style=" stroke:none;fill-rule:nonzero;fill:rgb(98.823529%,97.647059%,97.647059%);fill-opacity:1;" d="M 81.132812 18.902344 C 81.105469 18.894531 81.082031 18.875 81.078125 18.8125 C 81.113281 18.757812 81.125 18.734375 81.132812 18.699219 C 81.375 18.675781 81.710938 19.054688 81.792969 18.359375 C 81.824219 18.394531 81.855469 18.429688 81.886719 18.464844 C 81.886719 18.78125 81.886719 19.097656 81.859375 19.445312 C 81.726562 19.425781 81.617188 19.378906 81.511719 19.332031 C 81.480469 19.300781 81.445312 19.269531 81.398438 19.183594 C 81.300781 19.054688 81.214844 18.980469 81.132812 18.902344 Z M 81.132812 18.902344 "/>
<path style=" stroke:none;fill-rule:nonzero;fill:rgb(98.039216%,78.823529%,78.823529%);fill-opacity:1;" d="M 16.921875 23.269531 C 16.21875 23.554688 15.535156 23.410156 14.875 22.929688 C 15.515625 23.191406 16.203125 23.234375 16.921875 23.269531 Z M 16.921875 23.269531 "/>
<path style=" stroke:none;fill-rule:nonzero;fill:rgb(99.215686%,83.921569%,83.921569%);fill-opacity:1;" d="M 81.136719 18.664062 C 81.125 18.734375 81.113281 18.757812 81.070312 18.789062 C 80.976562 18.746094 80.902344 18.691406 80.769531 18.59375 C 81.125 18.273438 81.433594 17.988281 81.773438 17.703125 C 81.65625 17.929688 81.515625 18.164062 81.363281 18.386719 C 81.300781 18.480469 81.214844 18.546875 81.136719 18.664062 Z M 81.136719 18.664062 "/>
<path style=" stroke:none;fill-rule:nonzero;fill:rgb(98.823529%,90.980392%,90.588235%);fill-opacity:1;" d="M 91.148438 23.882812 C 91.359375 23.429688 91.601562 22.976562 91.871094 22.511719 C 91.910156 22.695312 92 22.964844 91.925781 23.074219 C 91.710938 23.382812 91.429688 23.621094 91.148438 23.882812 Z M 91.148438 23.882812 "/>
<path style=" stroke:none;fill-rule:nonzero;fill:rgb(98.823529%,90.980392%,90.588235%);fill-opacity:1;" d="M 87.480469 22.457031 C 87.332031 22.269531 87.199219 22.023438 87.03125 21.824219 C 86.9375 21.71875 86.78125 21.691406 86.621094 21.632812 C 86.640625 21.488281 86.691406 21.34375 86.796875 21.054688 C 87.042969 21.625 87.515625 21.816406 87.480469 22.457031 Z M 87.480469 22.457031 "/>
<path style=" stroke:none;fill-rule:nonzero;fill:rgb(98.823529%,90.980392%,90.588235%);fill-opacity:1;" d="M 86.957031 14.308594 C 86.746094 14.789062 86.503906 15.269531 86.242188 15.773438 C 86.019531 15.273438 86.347656 14.960938 86.566406 14.617188 C 86.652344 14.484375 86.804688 14.410156 86.957031 14.308594 Z M 86.957031 14.308594 "/>
<path style=" stroke:none;fill-rule:nonzero;fill:rgb(99.215686%,83.921569%,83.921569%);fill-opacity:1;" d="M 83.601562 14.109375 C 83.699219 14 83.832031 13.890625 83.976562 13.742188 C 84.355469 13.738281 84.726562 13.769531 85.097656 13.808594 C 85.167969 13.816406 85.234375 13.882812 85.304688 13.957031 C 84.75 14.03125 84.191406 14.066406 83.601562 14.109375 Z M 83.601562 14.109375 "/>
<path style=" stroke:none;fill-rule:nonzero;fill:rgb(98.823529%,90.980392%,90.588235%);fill-opacity:1;" d="M 86.984375 18.519531 C 87.367188 18.734375 87.742188 18.984375 88.136719 19.265625 C 87.636719 19.390625 87.183594 19.105469 86.984375 18.519531 Z M 86.984375 18.519531 "/>
<path style=" stroke:none;fill-rule:nonzero;fill:rgb(98.431373%,98.431373%,97.647059%);fill-opacity:1;" d="M 84.054688 15.589844 C 84.070312 15.710938 84.082031 15.832031 84.117188 15.976562 C 84.09375 16.128906 84.042969 16.257812 83.980469 16.417969 C 83.820312 16.304688 83.679688 16.203125 83.507812 16.070312 C 83.46875 16.019531 83.46875 16 83.464844 15.980469 C 83.472656 15.949219 83.484375 15.925781 83.554688 15.898438 C 83.640625 15.828125 83.683594 15.765625 83.726562 15.703125 C 83.742188 15.675781 83.761719 15.648438 83.828125 15.617188 C 83.9375 15.601562 83.996094 15.597656 84.054688 15.589844 Z M 84.054688 15.589844 "/>
<path style=" stroke:none;fill-rule:nonzero;fill:rgb(99.215686%,83.921569%,83.921569%);fill-opacity:1;" d="M 83.402344 23.726562 C 83.394531 23.652344 83.394531 23.605469 83.394531 23.523438 C 83.582031 23.675781 83.753906 23.894531 83.953125 24.046875 C 84.113281 24.167969 84.316406 24.214844 84.53125 24.304688 C 84.5625 24.316406 84.5625 24.359375 84.527344 24.382812 C 84.375 24.402344 84.257812 24.402344 84.140625 24.402344 C 84.105469 24.402344 84.066406 24.398438 83.992188 24.367188 C 83.820312 24.222656 83.691406 24.105469 83.5625 23.992188 C 83.511719 23.910156 83.464844 23.832031 83.402344 23.726562 Z M 83.402344 23.726562 "/>
<path style=" stroke:none;fill-rule:nonzero;fill:rgb(99.215686%,98.039216%,97.254902%);fill-opacity:1;" d="M 82.554688 16.90625 C 82.585938 16.871094 82.617188 16.835938 82.699219 16.792969 C 82.824219 16.789062 82.898438 16.789062 82.96875 16.792969 C 82.957031 17.136719 82.996094 17.539062 82.496094 17.277344 C 82.5 17.121094 82.527344 17.015625 82.554688 16.90625 Z M 82.554688 16.90625 "/>
<path style=" stroke:none;fill-rule:nonzero;fill:rgb(98.039216%,78.823529%,78.823529%);fill-opacity:1;" d="M 20.304688 18.96875 C 20.226562 18.589844 20.179688 18.179688 20.136719 17.730469 C 20.523438 18.042969 20.332031 18.511719 20.304688 18.96875 Z M 20.304688 18.96875 "/>
<path style=" stroke:none;fill-rule:nonzero;fill:rgb(99.215686%,83.921569%,83.921569%);fill-opacity:1;" d="M 75.964844 13.71875 C 75.671875 14.023438 75.351562 14.316406 74.996094 14.613281 C 75.089844 14.011719 75.527344 13.886719 75.964844 13.71875 Z M 75.964844 13.71875 "/>
<path style=" stroke:none;fill-rule:nonzero;fill:rgb(98.823529%,90.980392%,90.588235%);fill-opacity:1;" d="M 89.417969 24.726562 C 89.726562 24.582031 90.054688 24.46875 90.414062 24.355469 C 90.441406 24.414062 90.445312 24.527344 90.429688 24.53125 C 90.101562 24.613281 89.769531 24.683594 89.417969 24.726562 Z M 89.417969 24.726562 "/>
<path style=" stroke:none;fill-rule:nonzero;fill:rgb(99.215686%,83.921569%,83.921569%);fill-opacity:1;" d="M 82.96875 16.769531 C 82.898438 16.789062 82.824219 16.789062 82.71875 16.78125 C 82.925781 16.515625 83.167969 16.253906 83.4375 15.988281 C 83.46875 16 83.46875 16.019531 83.476562 16.070312 C 83.410156 16.222656 83.339844 16.34375 83.21875 16.484375 C 83.101562 16.566406 83.039062 16.632812 82.972656 16.699219 C 82.972656 16.699219 82.96875 16.746094 82.96875 16.769531 Z M 82.96875 16.769531 "/>
<path style=" stroke:none;fill-rule:nonzero;fill:rgb(98.823529%,90.980392%,90.588235%);fill-opacity:1;" d="M 90.238281 20.632812 C 90.402344 20.875 90.5625 21.152344 90.71875 21.46875 C 90.554688 21.226562 90.398438 20.949219 90.238281 20.632812 Z M 90.238281 20.632812 "/>
<path style=" stroke:none;fill-rule:nonzero;fill:rgb(99.215686%,83.921569%,83.921569%);fill-opacity:1;" d="M 82.527344 16.90625 C 82.527344 17.015625 82.5 17.121094 82.46875 17.261719 C 82.261719 17.429688 82.0625 17.5625 81.832031 17.695312 C 82.035156 17.433594 82.265625 17.171875 82.527344 16.90625 Z M 82.527344 16.90625 "/>
<path style=" stroke:none;fill-rule:nonzero;fill:rgb(99.215686%,83.921569%,83.921569%);fill-opacity:1;" d="M 76.320312 15.128906 C 76.609375 15.082031 76.929688 15.066406 77.269531 15.074219 C 76.980469 15.117188 76.660156 15.136719 76.320312 15.128906 Z M 76.320312 15.128906 "/>
<path style=" stroke:none;fill-rule:nonzero;fill:rgb(99.215686%,98.039216%,97.254902%);fill-opacity:1;" d="M 83.558594 24.035156 C 83.691406 24.105469 83.820312 24.222656 83.964844 24.367188 C 83.859375 24.484375 83.742188 24.574219 83.558594 24.710938 C 83.558594 24.445312 83.558594 24.261719 83.558594 24.035156 Z M 83.558594 24.035156 "/>
<path style=" stroke:none;fill-rule:nonzero;fill:rgb(98.039216%,78.823529%,78.823529%);fill-opacity:1;" d="M 19.089844 21.105469 C 18.941406 21.429688 18.765625 21.753906 18.558594 22.089844 C 18.707031 21.769531 18.882812 21.4375 19.089844 21.105469 Z M 19.089844 21.105469 "/>
<path style=" stroke:none;fill-rule:nonzero;fill:rgb(98.039216%,78.823529%,78.823529%);fill-opacity:1;" d="M 13.757812 21.195312 C 13.644531 20.882812 13.539062 20.53125 13.445312 20.140625 C 13.554688 20.449219 13.660156 20.800781 13.757812 21.195312 Z M 13.757812 21.195312 "/>
<path style=" stroke:none;fill-rule:nonzero;fill:rgb(98.823529%,90.980392%,90.588235%);fill-opacity:1;" d="M 83.394531 21.449219 C 83.246094 21.332031 83.097656 21.171875 82.941406 20.980469 C 83.304688 20.789062 83.429688 20.984375 83.394531 21.449219 Z M 83.394531 21.449219 "/>
<path style=" stroke:none;fill-rule:nonzero;fill:rgb(98.823529%,90.980392%,90.588235%);fill-opacity:1;" d="M 90.488281 24.367188 C 90.640625 24.199219 90.824219 24.050781 91.039062 23.898438 C 90.996094 24.238281 90.859375 24.472656 90.488281 24.367188 Z M 90.488281 24.367188 "/>
<path style=" stroke:none;fill-rule:nonzero;fill:rgb(99.215686%,83.921569%,83.921569%);fill-opacity:1;" d="M 74.019531 13.941406 C 73.707031 13.980469 73.375 13.992188 73.003906 14.011719 C 72.984375 13.957031 73.003906 13.851562 73.019531 13.851562 C 73.347656 13.867188 73.671875 13.894531 74.019531 13.941406 Z M 74.019531 13.941406 "/>
<path style=" stroke:none;fill-rule:nonzero;fill:rgb(99.215686%,83.921569%,83.921569%);fill-opacity:1;" d="M 81.042969 16.628906 C 81.171875 16.535156 81.289062 16.464844 81.4375 16.394531 C 81.269531 16.605469 81.074219 16.8125 80.84375 16.992188 C 80.839844 16.878906 80.863281 16.792969 80.890625 16.710938 C 80.9375 16.691406 80.980469 16.671875 81.042969 16.628906 Z M 81.042969 16.628906 "/>
<path style=" stroke:none;fill-rule:nonzero;fill:rgb(98.823529%,90.980392%,90.588235%);fill-opacity:1;" d="M 83.957031 22.09375 C 83.769531 21.941406 83.589844 21.75 83.40625 21.527344 C 83.585938 21.683594 83.777344 21.867188 83.957031 22.09375 Z M 83.957031 22.09375 "/>
<path style=" stroke:none;fill-rule:nonzero;fill:rgb(98.823529%,90.980392%,90.588235%);fill-opacity:1;" d="M 82.230469 20.101562 C 82.171875 20.113281 82.152344 20.101562 82.136719 20.015625 C 82.132812 19.90625 82.132812 19.855469 82.132812 19.804688 C 82.253906 19.738281 82.371094 19.667969 82.492188 19.597656 C 82.519531 19.644531 82.542969 19.6875 82.570312 19.730469 C 82.46875 19.851562 82.363281 19.976562 82.230469 20.101562 Z M 82.230469 20.101562 "/>
<path style=" stroke:none;fill-rule:nonzero;fill:rgb(98.039216%,78.823529%,78.823529%);fill-opacity:1;" d="M 14.171875 22.085938 C 14.03125 21.875 13.898438 21.625 13.765625 21.339844 C 13.90625 21.550781 14.042969 21.800781 14.171875 22.085938 Z M 14.171875 22.085938 "/>
<path style=" stroke:none;fill-rule:nonzero;fill:rgb(99.215686%,83.921569%,83.921569%);fill-opacity:1;" d="M 77.6875 14.898438 C 77.738281 14.644531 77.8125 14.378906 77.914062 14.097656 C 77.863281 14.347656 77.789062 14.621094 77.6875 14.898438 Z M 77.6875 14.898438 "/>
<path style=" stroke:none;fill-rule:nonzero;fill:rgb(99.215686%,83.921569%,83.921569%);fill-opacity:1;" d="M 74.425781 17.597656 C 74.472656 17.359375 74.546875 17.113281 74.648438 16.855469 C 74.601562 17.089844 74.527344 17.339844 74.425781 17.597656 Z M 74.425781 17.597656 "/>
<path style=" stroke:none;fill-rule:nonzero;fill:rgb(98.823529%,98.039216%,97.647059%);fill-opacity:1;" d="M 80.875 16.683594 C 80.863281 16.792969 80.839844 16.878906 80.816406 16.996094 C 80.808594 17.058594 80.796875 17.082031 80.757812 17.105469 C 80.699219 17.113281 80.65625 17.105469 80.585938 17.105469 C 80.65625 16.957031 80.757812 16.804688 80.875 16.683594 Z M 80.875 16.683594 "/>
<path style=" stroke:none;fill-rule:nonzero;fill:rgb(98.039216%,78.823529%,78.823529%);fill-opacity:1;" d="M 19.945312 16.476562 C 19.839844 16.296875 19.734375 16.078125 19.636719 15.828125 C 19.742188 16.007812 19.84375 16.222656 19.945312 16.476562 Z M 19.945312 16.476562 "/>
<path style=" stroke:none;fill-rule:nonzero;fill:rgb(99.215686%,83.921569%,83.921569%);fill-opacity:1;" d="M 85.238281 14.460938 C 85.160156 14.492188 85.09375 14.496094 85 14.496094 C 85.082031 14.355469 85.195312 14.21875 85.335938 14.078125 C 85.324219 14.195312 85.289062 14.3125 85.238281 14.460938 Z M 85.238281 14.460938 "/>
<path style=" stroke:none;fill-rule:nonzero;fill:rgb(99.215686%,98.039216%,97.254902%);fill-opacity:1;" d="M 84.144531 24.4375 C 84.257812 24.402344 84.375 24.402344 84.527344 24.402344 C 84.460938 24.773438 84.328125 24.824219 84.144531 24.4375 Z M 84.144531 24.4375 "/>
<path style=" stroke:none;fill-rule:nonzero;fill:rgb(98.039216%,78.823529%,78.823529%);fill-opacity:1;" d="M 19.605469 21.15625 C 19.472656 21.160156 19.328125 21.128906 19.152344 21.105469 C 19.289062 20.707031 19.441406 20.976562 19.605469 21.15625 Z M 19.605469 21.15625 "/>
<path style=" stroke:none;fill-rule:nonzero;fill:rgb(99.215686%,83.921569%,83.921569%);fill-opacity:1;" d="M 79.355469 6.15625 C 79.074219 6.191406 78.765625 6.195312 78.421875 6.191406 C 78.699219 6.164062 79.015625 6.148438 79.355469 6.15625 Z M 79.355469 6.15625 "/>
<path style=" stroke:none;fill-rule:nonzero;fill:rgb(99.215686%,83.921569%,83.921569%);fill-opacity:1;" d="M 75.640625 15.492188 C 75.765625 15.359375 75.917969 15.234375 76.105469 15.117188 C 75.980469 15.246094 75.824219 15.371094 75.640625 15.492188 Z M 75.640625 15.492188 "/>
<path style=" stroke:none;fill-rule:nonzero;fill:rgb(99.215686%,83.921569%,83.921569%);fill-opacity:1;" d="M 77.871094 13.671875 C 77.726562 13.691406 77.578125 13.671875 77.402344 13.628906 C 77.542969 13.613281 77.707031 13.625 77.871094 13.671875 Z M 77.871094 13.671875 "/>
<path style=" stroke:none;fill-rule:nonzero;fill:rgb(99.215686%,83.921569%,83.921569%);fill-opacity:1;" d="M 81.519531 19.363281 C 81.617188 19.378906 81.726562 19.425781 81.859375 19.492188 C 81.882812 19.558594 81.882812 19.609375 81.875 19.699219 C 81.757812 19.621094 81.644531 19.507812 81.519531 19.363281 Z M 81.519531 19.363281 "/>
<path style=" stroke:none;fill-rule:nonzero;fill:rgb(98.039216%,78.823529%,78.823529%);fill-opacity:1;" d="M 19.597656 15.601562 C 19.492188 15.511719 19.394531 15.386719 19.296875 15.226562 C 19.398438 15.316406 19.5 15.441406 19.597656 15.601562 Z M 19.597656 15.601562 "/>
<path style=" stroke:none;fill-rule:nonzero;fill:rgb(99.215686%,83.921569%,83.921569%);fill-opacity:1;" d="M 73.058594 24.339844 C 73.238281 24.308594 73.4375 24.304688 73.671875 24.3125 C 73.5 24.335938 73.289062 24.351562 73.058594 24.339844 Z M 73.058594 24.339844 "/>
<path style=" stroke:none;fill-rule:nonzero;fill:rgb(98.039216%,78.823529%,78.823529%);fill-opacity:1;" d="M 14.441406 22.460938 C 14.351562 22.394531 14.261719 22.296875 14.171875 22.160156 C 14.257812 22.226562 14.347656 22.324219 14.441406 22.460938 Z M 14.441406 22.460938 "/>
<path style=" stroke:none;fill-rule:nonzero;fill:rgb(98.823529%,90.980392%,90.588235%);fill-opacity:1;" d="M 91.945312 22.28125 C 91.929688 22.152344 91.9375 22.003906 91.964844 21.828125 C 91.980469 21.953125 91.976562 22.109375 91.945312 22.28125 Z M 91.945312 22.28125 "/>
<path style=" stroke:none;fill-rule:nonzero;fill:rgb(99.215686%,83.921569%,83.921569%);fill-opacity:1;" d="M 76.445312 13.582031 C 76.371094 13.640625 76.277344 13.671875 76.15625 13.695312 C 76.226562 13.640625 76.328125 13.597656 76.445312 13.582031 Z M 76.445312 13.582031 "/>
<path style=" stroke:none;fill-rule:nonzero;fill:rgb(98.039216%,78.823529%,78.823529%);fill-opacity:1;" d="M 20.035156 21.453125 C 19.925781 21.417969 19.816406 21.351562 19.691406 21.253906 C 19.792969 21.289062 19.914062 21.351562 20.035156 21.453125 Z M 20.035156 21.453125 "/>
<path style=" stroke:none;fill-rule:nonzero;fill:rgb(99.215686%,83.921569%,83.921569%);fill-opacity:1;" d="M 74.753906 16.699219 C 74.777344 16.566406 74.832031 16.433594 74.910156 16.273438 C 74.882812 16.398438 74.832031 16.546875 74.753906 16.699219 Z M 74.753906 16.699219 "/>
<path style=" stroke:none;fill-rule:nonzero;fill:rgb(99.215686%,83.921569%,83.921569%);fill-opacity:1;" d="M 78.65625 24.339844 C 78.832031 24.308594 79.027344 24.300781 79.261719 24.304688 C 79.09375 24.332031 78.886719 24.351562 78.65625 24.339844 Z M 78.65625 24.339844 "/>
<path style=" stroke:none;fill-rule:nonzero;fill:rgb(98.823529%,90.980392%,90.588235%);fill-opacity:1;" d="M 88.507812 24.738281 C 88.679688 24.707031 88.878906 24.699219 89.113281 24.707031 C 88.941406 24.734375 88.734375 24.75 88.507812 24.738281 Z M 88.507812 24.738281 "/>
<path style=" stroke:none;fill-rule:nonzero;fill:rgb(99.215686%,83.921569%,83.921569%);fill-opacity:1;" d="M 75.234375 15.894531 C 75.273438 15.796875 75.339844 15.699219 75.433594 15.605469 C 75.394531 15.703125 75.328125 15.800781 75.234375 15.894531 Z M 75.234375 15.894531 "/>
<path style=" stroke:none;fill-rule:nonzero;fill:rgb(99.215686%,83.921569%,83.921569%);fill-opacity:1;" d="M 77.191406 13.5625 C 77.042969 13.59375 76.871094 13.601562 76.664062 13.597656 C 76.808594 13.570312 76.988281 13.554688 77.191406 13.5625 Z M 77.191406 13.5625 "/>
<path style=" stroke:none;fill-rule:nonzero;fill:rgb(98.823529%,90.980392%,90.588235%);fill-opacity:1;" d="M 82.941406 20.90625 C 82.867188 20.886719 82.800781 20.828125 82.730469 20.714844 C 82.722656 20.636719 82.722656 20.617188 82.722656 20.597656 C 82.800781 20.691406 82.878906 20.78125 82.941406 20.90625 Z M 82.941406 20.90625 "/>
<path style=" stroke:none;fill-rule:nonzero;fill:rgb(98.039216%,78.823529%,78.823529%);fill-opacity:1;" d="M 17.695312 22.921875 C 17.625 22.992188 17.527344 23.050781 17.394531 23.109375 C 17.464844 23.039062 17.5625 22.976562 17.695312 22.921875 Z M 17.695312 22.921875 "/>
<path style=" stroke:none;fill-rule:nonzero;fill:rgb(99.215686%,83.921569%,83.921569%);fill-opacity:1;" d="M 74.984375 16.199219 C 75.019531 16.101562 75.085938 16.007812 75.179688 15.90625 C 75.140625 15.996094 75.078125 16.097656 74.984375 16.199219 Z M 74.984375 16.199219 "/>
<path style=" stroke:none;fill-rule:nonzero;fill:rgb(98.039216%,78.823529%,78.823529%);fill-opacity:1;" d="M 20.140625 17.378906 C 20.09375 17.289062 20.0625 17.179688 20.042969 17.03125 C 20.085938 17.117188 20.125 17.242188 20.140625 17.378906 Z M 20.140625 17.378906 "/>
<path style=" stroke:none;fill-rule:nonzero;fill:rgb(98.039216%,78.823529%,78.823529%);fill-opacity:1;" d="M 17.339844 23.101562 C 17.296875 23.167969 17.230469 23.230469 17.132812 23.28125 C 17.171875 23.210938 17.242188 23.152344 17.339844 23.101562 Z M 17.339844 23.101562 "/>
<path style=" stroke:none;fill-rule:nonzero;fill:rgb(99.215686%,83.921569%,83.921569%);fill-opacity:1;" d="M 74.339844 18.101562 C 74.320312 18.019531 74.328125 17.933594 74.355469 17.824219 C 74.371094 17.898438 74.367188 17.996094 74.339844 18.101562 Z M 74.339844 18.101562 "/>
<path style=" stroke:none;fill-rule:nonzero;fill:rgb(98.039216%,78.823529%,78.823529%);fill-opacity:1;" d="M 18.5 22.105469 C 18.492188 22.195312 18.453125 22.285156 18.390625 22.390625 C 18.398438 22.300781 18.4375 22.203125 18.5 22.105469 Z M 18.5 22.105469 "/>
<path style=" stroke:none;fill-rule:nonzero;fill:rgb(99.215686%,98.039216%,97.254902%);fill-opacity:1;" d="M 83 16.699219 C 83.039062 16.632812 83.101562 16.566406 83.195312 16.5 C 83.160156 16.5625 83.09375 16.632812 83 16.699219 Z M 83 16.699219 "/>
<path style=" stroke:none;fill-rule:nonzero;fill:rgb(98.039216%,78.823529%,78.823529%);fill-opacity:1;" d="M 18.335938 22.398438 C 18.296875 22.464844 18.234375 22.53125 18.140625 22.597656 C 18.179688 22.53125 18.242188 22.464844 18.335938 22.398438 Z M 18.335938 22.398438 "/>
<path style=" stroke:none;fill-rule:nonzero;fill:rgb(98.039216%,78.823529%,78.823529%);fill-opacity:1;" d="M 14.855469 22.867188 C 14.796875 22.863281 14.734375 22.828125 14.664062 22.761719 C 14.722656 22.761719 14.785156 22.796875 14.855469 22.867188 Z M 14.855469 22.867188 "/>
<path style=" stroke:none;fill-rule:nonzero;fill:rgb(98.039216%,78.823529%,78.823529%);fill-opacity:1;" d="M 17.953125 22.722656 C 17.933594 22.789062 17.882812 22.847656 17.808594 22.902344 C 17.828125 22.835938 17.875 22.777344 17.953125 22.722656 Z M 17.953125 22.722656 "/>
<path style=" stroke:none;fill-rule:nonzero;fill:rgb(99.215686%,83.921569%,83.921569%);fill-opacity:1;" d="M 82.101562 19.804688 C 82.132812 19.855469 82.132812 19.90625 82.128906 19.996094 C 82.070312 19.984375 82.015625 19.933594 81.949219 19.851562 C 81.984375 19.816406 82.027344 19.808594 82.101562 19.804688 Z M 82.101562 19.804688 "/>
<path style=" stroke:none;fill-rule:nonzero;fill:rgb(98.823529%,90.980392%,90.588235%);fill-opacity:1;" d="M 85.640625 23.359375 C 85.621094 23.320312 85.621094 23.28125 85.625 23.242188 C 85.625 23.242188 85.648438 23.242188 85.660156 23.242188 C 85.660156 23.28125 85.660156 23.320312 85.640625 23.359375 Z M 85.640625 23.359375 "/>
<path style=" stroke:none;fill-rule:nonzero;fill:rgb(99.215686%,83.921569%,83.921569%);fill-opacity:1;" d="M 85.679688 24.265625 C 85.652344 24.308594 85.59375 24.351562 85.507812 24.398438 C 85.453125 24.394531 85.429688 24.378906 85.402344 24.335938 C 85.476562 24.300781 85.5625 24.285156 85.679688 24.265625 Z M 85.679688 24.265625 "/>
<path style=" stroke:none;fill-rule:nonzero;fill:rgb(99.215686%,83.921569%,83.921569%);fill-opacity:1;" d="M 85.390625 14.078125 C 85.367188 14.066406 85.355469 14.050781 85.359375 14.039062 C 85.402344 14.039062 85.441406 14.046875 85.484375 14.058594 C 85.460938 14.066406 85.4375 14.078125 85.390625 14.078125 Z M 85.390625 14.078125 "/>
<path style=" stroke:none;fill-rule:nonzero;fill:rgb(99.215686%,83.921569%,83.921569%);fill-opacity:1;" d="M 82.699219 20.597656 C 82.722656 20.617188 82.722656 20.636719 82.71875 20.6875 C 82.6875 20.699219 82.664062 20.683594 82.628906 20.640625 C 82.640625 20.609375 82.65625 20.605469 82.699219 20.597656 Z M 82.699219 20.597656 "/>
<path style=" stroke:none;fill-rule:nonzero;fill:rgb(99.215686%,83.921569%,83.921569%);fill-opacity:1;" d="M 82.46875 20.464844 C 82.449219 20.472656 82.425781 20.460938 82.402344 20.421875 C 82.429688 20.398438 82.449219 20.414062 82.46875 20.464844 Z M 82.46875 20.464844 "/>
<path style=" stroke:none;fill-rule:nonzero;fill:rgb(98.823529%,90.980392%,90.588235%);fill-opacity:1;" d="M 86.820312 18.324219 C 86.839844 18.316406 86.863281 18.332031 86.898438 18.371094 C 86.878906 18.378906 86.855469 18.363281 86.820312 18.324219 Z M 86.820312 18.324219 "/>
<path style=" stroke:none;fill-rule:nonzero;fill:rgb(99.215686%,83.921569%,83.921569%);fill-opacity:1;" d="M 78.390625 24.328125 C 78.398438 24.304688 78.410156 24.300781 78.445312 24.304688 C 78.441406 24.324219 78.417969 24.335938 78.390625 24.328125 Z M 78.390625 24.328125 "/>
<path style=" stroke:none;fill-rule:nonzero;fill:rgb(98.039216%,78.823529%,78.823529%);fill-opacity:1;" d="M 20.003906 16.71875 C 19.980469 16.714844 19.964844 16.683594 19.957031 16.625 C 19.976562 16.628906 19.996094 16.660156 20.003906 16.71875 Z M 20.003906 16.71875 "/>
<path style=" stroke:none;fill-rule:nonzero;fill:rgb(98.039216%,78.823529%,78.823529%);fill-opacity:1;" d="M 20.226562 19.191406 C 20.207031 19.160156 20.214844 19.132812 20.253906 19.101562 C 20.265625 19.121094 20.257812 19.152344 20.226562 19.191406 Z M 20.226562 19.191406 "/>
<path style=" stroke:none;fill-rule:nonzero;fill:rgb(99.215686%,83.921569%,83.921569%);fill-opacity:1;" d="M 74.847656 14.8125 C 74.859375 14.832031 74.851562 14.863281 74.828125 14.90625 C 74.8125 14.886719 74.820312 14.855469 74.847656 14.8125 Z M 74.847656 14.8125 "/>
<path style=" stroke:none;fill-rule:nonzero;fill:rgb(98.823529%,90.980392%,90.588235%);fill-opacity:1;" d="M 86.238281 23.414062 C 86.257812 23.40625 86.285156 23.421875 86.316406 23.464844 C 86.296875 23.476562 86.273438 23.457031 86.238281 23.414062 Z M 86.238281 23.414062 "/>
<path style=" stroke:none;fill-rule:nonzero;fill:rgb(98.039216%,78.823529%,78.823529%);fill-opacity:1;" d="M 20.1875 21.558594 C 20.171875 21.578125 20.144531 21.574219 20.101562 21.550781 C 20.117188 21.53125 20.148438 21.535156 20.1875 21.558594 Z M 20.1875 21.558594 "/>
<path style=" stroke:none;fill-rule:nonzero;fill:rgb(98.039216%,78.823529%,78.823529%);fill-opacity:1;" d="M 19.265625 15.101562 C 19.242188 15.105469 19.21875 15.085938 19.191406 15.039062 C 19.210938 15.03125 19.238281 15.050781 19.265625 15.101562 Z M 19.265625 15.101562 "/>
<path style=" stroke:none;fill-rule:nonzero;fill:rgb(98.823529%,90.980392%,90.588235%);fill-opacity:1;" d="M 87.554688 22.558594 C 87.539062 22.566406 87.515625 22.558594 87.484375 22.523438 C 87.507812 22.5 87.53125 22.515625 87.554688 22.558594 Z M 87.554688 22.558594 "/>
<path style=" stroke:none;fill-rule:nonzero;fill:rgb(99.607843%,98.039216%,98.039216%);fill-opacity:1;" d="M 6.867188 14.90625 C 7.519531 14.910156 8.109375 14.949219 8.65625 15.382812 C 9.324219 15.910156 9.6875 16.664062 9.859375 17.546875 C 10.078125 18.660156 10.074219 19.800781 9.832031 20.910156 C 9.449219 22.671875 7.96875 23.566406 6.574219 23.175781 C 5.128906 22.769531 4.511719 21.59375 4.335938 19.960938 C 4.214844 18.847656 4.199219 17.746094 4.613281 16.691406 C 5.058594 15.558594 5.800781 14.984375 6.867188 14.90625 Z M 6.867188 14.90625 "/>
<path style=" stroke:none;fill-rule:nonzero;fill:rgb(99.607843%,98.039216%,98.039216%);fill-opacity:1;" d="M 69.335938 20.941406 C 68.847656 22.535156 67.835938 23.269531 66.613281 23.269531 C 65.660156 23.265625 64.53125 22.675781 64.121094 21.304688 C 63.632812 19.667969 63.632812 18.054688 64.289062 16.535156 C 64.871094 15.191406 65.707031 14.710938 67.285156 14.957031 C 68.414062 15.136719 69.0625 15.992188 69.402344 17.277344 C 69.726562 18.507812 69.621094 19.699219 69.335938 20.941406 Z M 69.335938 20.941406 "/>
<path style=" stroke:none;fill-rule:nonzero;fill:rgb(99.607843%,96.862745%,96.862745%);fill-opacity:1;" d="M 16.777344 17.898438 C 15.65625 17.898438 14.574219 17.898438 13.496094 17.898438 C 13.445312 16.648438 14.53125 15.003906 16.03125 14.988281 C 17.78125 14.972656 18.683594 16.203125 18.761719 17.898438 C 18.113281 17.898438 17.464844 17.898438 16.777344 17.898438 Z M 16.777344 17.898438 "/>
<path style=" stroke:none;fill-rule:nonzero;fill:rgb(99.215686%,83.921569%,83.921569%);fill-opacity:1;" d="M 84.941406 14.496094 C 84.890625 14.933594 84.644531 15.140625 84.253906 15.199219 C 84.453125 14.964844 84.679688 14.734375 84.941406 14.496094 Z M 84.941406 14.496094 "/>
<path style=" stroke:none;fill-rule:nonzero;fill:rgb(99.215686%,83.921569%,83.921569%);fill-opacity:1;" d="M 82.671875 15.101562 C 82.773438 14.941406 82.898438 14.777344 83.058594 14.617188 C 82.960938 14.78125 82.832031 14.9375 82.671875 15.101562 Z M 82.671875 15.101562 "/>
<path style=" stroke:none;fill-rule:nonzero;fill:rgb(99.215686%,83.921569%,83.921569%);fill-opacity:1;" d="M 81.753906 16.101562 C 81.855469 15.945312 81.980469 15.777344 82.136719 15.617188 C 82.039062 15.777344 81.910156 15.933594 81.753906 16.101562 Z M 81.753906 16.101562 "/>
<path style=" stroke:none;fill-rule:nonzero;fill:rgb(99.215686%,83.921569%,83.921569%);fill-opacity:1;" d="M 84.074219 15.5625 C 83.996094 15.597656 83.9375 15.601562 83.847656 15.605469 C 83.9375 15.472656 84.050781 15.339844 84.195312 15.199219 C 84.179688 15.308594 84.132812 15.421875 84.074219 15.5625 Z M 84.074219 15.5625 "/>
<path style=" stroke:none;fill-rule:nonzero;fill:rgb(99.215686%,83.921569%,83.921569%);fill-opacity:1;" d="M 82.394531 22.359375 C 82.289062 22.273438 82.175781 22.160156 82.066406 22.007812 C 82.175781 22.089844 82.285156 22.207031 82.394531 22.359375 Z M 82.394531 22.359375 "/>
<path style=" stroke:none;fill-rule:nonzero;fill:rgb(99.215686%,83.921569%,83.921569%);fill-opacity:1;" d="M 80.292969 19.867188 C 80.191406 19.824219 80.078125 19.746094 79.96875 19.632812 C 80.078125 19.675781 80.183594 19.757812 80.292969 19.867188 Z M 80.292969 19.867188 "/>
<path style=" stroke:none;fill-rule:nonzero;fill:rgb(99.215686%,83.921569%,83.921569%);fill-opacity:1;" d="M 82.386719 15.234375 C 82.457031 15.167969 82.523438 15.136719 82.617188 15.105469 C 82.578125 15.203125 82.511719 15.296875 82.414062 15.394531 C 82.386719 15.355469 82.386719 15.3125 82.386719 15.234375 Z M 82.386719 15.234375 "/>
<path style=" stroke:none;fill-rule:nonzero;fill:rgb(99.215686%,83.921569%,83.921569%);fill-opacity:1;" d="M 81.132812 18.9375 C 81.214844 18.980469 81.300781 19.054688 81.386719 19.164062 C 81.304688 19.121094 81.21875 19.046875 81.132812 18.9375 Z M 81.132812 18.9375 "/>
<path style=" stroke:none;fill-rule:nonzero;fill:rgb(99.215686%,83.921569%,83.921569%);fill-opacity:1;" d="M 83.164062 14.582031 C 83.203125 14.488281 83.269531 14.398438 83.367188 14.304688 C 83.328125 14.394531 83.257812 14.488281 83.164062 14.582031 Z M 83.164062 14.582031 "/>
<path style=" stroke:none;fill-rule:nonzero;fill:rgb(99.215686%,83.921569%,83.921569%);fill-opacity:1;" d="M 80.546875 20.164062 C 80.472656 20.121094 80.386719 20.046875 80.300781 19.9375 C 80.378906 19.980469 80.460938 20.058594 80.546875 20.164062 Z M 80.546875 20.164062 "/>
<path style=" stroke:none;fill-rule:nonzero;fill:rgb(99.215686%,83.921569%,83.921569%);fill-opacity:1;" d="M 83.304688 23.363281 C 83.226562 23.320312 83.140625 23.246094 83.054688 23.136719 C 83.136719 23.179688 83.214844 23.257812 83.304688 23.363281 Z M 83.304688 23.363281 "/>
<path style=" stroke:none;fill-rule:nonzero;fill:rgb(99.215686%,83.921569%,83.921569%);fill-opacity:1;" d="M 82.894531 22.863281 C 82.839844 22.847656 82.785156 22.804688 82.726562 22.722656 C 82.78125 22.738281 82.835938 22.785156 82.894531 22.863281 Z M 82.894531 22.863281 "/>
<path style=" stroke:none;fill-rule:nonzero;fill:rgb(99.215686%,83.921569%,83.921569%);fill-opacity:1;" d="M 83.699219 15.703125 C 83.683594 15.765625 83.640625 15.828125 83.570312 15.890625 C 83.585938 15.828125 83.628906 15.765625 83.699219 15.703125 Z M 83.699219 15.703125 "/>
<path style=" stroke:none;fill-rule:nonzero;fill:rgb(99.215686%,83.921569%,83.921569%);fill-opacity:1;" d="M 81.582031 16.300781 C 81.597656 16.238281 81.632812 16.171875 81.703125 16.109375 C 81.691406 16.171875 81.648438 16.234375 81.582031 16.300781 Z M 81.582031 16.300781 "/>
<path style=" stroke:none;fill-rule:nonzero;fill:rgb(99.215686%,83.921569%,83.921569%);fill-opacity:1;" d="M 83.394531 23.464844 C 83.375 23.476562 83.351562 23.460938 83.316406 23.417969 C 83.335938 23.40625 83.363281 23.421875 83.394531 23.464844 Z M 83.394531 23.464844 "/>
<path style=" stroke:none;fill-rule:nonzero;fill:rgb(99.215686%,83.921569%,83.921569%);fill-opacity:1;" d="M 83.496094 14.195312 C 83.492188 14.171875 83.507812 14.144531 83.546875 14.113281 C 83.550781 14.136719 83.535156 14.164062 83.496094 14.195312 Z M 83.496094 14.195312 "/>
<path style=" stroke:none;fill-rule:nonzero;fill:rgb(99.215686%,83.921569%,83.921569%);fill-opacity:1;" d="M 81.492188 16.390625 C 81.484375 16.367188 81.5 16.339844 81.539062 16.308594 C 81.542969 16.332031 81.527344 16.359375 81.492188 16.390625 Z M 81.492188 16.390625 "/>
<path style=" stroke:none;fill-rule:nonzero;fill:rgb(99.215686%,83.921569%,83.921569%);fill-opacity:1;" d="M 83.054688 23.074219 C 83.035156 23.082031 83.011719 23.0625 82.980469 23.019531 C 83 23.011719 83.023438 23.027344 83.054688 23.074219 Z M 83.054688 23.074219 "/>
<path style=" stroke:none;fill-rule:nonzero;fill:rgb(99.215686%,83.921569%,83.921569%);fill-opacity:1;" d="M 82.238281 15.574219 C 82.222656 15.546875 82.238281 15.523438 82.277344 15.5 C 82.296875 15.53125 82.285156 15.558594 82.238281 15.574219 Z M 82.238281 15.574219 "/>
<path style=" stroke:none;fill-rule:nonzero;fill:rgb(100%,99.607843%,99.607843%);fill-opacity:1;" d="M 82.359375 14.902344 C 82.386719 14.945312 82.386719 14.988281 82.386719 15.066406 C 82.320312 15.070312 82.25 15.039062 82.179688 15.011719 C 82.230469 14.972656 82.28125 14.9375 82.359375 14.902344 Z M 82.359375 14.902344 "/>
</g>
</svg>
