<?xml version="1.0" encoding="utf-8"?>
<!-- Generator: Adobe Illustrator 24.0.0, SVG Export Plug-In . SVG Version: 6.00 Build 0)  -->
<svg version="1.1" id="Layer_1" xmlns="http://www.w3.org/2000/svg" xmlns:xlink="http://www.w3.org/1999/xlink" x="0px" y="0px"
	 viewBox="0 0 176 45" style="enable-background:new 0 0 176 45;" xml:space="preserve">
<style type="text/css">
	.st0{fill:#EE3132;}
</style>
<title>99x36</title>
<g>
	<path class="st0" d="M102.7,22.8c1-1.7,2.7-2.9,4.6-3.2c2.9-0.8,5.9,0.9,6.7,3.8c0.1,0.5,0.2,1.1,0.2,1.6c0.1,3.8,0,7.7,0,11.6
		h-2.2v-1.3c0-3.6,0-7-0.2-10.5c0-1.7-1.3-3.2-3.1-3.4c-2-0.5-4,0.5-4.8,2.4c-0.4,1.4-0.6,2.9-0.7,4.4c-0.1,2.7,0,5.5,0,8.3H101
		c0-0.4,0-0.8,0-1.2c0-3.4,0-6.8,0-10.2c0.1-1.8-1.1-3.5-2.9-3.8c-2.1-0.6-4.3,0.5-5,2.5c-0.4,1.2-0.6,2.5-0.6,3.8
		c-0.1,2.9,0,5.8,0,8.8h-2.3V20.1h2.2v2.3c1.2-1.8,3.2-2.9,5.4-2.9C99.9,19.4,101.9,20.8,102.7,22.8z"/>
	<path class="st0" d="M4.1,33.7v2.9H1.9v-29h2.2v15.1L4.5,23c0-0.1,0-0.3,0-0.4c2.1-3.8,8.1-3.9,10.9-0.9c3.2,3.8,3.3,9.4,0.2,13.3
		c-2.8,3-9,3.4-11.1-1C4.4,33.9,4.3,33.9,4.1,33.7z M15.5,28.5c-0.1-0.8-0.2-1.6-0.3-2.3c-0.3-2.5-2.4-4.5-4.9-4.7
		c-2.7-0.4-5.3,1.3-5.8,4c-0.6,2-0.5,4.1,0.3,6c0.8,2.5,3.3,4,5.8,3.6c2.3-0.1,4.2-1.8,4.6-4.1C15.3,30.2,15.4,29.3,15.5,28.5z"/>
	<path class="st0" d="M85.7,36.8h-2.2v-1.1c0-3.3,0-6.6,0-9.9c0.2-2-1.1-3.8-3.1-4.1c-2.3-0.4-4.7,0.1-5.6,2.3
		c-0.5,1.2-0.7,2.5-0.8,3.8c-0.1,2.6,0,5.2,0,7.8v1.2h-2.2V7.6h2.1v14.7l0.3,0.2c0.1-0.2,0.2-0.4,0.3-0.6c1.8-2.2,4.8-3,7.4-2.1
		c2,0.4,3.6,2.1,3.7,4.2C85.8,28.2,85.7,32.4,85.7,36.8z"/>
	<path class="st0" d="M35.1,28.5H21.9c-0.3,2.7,1.1,5.3,3.6,6.4c2.9,1.2,5.1,0.2,7.8-3.4l1.8,1c-1.4,3.4-4.9,5.4-8.4,4.8
		c-5.4-0.6-7.6-5.1-7.1-9.7c0.1-2.3,1-4.5,2.7-6c2.2-2.1,5.5-2.7,8.3-1.5c2.7,1,4.5,3.5,4.6,6.4C35,27.1,35,27.7,35.1,28.5z
		 M32.3,26.4c-0.2-3.2-2.4-5-6-4.7C23.9,21.9,22,24,22,26.4H32.3z"/>
	<path class="st0" d="M130.7,20.1v2.6c-2.3-3.4-6.9-4.3-10.3-2c-0.5,0.3-0.9,0.7-1.2,1.1c-3,3.7-3.1,9-0.4,12.8
		c2.8,3.4,9.3,3.9,11.6-0.6c0,0,0.1-0.1,0.3-0.3v2.9h2.1V20.1H130.7z M129.9,32c-0.9,2.2-3.3,3.5-5.7,3.1c-2.2-0.1-4-1.7-4.5-3.9
		c-0.5-1.8-0.5-3.8,0-5.7c0.7-2.8,3.4-4.6,6.3-4c2.6,0.4,4.6,2.7,4.6,5.4c0,0.4,0,0.8,0,1.2s-0.3,2.3-0.3,2.6l0,0
		C130.2,31.1,130.1,31.6,129.9,32z"/>
	<path class="st0" d="M161.3,20.2l-8.8,7.4l9.5,9.1c-1.6,0.4-3.2-0.1-4.4-1.2c-2.1-2.3-4.4-4.4-6.8-6.6l-0.9-0.8v8.6h-2.2v-29h2.2
		v19.8c0.3-0.2,0.5-0.3,0.7-0.5c2.1-1.8,4.3-3.6,6.3-5.6C158,20.2,159.7,19.8,161.3,20.2z"/>
	<path class="st0" d="M38.1,20.1h2.1v2.3l0.6-0.6c2-2.3,5.1-3,7.9-2c1.8,0.6,3.1,2.2,3.2,4.1c0.2,4.2,0,8.4,0,12.7h-2.1v-1.1
		c0-3.3,0-6.6,0-9.9c0.2-2-1.1-3.8-3.1-4.1c-2.3-0.4-4.7,0.1-5.6,2.3c-0.5,1.2-0.7,2.5-0.8,3.8c-0.1,2.6,0,5.2,0,7.8v1.2h-2.2V20.1z
		"/>
	<path class="st0" d="M162.1,33.6l2.2-1.3c0.7,1.3,1.5,2.5,3,2.6c1.1,0.2,2.1,0,3.2-0.3c1.2-0.5,1.7-1.8,1.2-3
		c-0.1-0.3-0.4-0.6-0.6-0.8c-0.8-0.6-1.7-1.2-2.7-1.6c-1-0.5-2-0.9-3-1.4c-1.6-0.7-2.5-2.4-2.3-4.1c0.1-1.7,1.2-3.1,2.8-3.7
		c2.6-1.2,5.6-0.4,7.4,1.8c0.7,1,0.7,1.1-0.4,1.7l-1,0.6c-0.2-0.3-0.3-0.5-0.5-0.8c-1.1-1.5-3.1-2.1-4.7-1.3
		c-1.2,0.5-1.7,1.8-1.3,2.9c0.2,0.5,0.6,0.9,1.1,1.2c1.2,0.6,2.4,1,3.6,1.5c1.5,0.6,3.1,1.2,3.6,2.9c1.1,2.4,0,5.2-2.5,6.3
		c-0.3,0.1-0.5,0.2-0.8,0.3c-2.2,0.8-4.6,0.4-6.4-1C163.3,35.3,162.6,34.5,162.1,33.6z"/>
	<path class="st0" d="M69.1,22.9c-4.9-2.2-8.3-1.8-10.5,0.9c-1.8,2.6-2,6-0.3,8.7c1.2,1.7,3.1,2.7,5.2,2.8c2.1,0,4.1-0.6,5.8-1.8
		c0,0.6,0,1.3,0,1.9c0,0.3-0.2,0.5-0.4,0.7c-2.9,1.4-7.6,1.8-10.6-0.4c-3-2.4-4.2-6.3-3.1-9.9c0.9-3.3,3.7-5.7,7.1-6.2
		c1.9-0.2,3.8-0.1,5.6,0.5c0.8,0.2,1.4,0.6,1.2,1.6C69,22.1,69,22.5,69.1,22.9z"/>
	<path class="st0" d="M146.9,19.8l-0.7,2c-3.9-0.5-6.5,2-6.6,6.4c0,2.4,0,4.9,0,7.3v1.2h-2.2V20.2h2.1v3l0.2,0.1
		C141.4,20.7,143.4,18.7,146.9,19.8z"/>
</g>
</svg>
