<svg xmlns="http://www.w3.org/2000/svg" xmlns:xlink="http://www.w3.org/1999/xlink" version="1.1" width="176" height="50" viewBox="0 0 176 50" xml:space="preserve">
<desc>Created with Fabric.js 3.5.0</desc>
<defs>
</defs>
<rect x="0" y="0" width="100%" height="100%" fill="#ffffff"/>
<g transform="matrix(0.1963 0 0 0.1963 87.3142 34.8363)" id="293865">
<g style="" vector-effect="non-scaling-stroke">
		<g transform="matrix(1 0 0 1 -394.8 -27.24)" id="952753">
<rect style="stroke: none; stroke-width: 1; stroke-dasharray: none; stroke-linecap: butt; stroke-dashoffset: 0; stroke-linejoin: miter; stroke-miterlimit: 4; is-custom-font: none; font-file-url: none; fill: rgb(255,255,255); fill-rule: nonzero; opacity: 1;" x="-50" y="-50" rx="0" ry="0" width="100" height="100"/>
</g>
		<g transform="matrix(5.1653 0 0 5.1653 73.3944 28.1376)" id="615069">
<path style="stroke: none; stroke-width: 1; stroke-dasharray: none; stroke-linecap: butt; stroke-dashoffset: 0; stroke-linejoin: miter; stroke-miterlimit: 4; is-custom-font: none; font-file-url: none; fill: rgb(238,49,50); fill-rule: nonzero; opacity: 1;" vector-effect="non-scaling-stroke" transform=" translate(-100.3222, -20.4012)" d="M 100.8 15.2 c 1 -1.7 2.7 -2.9 4.6 -3.2 c 2.9 -0.8 5.9 0.9 6.7 3.8 c 0.1 0.5 0.2 1.1 0.2 1.6 c 0.1 3.8 0 7.7 0 11.6 h -2.2 v -1.3 c 0 -3.6 0 -7 -0.2 -10.5 c 0 -1.7 -1.3 -3.2 -3.1 -3.4 c -2 -0.5 -4 0.5 -4.8 2.4 c -0.4 1.4 -0.6 2.9 -0.7 4.4 c -0.1 2.7 0 5.5 0 8.3 h -2.2 c 0 -0.4 0 -0.8 0 -1.2 c 0 -3.4 0 -6.8 0 -10.2 c 0.1 -1.8 -1.1 -3.5 -2.9 -3.8 c -2.1 -0.6 -4.3 0.5 -5 2.5 c -0.4 1.2 -0.6 2.5 -0.6 3.8 c -0.1 2.9 0 5.8 0 8.8 h -2.3 V 12.5 h 2.2 v 2.3 c 1.2 -1.8 3.2 -2.9 5.4 -2.9 C 98 11.8 100 13.2 100.8 15.2 z" stroke-linecap="round"/>
</g>
		<g transform="matrix(5.1653 0 0 5.1653 -403.571 -0.5879)" id="835446">
<path style="stroke: none; stroke-width: 1; stroke-dasharray: none; stroke-linecap: butt; stroke-dashoffset: 0; stroke-linejoin: miter; stroke-miterlimit: 4; is-custom-font: none; font-file-url: none; fill: rgb(238,49,50); fill-rule: nonzero; opacity: 1;" vector-effect="non-scaling-stroke" transform=" translate(-7.9819, -14.8398)" d="M 2.2 26.1 V 29 H 0 V 0 h 2.2 v 15.1 l 0.4 0.3 c 0 -0.1 0 -0.3 0 -0.4 c 2.1 -3.8 8.1 -3.9 10.9 -0.9 c 3.2 3.8 3.3 9.4 0.2 13.3 c -2.8 3 -9 3.4 -11.1 -1 C 2.5 26.3 2.4 26.3 2.2 26.1 z M 13.6 20.9 c -0.1 -0.8 -0.2 -1.6 -0.3 -2.3 c -0.3 -2.5 -2.4 -4.5 -4.9 -4.7 c -2.7 -0.4 -5.3 1.3 -5.8 4 c -0.6 2 -0.5 4.1 0.3 6 c 0.8 2.5 3.3 4 5.8 3.6 c 2.3 -0.1 4.2 -1.8 4.6 -4.1 C 13.4 22.6 13.5 21.7 13.6 20.9 z" stroke-linecap="round"/>
</g>
		<g transform="matrix(5.1653 0 0 5.1653 -47.7821 -1.8265)" id="440467">
<path style="stroke: none; stroke-width: 1; stroke-dasharray: none; stroke-linecap: butt; stroke-dashoffset: 0; stroke-linejoin: miter; stroke-miterlimit: 4; is-custom-font: none; font-file-url: none; fill: rgb(238,49,50); fill-rule: nonzero; opacity: 1;" vector-effect="non-scaling-stroke" transform=" translate(-76.8625, -14.6)" d="M 83.8 29.2 h -2.2 v -1.1 c 0 -3.3 0 -6.6 0 -9.9 c 0.2 -2 -1.1 -3.8 -3.1 -4.1 c -2.3 -0.4 -4.7 0.1 -5.6 2.3 c -0.5 1.2 -0.7 2.5 -0.8 3.8 c -0.1 2.6 0 5.2 0 7.8 v 1.2 h -2.2 V 0 H 72 v 14.7 l 0.3 0.2 c 0.1 -0.2 0.2 -0.4 0.3 -0.6 c 1.8 -2.2 4.8 -3 7.4 -2.1 c 2 0.4 3.6 2.1 3.7 4.2 C 83.9 20.6 83.8 24.8 83.8 29.2 z" stroke-linecap="round"/>
</g>
		<g transform="matrix(5.1653 0 0 5.1653 -313.2637 30.4415)" id="707619">
<path style="stroke: none; stroke-width: 1; stroke-dasharray: none; stroke-linecap: butt; stroke-dashoffset: 0; stroke-linejoin: miter; stroke-miterlimit: 4; is-custom-font: none; font-file-url: none; fill: rgb(238,49,50); fill-rule: nonzero; opacity: 1;" vector-effect="non-scaling-stroke" transform=" translate(-25.4655, -20.8471)" d="M 33.2 20.9 H 20 c -0.3 2.7 1.1 5.3 3.6 6.4 c 2.9 1.2 5.1 0.2 7.8 -3.4 l 1.8 1 c -1.4 3.4 -4.9 5.4 -8.4 4.8 c -5.4 -0.6 -7.6 -5.1 -7.1 -9.7 c 0.1 -2.3 1 -4.5 2.7 -6 c 2.2 -2.1 5.5 -2.7 8.3 -1.5 c 2.7 1 4.5 3.5 4.6 6.4 C 33.1 19.5 33.1 20.1 33.2 20.9 z M 30.4 18.8 c -0.2 -3.2 -2.4 -5 -6 -4.7 c -2.4 0.2 -4.3 2.3 -4.3 4.7 H 30.4 z" stroke-linecap="round"/>
</g>
		<g transform="matrix(5.1653 0 0 5.1653 190.1662 29.9095)" id="220218">
<path style="stroke: none; stroke-width: 1; stroke-dasharray: none; stroke-linecap: butt; stroke-dashoffset: 0; stroke-linejoin: miter; stroke-miterlimit: 4; is-custom-font: none; font-file-url: none; fill: rgb(238,49,50); fill-rule: nonzero; opacity: 1;" vector-effect="non-scaling-stroke" transform=" translate(-122.9292, -20.7441)" d="M 128.8 12.5 v 2.6 c -2.3 -3.4 -6.9 -4.3 -10.3 -2 c -0.5 0.3 -0.9 0.7 -1.2 1.1 c -3 3.7 -3.1 9 -0.4 12.8 c 2.8 3.4 9.3 3.9 11.6 -0.6 c 0 0 0.1 -0.1 0.3 -0.3 V 29 h 2.1 V 12.5 H 128.8 z M 128 24.4 c -0.9 2.2 -3.3 3.5 -5.7 3.1 c -2.2 -0.1 -4 -1.7 -4.5 -3.9 c -0.5 -1.8 -0.5 -3.8 0 -5.7 c 0.7 -2.8 3.4 -4.6 6.3 -4 c 2.6 0.4 4.6 2.7 4.6 5.4 c 0 0.4 0 0.8 0 1.2 s -0.3 2.3 -0.3 2.6 l 0 0 C 128.3 23.5 128.2 24 128 24.4 z" stroke-linecap="round"/>
</g>
		<g transform="matrix(5.1653 0 0 5.1653 345.2326 -1.4732)" id="914911">
<path style="stroke: none; stroke-width: 1; stroke-dasharray: none; stroke-linecap: butt; stroke-dashoffset: 0; stroke-linejoin: miter; stroke-miterlimit: 4; is-custom-font: none; font-file-url: none; fill: rgb(238,49,50); fill-rule: nonzero; opacity: 1;" vector-effect="non-scaling-stroke" transform=" translate(-152.95, -14.6684)" d="M 159.4 12.6 l -8.8 7.4 l 9.5 9.1 c -1.6 0.4 -3.2 -0.1 -4.4 -1.2 c -2.1 -2.3 -4.4 -4.4 -6.8 -6.6 l -0.9 -0.8 v 8.6 h -2.2 v -29 h 2.2 v 19.8 c 0.3 -0.2 0.5 -0.3 0.7 -0.5 c 2.1 -1.8 4.3 -3.6 6.3 -5.6 C 156.1 12.6 157.8 12.2 159.4 12.6 z" stroke-linecap="round"/>
</g>
		<g transform="matrix(5.1653 0 0 5.1653 -221.946 28.0192)" id="226547">
<path style="stroke: none; stroke-width: 1; stroke-dasharray: none; stroke-linecap: butt; stroke-dashoffset: 0; stroke-linejoin: miter; stroke-miterlimit: 4; is-custom-font: none; font-file-url: none; fill: rgb(238,49,50); fill-rule: nonzero; opacity: 1;" vector-effect="non-scaling-stroke" transform=" translate(-43.1444, -20.3781)" d="M 36.2 12.5 h 2.1 v 2.3 l 0.6 -0.6 c 2 -2.3 5.1 -3 7.9 -2 c 1.8 0.6 3.1 2.2 3.2 4.1 c 0.2 4.2 0 8.4 0 12.7 h -2.1 v -1.1 c 0 -3.3 0 -6.6 0 -9.9 c 0.2 -2 -1.1 -3.8 -3.1 -4.1 c -2.3 -0.4 -4.7 0.1 -5.6 2.3 c -0.5 1.2 -0.7 2.5 -0.8 3.8 c -0.1 2.6 0 5.2 0 7.8 V 29 h -2.2 C 36.2 29 36.2 12.5 36.2 12.5 z" stroke-linecap="round"/>
</g>
		<g transform="matrix(5.1653 0 0 5.1653 413.7399 30.5865)" id="846706">
<path style="stroke: none; stroke-width: 1; stroke-dasharray: none; stroke-linecap: butt; stroke-dashoffset: 0; stroke-linejoin: miter; stroke-miterlimit: 4; is-custom-font: none; font-file-url: none; fill: rgb(238,49,50); fill-rule: nonzero; opacity: 1;" vector-effect="non-scaling-stroke" transform=" translate(-166.213, -20.8752)" d="M 160.2 26 l 2.2 -1.3 c 0.7 1.3 1.5 2.5 3 2.6 c 1.1 0.2 2.1 0 3.2 -0.3 c 1.2 -0.5 1.7 -1.8 1.2 -3 c -0.1 -0.3 -0.4 -0.6 -0.6 -0.8 c -0.8 -0.6 -1.7 -1.2 -2.7 -1.6 c -1 -0.5 -2 -0.9 -3 -1.4 c -1.6 -0.7 -2.5 -2.4 -2.3 -4.1 c 0.1 -1.7 1.2 -3.1 2.8 -3.7 c 2.6 -1.2 5.6 -0.4 7.4 1.8 c 0.7 1 0.7 1.1 -0.4 1.7 l -1 0.6 c -0.2 -0.3 -0.3 -0.5 -0.5 -0.8 c -1.1 -1.5 -3.1 -2.1 -4.7 -1.3 c -1.2 0.5 -1.7 1.8 -1.3 2.9 c 0.2 0.5 0.6 0.9 1.1 1.2 c 1.2 0.6 2.4 1 3.6 1.5 c 1.5 0.6 3.1 1.2 3.6 2.9 c 1.1 2.4 0 5.2 -2.5 6.3 c -0.3 0.1 -0.5 0.2 -0.8 0.3 c -2.2 0.8 -4.6 0.4 -6.4 -1 C 161.4 27.7 160.7 26.9 160.2 26 z" stroke-linecap="round"/>
</g>
		<g transform="matrix(5.1653 0 0 5.1653 -134.112 30.0856)" id="521337">
<path style="stroke: none; stroke-width: 1; stroke-dasharray: none; stroke-linecap: butt; stroke-dashoffset: 0; stroke-linejoin: miter; stroke-miterlimit: 4; is-custom-font: none; font-file-url: none; fill: rgb(238,49,50); fill-rule: nonzero; opacity: 1;" vector-effect="non-scaling-stroke" transform=" translate(-60.1492, -20.7782)" d="M 67.2 15.3 c -4.9 -2.2 -8.3 -1.8 -10.5 0.9 c -1.8 2.6 -2 6 -0.3 8.7 c 1.2 1.7 3.1 2.7 5.2 2.8 c 2.1 0 4.1 -0.6 5.8 -1.8 c 0 0.6 0 1.3 0 1.9 c 0 0.3 -0.2 0.5 -0.4 0.7 c -2.9 1.4 -7.6 1.8 -10.6 -0.4 c -3 -2.4 -4.2 -6.3 -3.1 -9.9 c 0.9 -3.3 3.7 -5.7 7.1 -6.2 c 1.9 -0.2 3.8 -0.1 5.6 0.5 c 0.8 0.2 1.4 0.6 1.2 1.6 C 67.1 14.5 67.1 14.9 67.2 15.3 z" stroke-linecap="round"/>
</g>
		<g transform="matrix(5.1653 0 0 5.1653 279.6333 28.6263)" id="6673">
<path style="stroke: none; stroke-width: 1; stroke-dasharray: none; stroke-linecap: butt; stroke-dashoffset: 0; stroke-linejoin: miter; stroke-miterlimit: 4; is-custom-font: none; font-file-url: none; fill: rgb(238,49,50); fill-rule: nonzero; opacity: 1;" vector-effect="non-scaling-stroke" transform=" translate(-140.25, -20.4958)" d="M 145 12.2 l -0.7 2 c -3.9 -0.5 -6.5 2 -6.6 6.4 c 0 2.4 0 4.9 0 7.3 v 1.2 h -2.2 V 12.6 h 2.1 v 3 l 0.2 0.1 C 139.5 13.1 141.5 11.1 145 12.2 z" stroke-linecap="round"/>
</g>
</g>
</g>
</svg>