<?xml version="1.0" encoding="utf-8"?>
<!-- Generator: Adobe Illustrator 24.0.0, SVG Export Plug-In . SVG Version: 6.00 Build 0)  -->
<svg version="1.1" id="Layer_1" xmlns="http://www.w3.org/2000/svg" xmlns:xlink="http://www.w3.org/1999/xlink" x="0px" y="0px"
	 viewBox="0 0 99 36" style="enable-background:new 0 0 99 36;" xml:space="preserve">
<style type="text/css">
	.st0{fill:#EE3132;}
</style>
<title>99x36</title>
<g>
	<path class="st0" d="M57.8,18.2c0.6-1,1.5-1.6,2.6-1.8c1.6-0.4,3.3,0.5,3.7,2.1c0.1,0.3,0.1,0.6,0.1,0.9c0.1,2.1,0,4.3,0,6.5H63
		v-0.7c0-2,0-3.9-0.1-5.9c0-1-0.7-1.8-1.7-1.9c-1.1-0.3-2.3,0.3-2.7,1.4c-0.2,0.8-0.4,1.6-0.4,2.5c-0.1,1.5,0,3.1,0,4.6h-1.3
		c0-0.2,0-0.4,0-0.6c0-1.9,0-3.8,0-5.7c0.1-1-0.6-1.9-1.6-2.1c-1.2-0.3-2.4,0.3-2.8,1.4C52.1,19.6,52,20.3,52,21c0,1.6,0,3.3,0,4.9
		h-1.3v-9.2h1.2V18c0.7-1,1.8-1.6,3-1.6C56.1,16.3,57.3,17,57.8,18.2z"/>
	<path class="st0" d="M2.5,24.3v1.6H1.3V9.7h1.2v8.4l0.2,0.1c0-0.1,0-0.2,0-0.3c1.2-2.1,4.5-2.2,6.1-0.5c1.8,2.2,1.8,5.3,0.1,7.5
		c-1.5,1.7-5.1,1.9-6.2-0.6C2.7,24.4,2.7,24.4,2.5,24.3z M8.9,21.4c-0.1-0.5-0.1-0.9-0.2-1.3c-0.2-1.4-1.3-2.5-2.8-2.6
		c-1.5-0.2-2.9,0.7-3.3,2.2c-0.3,1.1-0.3,2.3,0.2,3.4c0.4,1.4,1.8,2.2,3.3,2c1.3-0.1,2.4-1,2.6-2.3C8.8,22.3,8.8,21.8,8.9,21.4z"/>
	<path class="st0" d="M48.2,26H47v-0.6c0-1.8,0-3.7,0-5.5c0.1-1.1-0.6-2.1-1.7-2.3c-1.3-0.2-2.6,0-3.1,1.3c-0.3,0.7-0.4,1.4-0.4,2.1
		c-0.1,1.5,0,2.9,0,4.4V26h-1.3V9.7h1.2v8.2l0.2,0.1c0-0.1,0.1-0.2,0.2-0.4c1-1.2,2.7-1.7,4.2-1.2c1.1,0.2,2,1.2,2,2.4
		C48.3,21.2,48.2,23.5,48.2,26z"/>
	<path class="st0" d="M19.9,21.4h-7.4c-0.2,1.5,0.6,2.9,2,3.6c1.6,0.6,2.9,0.1,4.4-1.9l1,0.6c-0.8,1.9-2.7,3-4.7,2.7
		c-3-0.3-4.2-2.9-4-5.4c0-1.3,0.6-2.5,1.5-3.4c1.2-1.2,3.1-1.5,4.6-0.8c1.5,0.6,2.5,2,2.6,3.6C19.8,20.6,19.8,20.9,19.9,21.4z
		 M18.3,20.2c-0.1-1.8-1.4-2.8-3.4-2.6c-1.4,0.1-2.4,1.3-2.4,2.6H18.3z"/>
	<path class="st0" d="M73.4,16.7v1.4c-1.3-1.9-3.9-2.4-5.8-1.1c-0.3,0.2-0.5,0.4-0.7,0.6c-1.7,2.1-1.7,5-0.2,7.2
		c1.5,1.9,5.2,2.2,6.5-0.4c0,0,0.1-0.1,0.2-0.1v1.6h1.2v-9.3H73.4z M73,23.3c-0.5,1.3-1.8,2-3.2,1.7c-1.2-0.1-2.3-1-2.5-2.2
		c-0.3-1-0.3-2.1,0-3.2c0.4-1.6,1.9-2.6,3.5-2.3c1.5,0.2,2.6,1.5,2.6,3c0,0.2,0,0.5,0,0.7s-0.2,1.3-0.2,1.4l0,0
		C73.1,22.8,73.1,23.1,73,23.3z"/>
	<path class="st0" d="M90.5,16.7l-4.9,4.1l5.3,5.1c-0.9,0.2-1.8,0-2.5-0.7c-1.2-1.3-2.5-2.5-3.8-3.7l-0.5-0.4v4.8h-1.3V9.7h1.2v11.1
		c0.1-0.1,0.3-0.2,0.4-0.3c1.2-1,2.4-2,3.5-3.1C88.7,16.7,89.6,16.5,90.5,16.7z"/>
	<path class="st0" d="M21.6,16.7h1.2V18l0.3-0.4c1.1-1.3,2.9-1.7,4.4-1.1c1,0.3,1.7,1.2,1.8,2.3c0.1,2.4,0,4.7,0,7.1h-1.2v-0.6
		c0-1.8,0-3.7,0-5.5c0.1-1.1-0.6-2.1-1.7-2.3c-1.3-0.2-2.6,0-3.1,1.3c-0.3,0.7-0.4,1.4-0.4,2.1c-0.1,1.5,0,2.9,0,4.4v0.6h-1.3V16.7z
		"/>
	<path class="st0" d="M91,24.2l1.3-0.7c0.4,0.7,0.8,1.4,1.7,1.5c0.6,0.1,1.2,0,1.8-0.2c0.6-0.3,0.9-1,0.7-1.7
		c-0.1-0.2-0.2-0.3-0.4-0.5c-0.5-0.4-1-0.7-1.5-0.9c-0.6-0.3-1.1-0.5-1.7-0.8c-0.9-0.4-1.4-1.3-1.3-2.3c0.1-0.9,0.7-1.8,1.6-2.1
		c1.4-0.7,3.1-0.2,4.1,1c0.4,0.6,0.4,0.6-0.2,0.9l-0.6,0.3c-0.1-0.2-0.2-0.3-0.3-0.4c-0.6-0.9-1.7-1.2-2.7-0.7c-0.6,0.3-1,1-0.7,1.6
		c0.1,0.3,0.3,0.5,0.6,0.7c0.7,0.3,1.3,0.6,2,0.8c0.8,0.4,1.7,0.7,2,1.6c0.6,1.4,0,2.9-1.4,3.5c-0.1,0.1-0.3,0.1-0.4,0.1
		c-1.2,0.4-2.6,0.2-3.6-0.5C91.7,25.1,91.3,24.7,91,24.2z"/>
	<path class="st0" d="M38.9,18.2c-2.7-1.2-4.6-1-5.9,0.5c-1,1.4-1.1,3.3-0.2,4.9c0.7,1,1.8,1.5,2.9,1.5c1.2,0,2.3-0.3,3.3-1
		c0,0.3,0,0.7,0,1c0,0.2-0.1,0.3-0.3,0.4c-1.6,0.8-4.2,1-5.9-0.2c-1.7-1.3-2.4-3.5-1.7-5.6c0.5-1.8,2.1-3.2,4-3.5
		c1-0.1,2.1,0,3.1,0.3c0.5,0.1,0.8,0.3,0.7,0.9C38.9,17.8,38.9,18,38.9,18.2z"/>
	<path class="st0" d="M82.5,16.5l-0.4,1.1c-2.2-0.3-3.7,1.1-3.7,3.6c0,1.4,0,2.7,0,4.1v0.6h-1.2v-9.2h1.2v1.7l0.1,0.1
		C79.4,17,80.5,15.9,82.5,16.5z"/>
</g>
</svg>
