<?xml version="1.0" encoding="UTF-8"?>
<svg xmlns="http://www.w3.org/2000/svg" xmlns:xlink="http://www.w3.org/1999/xlink" width="176px" height="45px" viewBox="0 0 176 45" version="1.1">
<g id="surface1">
<path style=" stroke:none;fill-rule:nonzero;fill:rgb(100%,99.607843%,99.607843%);fill-opacity:1;" d="M 126.699219 45.101562 C 84.472656 45.101562 42.292969 45.101562 0.105469 45.101562 C 0.105469 30.105469 0.105469 15.113281 0.105469 0.109375 C 58.765625 0.109375 117.433594 0.109375 176.097656 0.109375 C 176.097656 15.105469 176.097656 30.105469 176.097656 45.101562 C 159.644531 45.101562 143.199219 45.101562 126.699219 45.101562 M 74.507812 30.042969 C 74.734375 30.085938 74.964844 30.132812 75.28125 30.199219 C 75.652344 30.1875 76.027344 30.179688 76.476562 30.167969 C 76.507812 29.996094 76.566406 29.824219 76.570312 29.648438 C 76.617188 26.953125 76.636719 24.253906 76.707031 21.558594 C 76.734375 20.449219 77.148438 19.464844 78.019531 18.753906 C 79.058594 17.902344 80.308594 17.714844 81.597656 17.871094 C 82.574219 17.992188 83.535156 18.324219 84 19.257812 C 84.328125 19.925781 84.550781 20.710938 84.566406 21.453125 C 84.632812 24.199219 84.605469 26.949219 84.59375 29.699219 C 84.589844 30.082031 84.683594 30.257812 85.09375 30.21875 C 85.441406 30.1875 85.796875 30.183594 86.140625 30.222656 C 86.578125 30.269531 86.671875 30.089844 86.667969 29.683594 C 86.652344 27.132812 86.695312 24.582031 86.648438 22.035156 C 86.628906 21.046875 86.484375 20.050781 86.285156 19.082031 C 86.066406 18.011719 85.316406 17.304688 84.386719 16.785156 C 83.144531 16.097656 81.792969 16.113281 80.441406 16.230469 C 79.554688 16.304688 78.71875 16.589844 78.011719 17.15625 C 77.519531 17.550781 77.039062 17.964844 76.492188 18.421875 C 76.492188 14.429688 76.492188 10.476562 76.492188 6.429688 C 75.785156 6.492188 75.160156 6.546875 74.507812 6.691406 C 74.503906 14.289062 74.503906 21.886719 74.503906 29.484375 C 74.503906 29.601562 74.527344 29.714844 74.515625 29.875 C 74.523438 29.910156 74.53125 29.941406 74.539062 29.980469 C 74.539062 29.980469 74.535156 29.988281 74.507812 30.042969 M 91.957031 30.210938 C 92.035156 30.0625 92.175781 29.910156 92.175781 29.761719 C 92.1875 28.160156 92.164062 26.5625 92.183594 24.960938 C 92.195312 23.832031 92.167969 22.6875 92.332031 21.574219 C 92.449219 20.773438 92.75 19.960938 93.148438 19.253906 C 93.867188 17.96875 95.851562 17.667969 97.015625 17.894531 C 98.140625 18.113281 98.960938 18.707031 99.289062 19.804688 C 99.472656 20.414062 99.503906 21.082031 99.511719 21.726562 C 99.535156 24.375 99.53125 27.023438 99.515625 29.675781 C 99.511719 30.121094 99.65625 30.273438 100.089844 30.234375 C 100.417969 30.203125 100.753906 30.207031 101.085938 30.234375 C 101.527344 30.269531 101.691406 30.140625 101.6875 29.65625 C 101.671875 27.089844 101.664062 24.523438 101.710938 21.957031 C 101.742188 20.027344 102.542969 18.3125 104.601562 17.921875 C 105.757812 17.703125 106.851562 17.8125 107.796875 18.589844 C 108.519531 19.183594 108.871094 20 108.886719 20.894531 C 108.941406 23.859375 108.929688 26.824219 108.945312 29.792969 C 108.945312 29.917969 108.964844 30.042969 108.976562 30.226562 C 109.507812 30.226562 110.003906 30.203125 110.496094 30.234375 C 110.910156 30.261719 111.039062 30.121094 111.035156 29.699219 C 111.011719 26.902344 111.027344 24.101562 111.003906 21.304688 C 110.996094 20.695312 110.90625 20.085938 110.800781 19.484375 C 110.644531 18.585938 110.171875 17.835938 109.484375 17.261719 C 108.605469 16.53125 107.566406 16.191406 106.40625 16.171875 C 105.042969 16.144531 103.742188 16.328125 102.644531 17.191406 C 102.15625 17.574219 101.746094 18.058594 101.328125 18.519531 C 101.148438 18.71875 101.046875 18.808594 100.902344 18.507812 C 100.289062 17.203125 99.226562 16.453125 97.835938 16.253906 C 95.816406 15.960938 93.984375 16.308594 92.691406 18.097656 C 92.59375 18.234375 92.445312 18.335938 92.320312 18.453125 C 92.273438 18.433594 92.226562 18.417969 92.179688 18.402344 C 92.179688 17.964844 92.199219 17.523438 92.167969 17.085938 C 92.160156 16.949219 92.023438 16.707031 91.933594 16.703125 C 91.359375 16.667969 90.785156 16.6875 90.167969 16.6875 C 90.167969 16.945312 90.167969 17.128906 90.167969 17.308594 C 90.167969 21.355469 90.167969 25.40625 90.171875 29.457031 C 90.171875 29.621094 90.136719 29.800781 90.183594 29.953125 C 90.214844 30.0625 90.355469 30.214844 90.449219 30.21875 C 90.863281 30.230469 91.277344 30.195312 91.761719 30.199219 C 91.8125 30.191406 91.859375 30.183594 91.957031 30.210938 M 26.085938 29.234375 C 26.144531 29.175781 26.199219 29.109375 26.261719 29.058594 C 27.402344 28.164062 28.0625 26.945312 28.289062 25.566406 C 28.617188 23.550781 28.667969 21.535156 27.671875 19.625 C 27.027344 18.386719 26.085938 17.476562 24.890625 16.816406 C 23.710938 16.167969 22.414062 16.105469 21.109375 16.199219 C 19.445312 16.316406 18.082031 17.003906 17.085938 18.367188 C 17.007812 18.472656 16.914062 18.566406 16.722656 18.785156 C 16.699219 18.464844 16.683594 18.304688 16.683594 18.148438 C 16.679688 14.550781 16.679688 10.953125 16.679688 7.355469 C 16.679688 7.15625 16.707031 6.949219 16.664062 6.757812 C 16.640625 6.652344 16.496094 6.5 16.402344 6.496094 C 15.839844 6.472656 15.277344 6.484375 14.683594 6.484375 C 14.683594 14.410156 14.683594 22.28125 14.683594 30.21875 C 15.277344 30.21875 15.855469 30.234375 16.429688 30.203125 C 16.519531 30.199219 16.65625 29.988281 16.667969 29.863281 C 16.699219 29.46875 16.671875 29.066406 16.679688 28.667969 C 16.683594 28.457031 16.722656 28.246094 16.742188 28.035156 C 16.980469 28.179688 17.097656 28.332031 17.199219 28.492188 C 17.789062 29.40625 18.617188 30.078125 19.628906 30.378906 C 21.921875 31.066406 24.09375 30.773438 26.085938 29.234375 M 115.449219 17.796875 C 114.417969 18.722656 113.664062 19.871094 113.441406 21.210938 C 113.109375 23.230469 112.992188 25.277344 113.996094 27.210938 C 114.597656 28.367188 115.460938 29.257812 116.566406 29.898438 C 117.796875 30.605469 119.164062 30.816406 120.5625 30.695312 C 122.222656 30.550781 123.632812 29.902344 124.566406 28.4375 C 124.675781 28.265625 124.816406 28.117188 124.941406 27.957031 C 124.984375 27.972656 125.03125 27.988281 125.074219 28 C 125.074219 28.609375 125.0625 29.21875 125.082031 29.828125 C 125.085938 29.960938 125.203125 30.195312 125.273438 30.199219 C 125.882812 30.230469 126.488281 30.21875 127.105469 30.21875 C 127.105469 25.667969 127.105469 21.210938 127.105469 16.714844 C 126.421875 16.714844 125.769531 16.714844 125.042969 16.714844 C 125.042969 17.40625 125.042969 18.054688 125.042969 18.703125 C 124.855469 18.628906 124.785156 18.523438 124.699219 18.433594 C 124.300781 18.015625 123.949219 17.539062 123.492188 17.207031 C 121.960938 16.101562 120.214844 16.015625 118.429688 16.285156 C 117.308594 16.457031 116.332031 16.964844 115.449219 17.796875 M 38.664062 30.496094 C 40.839844 30.078125 42.242188 28.714844 43.269531 26.773438 C 42.714844 26.488281 42.230469 26.214844 41.71875 25.996094 C 41.617188 25.953125 41.378906 26.089844 41.277344 26.210938 C 40.796875 26.773438 40.421875 27.457031 39.867188 27.921875 C 38.632812 28.957031 37.148438 29.207031 35.585938 28.898438 C 34.339844 28.65625 33.390625 27.953125 32.71875 26.867188 C 32.207031 26.039062 31.996094 25.132812 31.929688 24.171875 C 31.882812 23.519531 31.859375 23.515625 32.53125 23.515625 C 35.847656 23.515625 39.164062 23.515625 42.480469 23.515625 C 42.613281 23.515625 42.761719 23.554688 42.875 23.503906 C 42.996094 23.453125 43.179688 23.308594 43.171875 23.226562 C 43.058594 22.238281 43.023438 21.222656 42.75 20.277344 C 42.441406 19.226562 41.796875 18.339844 40.9375 17.597656 C 40.183594 16.941406 39.324219 16.5 38.398438 16.332031 C 36.804688 16.050781 35.183594 16.027344 33.644531 16.726562 C 32.25 17.359375 31.210938 18.375 30.484375 19.710938 C 29.765625 21.039062 29.65625 22.488281 29.679688 23.972656 C 29.710938 25.742188 30.273438 27.289062 31.464844 28.601562 C 32.253906 29.464844 33.21875 30.082031 34.332031 30.394531 C 35.726562 30.785156 37.152344 30.855469 38.664062 30.496094 M 146.96875 25.679688 C 145.90625 24.722656 144.847656 23.761719 143.71875 22.742188 C 146.261719 20.722656 148.738281 18.757812 151.210938 16.789062 C 150.425781 16.679688 149.675781 16.65625 148.933594 16.691406 C 148.671875 16.707031 148.375 16.820312 148.171875 16.984375 C 147.132812 17.828125 146.121094 18.707031 145.097656 19.574219 C 144.066406 20.453125 143.035156 21.335938 142 22.210938 C 141.882812 22.308594 141.734375 22.375 141.480469 22.523438 C 141.480469 17.113281 141.480469 11.816406 141.480469 6.507812 C 140.769531 6.507812 140.144531 6.507812 139.496094 6.507812 C 139.488281 6.636719 139.472656 6.730469 139.472656 6.828125 C 139.46875 14.492188 139.46875 22.152344 139.460938 29.816406 C 139.460938 30.117188 139.542969 30.246094 139.855469 30.230469 C 140.253906 30.214844 140.65625 30.207031 141.050781 30.230469 C 141.441406 30.253906 141.53125 30.078125 141.523438 29.722656 C 141.5 27.894531 141.488281 26.0625 141.484375 24.230469 C 141.480469 23.980469 141.539062 23.726562 141.578125 23.421875 C 141.738281 23.5 141.839844 23.523438 141.90625 23.585938 C 142.699219 24.332031 143.476562 25.097656 144.28125 25.835938 C 145.742188 27.179688 147.214844 28.507812 148.691406 29.835938 C 148.976562 30.09375 149.296875 30.273438 149.722656 30.234375 C 150.152344 30.195312 150.585938 30.230469 151.019531 30.226562 C 151.269531 30.222656 151.519531 30.199219 151.898438 30.179688 C 151.179688 29.511719 150.578125 28.945312 149.96875 28.390625 C 148.992188 27.5 148.003906 26.613281 146.96875 25.679688 M 48.050781 20.441406 C 48.246094 19.730469 48.65625 19.148438 49.230469 18.707031 C 50.246094 17.925781 51.4375 17.714844 52.671875 17.867188 C 53.625 17.984375 54.507812 18.296875 55.085938 19.179688 C 55.550781 19.882812 55.664062 20.675781 55.675781 21.460938 C 55.71875 24.210938 55.703125 26.960938 55.691406 29.710938 C 55.691406 30.085938 55.773438 30.265625 56.1875 30.234375 C 56.585938 30.203125 56.988281 30.21875 57.386719 30.230469 C 57.65625 30.242188 57.785156 30.160156 57.78125 29.867188 C 57.765625 26.699219 57.785156 23.535156 57.738281 20.367188 C 57.710938 18.292969 56.074219 16.566406 54.003906 16.269531 C 51.933594 15.972656 49.984375 16.214844 48.371094 17.722656 C 48.136719 17.945312 47.929688 18.203125 47.710938 18.445312 C 47.589844 17.941406 47.605469 17.496094 47.578125 17.050781 C 47.570312 16.925781 47.441406 16.714844 47.355469 16.707031 C 46.8125 16.675781 46.269531 16.691406 45.746094 16.691406 C 45.710938 16.769531 45.683594 16.800781 45.683594 16.828125 C 45.675781 21.195312 45.667969 25.5625 45.679688 29.925781 C 45.679688 30.027344 45.886719 30.203125 46.007812 30.214844 C 46.40625 30.253906 46.808594 30.214844 47.207031 30.234375 C 47.578125 30.253906 47.691406 30.109375 47.6875 29.738281 C 47.667969 27.9375 47.636719 26.136719 47.695312 24.339844 C 47.734375 23.066406 47.914062 21.796875 48.050781 20.441406 M 154.453125 27.496094 C 154.222656 27.183594 153.992188 26.867188 153.753906 26.542969 C 153.242188 26.832031 152.726562 27.105469 152.238281 27.421875 C 152.125 27.496094 152.015625 27.769531 152.066406 27.882812 C 152.644531 29.207031 153.667969 30.039062 155.042969 30.4375 C 156.246094 30.78125 157.460938 30.808594 158.691406 30.519531 C 160.179688 30.171875 161.363281 29.484375 161.921875 27.96875 C 162.429688 26.597656 162.109375 24.578125 160.921875 23.785156 C 160.132812 23.253906 159.214844 22.90625 158.339844 22.515625 C 157.464844 22.125 156.511719 21.882812 155.699219 21.398438 C 154.242188 20.523438 154.6875 19.023438 155.695312 18.394531 C 156.773438 17.722656 158.988281 17.941406 159.761719 19.222656 C 159.910156 19.472656 160.082031 19.710938 160.253906 19.972656 C 160.75 19.714844 161.230469 19.488281 161.683594 19.222656 C 161.796875 19.152344 161.917969 18.914062 161.878906 18.808594 C 161.546875 17.882812 160.867188 17.234375 160.027344 16.769531 C 158.757812 16.070312 157.367188 16.027344 155.992188 16.285156 C 154.445312 16.574219 153.210938 17.375 152.773438 19.003906 C 152.457031 20.1875 152.585938 21.308594 153.535156 22.226562 C 154.46875 23.136719 155.679688 23.507812 156.828125 24.019531 C 157.703125 24.40625 158.605469 24.792969 159.359375 25.359375 C 160.644531 26.328125 160.148438 27.851562 159.070312 28.441406 C 158.113281 28.96875 157.101562 29.015625 156.082031 28.667969 C 155.453125 28.449219 154.859375 28.160156 154.453125 27.496094 M 62.398438 21.382812 C 62.597656 20.984375 62.761719 20.5625 63.003906 20.191406 C 63.796875 19.007812 64.910156 18.25 66.316406 18.03125 C 67.15625 17.902344 68.035156 17.875 68.882812 17.945312 C 70.082031 18.039062 71.199219 18.453125 72.339844 19.238281 C 72.339844 18.554688 72.371094 17.992188 72.320312 17.441406 C 72.304688 17.246094 72.128906 16.960938 71.957031 16.894531 C 71.355469 16.660156 70.738281 16.410156 70.105469 16.335938 C 68.289062 16.121094 66.476562 16.011719 64.691406 16.667969 C 63.328125 17.167969 62.1875 17.957031 61.367188 19.105469 C 59.945312 21.09375 59.621094 23.320312 60.273438 25.695312 C 60.800781 27.605469 62.035156 28.9375 63.699219 29.871094 C 64.78125 30.480469 66.003906 30.742188 67.25 30.699219 C 68.226562 30.664062 69.207031 30.574219 70.171875 30.410156 C 70.835938 30.300781 71.476562 30.046875 72.113281 29.820312 C 72.269531 29.769531 72.480469 29.589844 72.488281 29.453125 C 72.527344 28.839844 72.503906 28.222656 72.503906 27.535156 C 72.363281 27.613281 72.308594 27.644531 72.253906 27.675781 C 70.800781 28.546875 69.25 29.058594 67.527344 29.003906 C 65.644531 28.941406 64.0625 28.226562 62.976562 26.714844 C 61.832031 25.121094 61.882812 23.292969 62.398438 21.382812 M 130.675781 27.550781 C 130.671875 28.316406 130.65625 29.082031 130.6875 29.847656 C 130.691406 29.976562 130.878906 30.199219 130.996094 30.210938 C 131.460938 30.253906 131.929688 30.246094 132.394531 30.214844 C 132.503906 30.203125 132.6875 30.011719 132.691406 29.90625 C 132.699219 27.890625 132.667969 25.875 132.6875 23.863281 C 132.703125 22.34375 132.976562 20.902344 133.9375 19.644531 C 134.824219 18.480469 136.304688 17.757812 137.769531 18.128906 C 137.957031 18.175781 138.15625 18.171875 138.332031 18.191406 C 138.535156 17.683594 138.710938 17.21875 138.90625 16.765625 C 139.019531 16.496094 138.957031 16.371094 138.664062 16.3125 C 136.644531 15.902344 134.914062 16.296875 133.632812 18.035156 C 133.386719 18.367188 133.113281 18.679688 132.851562 19 C 132.808594 18.984375 132.769531 18.96875 132.730469 18.953125 C 132.730469 18.21875 132.730469 17.484375 132.730469 16.671875 C 132.257812 16.671875 131.847656 16.671875 131.433594 16.671875 C 130.585938 16.679688 130.675781 16.582031 130.675781 17.410156 C 130.671875 20.753906 130.675781 24.101562 130.675781 27.550781 Z M 130.675781 27.550781 "/>
<path style=" stroke:none;fill-rule:nonzero;fill:rgb(91.764706%,21.176471%,21.960784%);fill-opacity:1;" d="M 91.6875 30.175781 C 91.277344 30.195312 90.863281 30.230469 90.449219 30.21875 C 90.355469 30.214844 90.214844 30.0625 90.183594 29.953125 C 90.136719 29.800781 90.171875 29.621094 90.171875 29.457031 C 90.167969 25.40625 90.167969 21.355469 90.167969 17.308594 C 90.167969 17.128906 90.167969 16.945312 90.167969 16.6875 C 90.785156 16.6875 91.359375 16.667969 91.933594 16.703125 C 92.023438 16.707031 92.160156 16.949219 92.167969 17.085938 C 92.199219 17.523438 92.179688 17.964844 92.179688 18.402344 C 92.226562 18.417969 92.273438 18.433594 92.320312 18.453125 C 92.445312 18.335938 92.59375 18.234375 92.691406 18.097656 C 93.984375 16.308594 95.816406 15.960938 97.835938 16.253906 C 99.226562 16.453125 100.289062 17.203125 100.902344 18.507812 C 101.046875 18.808594 101.148438 18.71875 101.328125 18.519531 C 101.746094 18.058594 102.15625 17.574219 102.644531 17.191406 C 103.742188 16.328125 105.042969 16.144531 106.40625 16.171875 C 107.566406 16.191406 108.605469 16.53125 109.484375 17.261719 C 110.171875 17.835938 110.644531 18.585938 110.800781 19.484375 C 110.90625 20.085938 110.996094 20.695312 111.003906 21.304688 C 111.027344 24.101562 111.011719 26.902344 111.035156 29.699219 C 111.039062 30.121094 110.910156 30.261719 110.496094 30.234375 C 110.003906 30.203125 109.507812 30.226562 108.976562 30.226562 C 108.964844 30.042969 108.945312 29.917969 108.945312 29.792969 C 108.929688 26.824219 108.941406 23.859375 108.886719 20.894531 C 108.871094 20 108.519531 19.183594 107.796875 18.589844 C 106.851562 17.8125 105.757812 17.703125 104.601562 17.921875 C 102.542969 18.3125 101.742188 20.027344 101.710938 21.957031 C 101.664062 24.523438 101.671875 27.089844 101.6875 29.65625 C 101.691406 30.140625 101.527344 30.269531 101.085938 30.234375 C 100.753906 30.207031 100.417969 30.203125 100.089844 30.234375 C 99.65625 30.273438 99.511719 30.121094 99.515625 29.675781 C 99.53125 27.023438 99.535156 24.375 99.511719 21.726562 C 99.503906 21.082031 99.472656 20.414062 99.289062 19.804688 C 98.960938 18.707031 98.140625 18.113281 97.015625 17.894531 C 95.851562 17.667969 93.867188 17.96875 93.148438 19.253906 C 92.75 19.960938 92.449219 20.773438 92.332031 21.574219 C 92.167969 22.6875 92.195312 23.832031 92.183594 24.960938 C 92.164062 26.5625 92.1875 28.160156 92.175781 29.761719 C 92.175781 29.910156 92.035156 30.0625 91.941406 30.164062 C 91.6875 30.074219 91.453125 30.007812 91.214844 30.003906 C 90.269531 29.980469 90.402344 30.109375 90.402344 29.167969 C 90.398438 25.257812 90.402344 21.347656 90.402344 17.4375 C 90.402344 17.257812 90.402344 17.082031 90.402344 16.902344 C 90.378906 16.902344 90.359375 16.902344 90.339844 16.902344 C 90.339844 21.285156 90.339844 25.664062 90.339844 30.050781 C 90.8125 30.09375 91.25 30.136719 91.6875 30.175781 Z M 91.6875 30.175781 "/>
<path style=" stroke:none;fill-rule:nonzero;fill:rgb(92.156863%,21.176471%,21.960784%);fill-opacity:1;" d="M 26.0625 29.261719 C 24.09375 30.773438 21.921875 31.066406 19.628906 30.378906 C 18.617188 30.078125 17.789062 29.40625 17.199219 28.492188 C 17.097656 28.332031 16.980469 28.179688 16.742188 28.035156 C 16.722656 28.246094 16.683594 28.457031 16.679688 28.667969 C 16.671875 29.066406 16.699219 29.46875 16.667969 29.863281 C 16.65625 29.988281 16.519531 30.199219 16.429688 30.203125 C 15.855469 30.234375 15.277344 30.21875 14.683594 30.21875 C 14.683594 22.28125 14.683594 14.410156 14.683594 6.484375 C 15.277344 6.484375 15.839844 6.472656 16.402344 6.496094 C 16.496094 6.5 16.640625 6.652344 16.664062 6.757812 C 16.707031 6.949219 16.679688 7.15625 16.679688 7.355469 C 16.679688 10.953125 16.679688 14.550781 16.683594 18.148438 C 16.683594 18.304688 16.699219 18.464844 16.722656 18.785156 C 16.914062 18.566406 17.007812 18.472656 17.085938 18.367188 C 18.082031 17.003906 19.445312 16.316406 21.109375 16.199219 C 22.414062 16.105469 23.710938 16.167969 24.890625 16.816406 C 26.085938 17.476562 27.027344 18.386719 27.671875 19.625 C 28.667969 21.535156 28.617188 23.550781 28.289062 25.566406 C 28.0625 26.945312 27.402344 28.164062 26.261719 29.058594 C 26.199219 29.109375 26.144531 29.175781 26.0625 29.261719 M 16.816406 24.894531 C 16.957031 25.300781 17.070312 25.722656 17.238281 26.121094 C 17.707031 27.214844 18.460938 28.035156 19.582031 28.488281 C 20.660156 28.921875 21.757812 28.992188 22.898438 28.707031 C 24.519531 28.300781 25.5625 27.222656 25.992188 25.609375 C 26.339844 24.304688 26.300781 22.96875 26.066406 21.644531 C 25.867188 20.507812 25.308594 19.535156 24.4375 18.816406 C 23.527344 18.066406 22.410156 17.753906 21.230469 17.828125 C 18.753906 17.980469 17.25 19.363281 16.773438 21.785156 C 16.570312 22.804688 16.636719 23.804688 16.816406 24.894531 M 14.898438 29.53125 C 14.898438 21.90625 14.898438 14.28125 14.898438 6.65625 C 14.882812 6.65625 14.863281 6.65625 14.847656 6.65625 C 14.847656 14.449219 14.847656 22.242188 14.847656 30.066406 C 15.375 30.066406 15.882812 30.066406 16.390625 30.066406 C 16.019531 30 15.644531 29.988281 15.273438 30.003906 C 14.992188 30.015625 14.871094 29.90625 14.898438 29.53125 Z M 14.898438 29.53125 "/>
<path style=" stroke:none;fill-rule:nonzero;fill:rgb(91.764706%,21.176471%,21.960784%);fill-opacity:1;" d="M 115.480469 17.777344 C 116.332031 16.964844 117.308594 16.457031 118.429688 16.285156 C 120.214844 16.015625 121.960938 16.101562 123.492188 17.207031 C 123.949219 17.539062 124.300781 18.015625 124.699219 18.433594 C 124.785156 18.523438 124.855469 18.628906 125.042969 18.703125 C 125.042969 18.054688 125.042969 17.40625 125.042969 16.714844 C 125.769531 16.714844 126.421875 16.714844 127.105469 16.714844 C 127.105469 21.210938 127.105469 25.667969 127.105469 30.21875 C 126.488281 30.21875 125.882812 30.230469 125.273438 30.199219 C 125.203125 30.195312 125.085938 29.960938 125.082031 29.828125 C 125.0625 29.21875 125.074219 28.609375 125.074219 28 C 125.03125 27.988281 124.984375 27.972656 124.941406 27.957031 C 124.816406 28.117188 124.675781 28.265625 124.566406 28.4375 C 123.632812 29.902344 122.222656 30.550781 120.5625 30.695312 C 119.164062 30.816406 117.796875 30.605469 116.566406 29.898438 C 115.460938 29.257812 114.597656 28.367188 113.996094 27.210938 C 112.992188 25.277344 113.109375 23.230469 113.441406 21.210938 C 113.664062 19.871094 114.417969 18.722656 115.480469 17.777344 M 116.933594 19.179688 C 116.289062 19.753906 115.90625 20.496094 115.714844 21.304688 C 115.386719 22.714844 115.371094 24.144531 115.699219 25.558594 C 115.9375 26.570312 116.445312 27.464844 117.339844 28.007812 C 117.933594 28.367188 118.625 28.59375 119.296875 28.777344 C 120.5 29.101562 121.65625 28.808594 122.707031 28.222656 C 123.621094 27.714844 124.238281 26.90625 124.601562 25.886719 C 125.199219 24.21875 125.292969 22.5625 124.714844 20.875 C 124.261719 19.554688 123.421875 18.652344 122.097656 18.160156 C 120.984375 17.75 119.882812 17.710938 118.773438 18.042969 C 118.101562 18.246094 117.433594 18.523438 116.933594 19.179688 Z M 116.933594 19.179688 "/>
<path style=" stroke:none;fill-rule:nonzero;fill:rgb(91.764706%,20.784314%,21.568627%);fill-opacity:1;" d="M 38.621094 30.503906 C 37.152344 30.855469 35.726562 30.785156 34.332031 30.394531 C 33.21875 30.082031 32.253906 29.464844 31.464844 28.601562 C 30.273438 27.289062 29.710938 25.742188 29.679688 23.972656 C 29.65625 22.488281 29.765625 21.039062 30.484375 19.710938 C 31.210938 18.375 32.25 17.359375 33.644531 16.726562 C 35.183594 16.027344 36.804688 16.050781 38.398438 16.332031 C 39.324219 16.5 40.183594 16.941406 40.9375 17.597656 C 41.796875 18.339844 42.441406 19.226562 42.75 20.277344 C 43.023438 21.222656 43.058594 22.238281 43.171875 23.226562 C 43.179688 23.308594 42.996094 23.453125 42.875 23.503906 C 42.761719 23.554688 42.613281 23.515625 42.480469 23.515625 C 39.164062 23.515625 35.847656 23.515625 32.53125 23.515625 C 31.859375 23.515625 31.882812 23.519531 31.929688 24.171875 C 31.996094 25.132812 32.207031 26.039062 32.71875 26.867188 C 33.390625 27.953125 34.339844 28.65625 35.585938 28.898438 C 37.148438 29.207031 38.632812 28.957031 39.867188 27.921875 C 40.421875 27.457031 40.796875 26.773438 41.277344 26.210938 C 41.378906 26.089844 41.617188 25.953125 41.71875 25.996094 C 42.230469 26.214844 42.714844 26.488281 43.269531 26.773438 C 42.242188 28.714844 40.839844 30.078125 38.621094 30.503906 M 31.957031 21.839844 C 32.097656 21.894531 32.238281 21.992188 32.378906 21.996094 C 34.011719 22.003906 35.644531 22 37.273438 22 C 38.382812 22 39.492188 22 40.675781 22 C 40.542969 21.914062 40.476562 21.875 40.492188 21.808594 C 40.832031 21.835938 40.828125 21.609375 40.789062 21.382812 C 40.601562 20.25 40.097656 19.277344 39.078125 18.714844 C 37.402344 17.785156 35.671875 17.695312 33.96875 18.667969 C 32.765625 19.351562 32.089844 20.390625 31.957031 21.839844 Z M 31.957031 21.839844 "/>
<path style=" stroke:none;fill-rule:nonzero;fill:rgb(92.156863%,21.568627%,22.352941%);fill-opacity:1;" d="M 146.996094 25.703125 C 148.003906 26.613281 148.992188 27.5 149.96875 28.390625 C 150.578125 28.945312 151.179688 29.511719 151.898438 30.179688 C 151.519531 30.199219 151.269531 30.222656 151.019531 30.226562 C 150.585938 30.230469 150.152344 30.195312 149.722656 30.234375 C 149.296875 30.273438 148.976562 30.09375 148.691406 29.835938 C 147.214844 28.507812 145.742188 27.179688 144.28125 25.835938 C 143.476562 25.097656 142.699219 24.332031 141.90625 23.585938 C 141.839844 23.523438 141.738281 23.5 141.578125 23.421875 C 141.539062 23.726562 141.480469 23.980469 141.484375 24.230469 C 141.488281 26.0625 141.5 27.894531 141.523438 29.722656 C 141.53125 30.078125 141.441406 30.253906 141.050781 30.230469 C 140.65625 30.207031 140.253906 30.214844 139.855469 30.230469 C 139.542969 30.246094 139.460938 30.117188 139.460938 29.816406 C 139.46875 22.152344 139.46875 14.492188 139.472656 6.828125 C 139.472656 6.730469 139.488281 6.636719 139.496094 6.507812 C 140.144531 6.507812 140.769531 6.507812 141.480469 6.507812 C 141.480469 11.816406 141.480469 17.113281 141.480469 22.523438 C 141.734375 22.375 141.882812 22.308594 142 22.210938 C 143.035156 21.335938 144.066406 20.453125 145.097656 19.574219 C 146.121094 18.707031 147.132812 17.828125 148.171875 16.984375 C 148.375 16.820312 148.671875 16.707031 148.933594 16.691406 C 149.675781 16.65625 150.425781 16.679688 151.210938 16.789062 C 148.738281 18.757812 146.261719 20.722656 143.71875 22.742188 C 144.847656 23.761719 145.90625 24.722656 146.996094 25.703125 M 139.699219 20.75 C 139.699219 19.441406 139.699219 18.132812 139.699219 16.828125 C 139.683594 16.828125 139.667969 16.828125 139.652344 16.828125 C 139.652344 21.242188 139.652344 25.652344 139.652344 30.0625 C 140.191406 30.0625 140.683594 30.0625 141.175781 30.0625 C 140.875 30 140.578125 29.972656 140.28125 30.003906 C 139.835938 30.050781 139.6875 29.910156 139.691406 29.4375 C 139.710938 26.574219 139.699219 23.710938 139.699219 20.75 M 139.699219 11.148438 C 139.699219 9.675781 139.699219 8.199219 139.699219 6.722656 C 139.679688 6.722656 139.65625 6.722656 139.636719 6.722656 C 139.636719 9.941406 139.636719 13.160156 139.636719 16.378906 C 139.65625 16.378906 139.679688 16.378906 139.699219 16.378906 C 139.699219 14.667969 139.699219 12.960938 139.699219 11.148438 Z M 139.699219 11.148438 "/>
<path style=" stroke:none;fill-rule:nonzero;fill:rgb(92.156863%,21.176471%,21.960784%);fill-opacity:1;" d="M 74.539062 29.972656 C 74.53125 29.941406 74.523438 29.910156 74.566406 29.828125 C 74.644531 29.636719 74.695312 29.492188 74.695312 29.351562 C 74.703125 21.90625 74.703125 14.460938 74.695312 7.015625 C 74.695312 6.878906 74.589844 6.738281 74.535156 6.601562 C 75.160156 6.546875 75.785156 6.492188 76.492188 6.429688 C 76.492188 10.476562 76.492188 14.429688 76.492188 18.421875 C 77.039062 17.964844 77.519531 17.550781 78.011719 17.15625 C 78.71875 16.589844 79.554688 16.304688 80.441406 16.230469 C 81.792969 16.113281 83.144531 16.097656 84.386719 16.785156 C 85.316406 17.304688 86.066406 18.011719 86.285156 19.082031 C 86.484375 20.050781 86.628906 21.046875 86.648438 22.035156 C 86.695312 24.582031 86.652344 27.132812 86.667969 29.683594 C 86.671875 30.089844 86.578125 30.269531 86.140625 30.222656 C 85.796875 30.183594 85.441406 30.1875 85.09375 30.21875 C 84.683594 30.257812 84.589844 30.082031 84.59375 29.699219 C 84.605469 26.949219 84.632812 24.199219 84.566406 21.453125 C 84.550781 20.710938 84.328125 19.925781 84 19.257812 C 83.535156 18.324219 82.574219 17.992188 81.597656 17.871094 C 80.308594 17.714844 79.058594 17.902344 78.019531 18.753906 C 77.148438 19.464844 76.734375 20.449219 76.707031 21.558594 C 76.636719 24.253906 76.617188 26.953125 76.570312 29.648438 C 76.566406 29.824219 76.507812 29.996094 76.425781 30.132812 C 76.222656 30.0625 76.070312 30.011719 75.917969 30.003906 C 75.457031 29.984375 74.996094 29.980469 74.539062 29.972656 Z M 74.539062 29.972656 "/>
<path style=" stroke:none;fill-rule:nonzero;fill:rgb(91.764706%,21.568627%,22.352941%);fill-opacity:1;" d="M 48.042969 20.484375 C 47.914062 21.796875 47.734375 23.066406 47.695312 24.339844 C 47.636719 26.136719 47.667969 27.9375 47.6875 29.738281 C 47.691406 30.109375 47.578125 30.253906 47.207031 30.234375 C 46.808594 30.214844 46.40625 30.253906 46.007812 30.214844 C 45.886719 30.203125 45.679688 30.027344 45.679688 29.925781 C 45.667969 25.5625 45.675781 21.195312 45.683594 16.828125 C 45.683594 16.800781 45.710938 16.769531 45.746094 16.691406 C 46.269531 16.691406 46.8125 16.675781 47.355469 16.707031 C 47.441406 16.714844 47.570312 16.925781 47.578125 17.050781 C 47.605469 17.496094 47.589844 17.941406 47.710938 18.445312 C 47.929688 18.203125 48.136719 17.945312 48.371094 17.722656 C 49.984375 16.214844 51.933594 15.972656 54.003906 16.269531 C 56.074219 16.566406 57.710938 18.292969 57.738281 20.367188 C 57.785156 23.535156 57.765625 26.699219 57.78125 29.867188 C 57.785156 30.160156 57.65625 30.242188 57.386719 30.230469 C 56.988281 30.21875 56.585938 30.203125 56.1875 30.234375 C 55.773438 30.265625 55.691406 30.085938 55.691406 29.710938 C 55.703125 26.960938 55.71875 24.210938 55.675781 21.460938 C 55.664062 20.675781 55.550781 19.882812 55.085938 19.179688 C 54.507812 18.296875 53.625 17.984375 52.671875 17.867188 C 51.4375 17.714844 50.246094 17.925781 49.230469 18.707031 C 48.65625 19.148438 48.246094 19.730469 48.042969 20.484375 M 47.398438 22.804688 C 47.398438 24.886719 47.398438 26.972656 47.398438 29.054688 C 47.398438 30.003906 47.398438 29.980469 46.449219 30.007812 C 46.007812 30.023438 45.886719 29.894531 45.890625 29.449219 C 45.90625 25.433594 45.902344 21.417969 45.902344 17.402344 C 45.902344 17.222656 45.902344 17.046875 45.902344 16.867188 C 45.882812 16.871094 45.867188 16.871094 45.851562 16.871094 C 45.851562 21.269531 45.851562 25.667969 45.851562 30.097656 C 46.265625 30.097656 46.632812 30.074219 46.996094 30.105469 C 47.382812 30.136719 47.511719 30.011719 47.507812 29.605469 C 47.488281 27.339844 47.5 25.074219 47.496094 22.808594 C 47.496094 22.710938 47.476562 22.617188 47.464844 22.523438 C 47.449219 22.527344 47.429688 22.527344 47.414062 22.527344 C 47.40625 22.59375 47.402344 22.65625 47.398438 22.804688 Z M 47.398438 22.804688 "/>
<path style=" stroke:none;fill-rule:nonzero;fill:rgb(91.764706%,21.176471%,21.960784%);fill-opacity:1;" d="M 154.472656 27.527344 C 154.859375 28.160156 155.453125 28.449219 156.082031 28.667969 C 157.101562 29.015625 158.113281 28.96875 159.070312 28.441406 C 160.148438 27.851562 160.644531 26.328125 159.359375 25.359375 C 158.605469 24.792969 157.703125 24.40625 156.828125 24.019531 C 155.679688 23.507812 154.46875 23.136719 153.535156 22.226562 C 152.585938 21.308594 152.457031 20.1875 152.773438 19.003906 C 153.210938 17.375 154.445312 16.574219 155.992188 16.285156 C 157.367188 16.027344 158.757812 16.070312 160.027344 16.769531 C 160.867188 17.234375 161.546875 17.882812 161.878906 18.808594 C 161.917969 18.914062 161.796875 19.152344 161.683594 19.222656 C 161.230469 19.488281 160.75 19.714844 160.253906 19.972656 C 160.082031 19.710938 159.910156 19.472656 159.761719 19.222656 C 158.988281 17.941406 156.773438 17.722656 155.695312 18.394531 C 154.6875 19.023438 154.242188 20.523438 155.699219 21.398438 C 156.511719 21.882812 157.464844 22.125 158.339844 22.515625 C 159.214844 22.90625 160.132812 23.253906 160.921875 23.785156 C 162.109375 24.578125 162.429688 26.597656 161.921875 27.96875 C 161.363281 29.484375 160.179688 30.171875 158.691406 30.519531 C 157.460938 30.808594 156.246094 30.78125 155.042969 30.4375 C 153.667969 30.039062 152.644531 29.207031 152.066406 27.882812 C 152.015625 27.769531 152.125 27.496094 152.238281 27.421875 C 152.726562 27.105469 153.242188 26.832031 153.753906 26.542969 C 153.992188 26.867188 154.222656 27.183594 154.472656 27.527344 Z M 154.472656 27.527344 "/>
<path style=" stroke:none;fill-rule:nonzero;fill:rgb(91.372549%,21.568627%,21.960784%);fill-opacity:1;" d="M 62.390625 21.421875 C 61.882812 23.292969 61.832031 25.121094 62.976562 26.714844 C 64.0625 28.226562 65.644531 28.941406 67.527344 29.003906 C 69.25 29.058594 70.800781 28.546875 72.253906 27.675781 C 72.308594 27.644531 72.363281 27.613281 72.503906 27.535156 C 72.503906 28.222656 72.527344 28.839844 72.488281 29.453125 C 72.480469 29.589844 72.269531 29.769531 72.113281 29.820312 C 71.476562 30.046875 70.835938 30.300781 70.171875 30.410156 C 69.207031 30.574219 68.226562 30.664062 67.25 30.699219 C 66.003906 30.742188 64.78125 30.480469 63.699219 29.871094 C 62.035156 28.9375 60.800781 27.605469 60.273438 25.695312 C 59.621094 23.320312 59.945312 21.09375 61.367188 19.105469 C 62.1875 17.957031 63.328125 17.167969 64.691406 16.667969 C 66.476562 16.011719 68.289062 16.121094 70.105469 16.335938 C 70.738281 16.410156 71.355469 16.660156 71.957031 16.894531 C 72.128906 16.960938 72.304688 17.246094 72.320312 17.441406 C 72.371094 17.992188 72.339844 18.554688 72.339844 19.238281 C 71.199219 18.453125 70.082031 18.039062 68.882812 17.945312 C 68.035156 17.875 67.15625 17.902344 66.316406 18.03125 C 64.910156 18.25 63.796875 19.007812 63.003906 20.191406 C 62.761719 20.5625 62.597656 20.984375 62.390625 21.421875 Z M 62.390625 21.421875 "/>
<path style=" stroke:none;fill-rule:nonzero;fill:rgb(91.764706%,21.568627%,22.352941%);fill-opacity:1;" d="M 130.675781 27.5 C 130.675781 24.101562 130.671875 20.753906 130.675781 17.410156 C 130.675781 16.582031 130.585938 16.679688 131.433594 16.671875 C 131.847656 16.671875 132.257812 16.671875 132.730469 16.671875 C 132.730469 17.484375 132.730469 18.21875 132.730469 18.953125 C 132.769531 18.96875 132.808594 18.984375 132.851562 19 C 133.113281 18.679688 133.386719 18.367188 133.632812 18.035156 C 134.914062 16.296875 136.644531 15.902344 138.664062 16.3125 C 138.957031 16.371094 139.019531 16.496094 138.90625 16.765625 C 138.710938 17.21875 138.535156 17.683594 138.332031 18.191406 C 138.15625 18.171875 137.957031 18.175781 137.769531 18.128906 C 136.304688 17.757812 134.824219 18.480469 133.9375 19.644531 C 132.976562 20.902344 132.703125 22.34375 132.6875 23.863281 C 132.667969 25.875 132.699219 27.890625 132.691406 29.90625 C 132.6875 30.011719 132.503906 30.203125 132.394531 30.214844 C 131.929688 30.246094 131.460938 30.253906 130.996094 30.210938 C 130.878906 30.199219 130.691406 29.976562 130.6875 29.847656 C 130.65625 29.082031 130.671875 28.316406 130.675781 27.5 M 130.902344 17.953125 C 130.902344 17.609375 130.902344 17.265625 130.902344 16.921875 C 130.878906 16.925781 130.855469 16.925781 130.832031 16.925781 C 130.832031 21.296875 130.832031 25.664062 130.832031 30.0625 C 131.167969 30.0625 131.46875 30.0625 131.773438 30.0625 C 130.898438 29.957031 130.902344 29.957031 130.902344 29.035156 C 130.902344 25.375 130.902344 21.714844 130.902344 17.953125 M 132.382812 30.023438 C 132.386719 30.039062 132.394531 30.054688 132.398438 30.074219 C 132.40625 30.054688 132.410156 30.039062 132.382812 30.023438 Z M 132.382812 30.023438 "/>
<path style=" stroke:none;fill-rule:nonzero;fill:rgb(83.529412%,14.901961%,15.294118%);fill-opacity:1;" d="M 74.519531 6.644531 C 74.589844 6.738281 74.695312 6.878906 74.695312 7.015625 C 74.703125 14.460938 74.703125 21.90625 74.695312 29.351562 C 74.695312 29.492188 74.644531 29.636719 74.578125 29.804688 C 74.527344 29.714844 74.503906 29.601562 74.503906 29.484375 C 74.503906 21.886719 74.503906 14.289062 74.519531 6.644531 Z M 74.519531 6.644531 "/>
<path style=" stroke:none;fill-rule:nonzero;fill:rgb(85.098039%,14.117647%,16.862745%);fill-opacity:1;" d="M 91.726562 30.1875 C 91.25 30.136719 90.8125 30.09375 90.339844 30.050781 C 90.339844 25.664062 90.339844 21.285156 90.339844 16.902344 C 90.359375 16.902344 90.378906 16.902344 90.402344 16.902344 C 90.402344 17.082031 90.402344 17.257812 90.402344 17.4375 C 90.402344 21.347656 90.398438 25.257812 90.402344 29.167969 C 90.402344 30.109375 90.269531 29.980469 91.214844 30.003906 C 91.453125 30.007812 91.6875 30.074219 91.917969 30.144531 C 91.859375 30.183594 91.8125 30.191406 91.726562 30.1875 Z M 91.726562 30.1875 "/>
<path style=" stroke:none;fill-rule:nonzero;fill:rgb(83.529412%,14.901961%,15.294118%);fill-opacity:1;" d="M 74.539062 29.976562 C 74.996094 29.980469 75.457031 29.984375 75.917969 30.003906 C 76.070312 30.011719 76.222656 30.0625 76.386719 30.132812 C 76.027344 30.179688 75.652344 30.1875 75.207031 30.164062 C 74.9375 30.082031 74.738281 30.035156 74.535156 29.988281 C 74.535156 29.988281 74.539062 29.980469 74.539062 29.976562 Z M 74.539062 29.976562 "/>
<path style=" stroke:none;fill-rule:nonzero;fill:rgb(92.156863%,21.176471%,21.960784%);fill-opacity:1;" d="M 74.523438 30.015625 C 74.738281 30.035156 74.9375 30.082031 75.164062 30.152344 C 74.964844 30.132812 74.734375 30.085938 74.523438 30.015625 Z M 74.523438 30.015625 "/>
<path style=" stroke:none;fill-rule:nonzero;fill:rgb(99.607843%,98.431373%,98.431373%);fill-opacity:1;" d="M 16.8125 24.851562 C 16.636719 23.804688 16.570312 22.804688 16.773438 21.785156 C 17.25 19.363281 18.753906 17.980469 21.230469 17.828125 C 22.410156 17.753906 23.527344 18.066406 24.4375 18.816406 C 25.308594 19.535156 25.867188 20.507812 26.066406 21.644531 C 26.300781 22.96875 26.339844 24.304688 25.992188 25.609375 C 25.5625 27.222656 24.519531 28.300781 22.898438 28.707031 C 21.757812 28.992188 20.660156 28.921875 19.582031 28.488281 C 18.460938 28.035156 17.707031 27.214844 17.238281 26.121094 C 17.070312 25.722656 16.957031 25.300781 16.8125 24.851562 Z M 16.8125 24.851562 "/>
<path style=" stroke:none;fill-rule:nonzero;fill:rgb(85.882353%,13.333333%,15.686275%);fill-opacity:1;" d="M 14.898438 29.578125 C 14.871094 29.90625 14.992188 30.015625 15.273438 30.003906 C 15.644531 29.988281 16.019531 30 16.390625 30.066406 C 15.882812 30.066406 15.375 30.066406 14.847656 30.066406 C 14.847656 22.242188 14.847656 14.449219 14.847656 6.65625 C 14.863281 6.65625 14.882812 6.65625 14.898438 6.65625 C 14.898438 14.28125 14.898438 21.90625 14.898438 29.578125 Z M 14.898438 29.578125 "/>
<path style=" stroke:none;fill-rule:nonzero;fill:rgb(99.607843%,98.431373%,98.431373%);fill-opacity:1;" d="M 116.957031 19.15625 C 117.433594 18.523438 118.101562 18.246094 118.773438 18.042969 C 119.882812 17.710938 120.984375 17.75 122.097656 18.160156 C 123.421875 18.652344 124.261719 19.554688 124.714844 20.875 C 125.292969 22.5625 125.199219 24.21875 124.601562 25.886719 C 124.238281 26.90625 123.621094 27.714844 122.707031 28.222656 C 121.65625 28.808594 120.5 29.101562 119.296875 28.777344 C 118.625 28.59375 117.933594 28.367188 117.339844 28.007812 C 116.445312 27.464844 115.9375 26.570312 115.699219 25.558594 C 115.371094 24.144531 115.386719 22.714844 115.714844 21.304688 C 115.90625 20.496094 116.289062 19.753906 116.957031 19.15625 Z M 116.957031 19.15625 "/>
<path style=" stroke:none;fill-rule:nonzero;fill:rgb(99.607843%,97.254902%,97.254902%);fill-opacity:1;" d="M 32.007812 21.789062 C 32.089844 20.390625 32.765625 19.351562 33.96875 18.667969 C 35.671875 17.695312 37.402344 17.785156 39.078125 18.714844 C 40.097656 19.277344 40.601562 20.25 40.789062 21.382812 C 40.828125 21.609375 40.832031 21.835938 40.414062 21.8125 C 40.289062 21.820312 40.238281 21.828125 40.144531 21.820312 C 37.96875 21.816406 35.839844 21.824219 33.667969 21.820312 C 33.445312 21.816406 33.269531 21.824219 33.046875 21.820312 C 32.667969 21.800781 32.335938 21.792969 32.003906 21.792969 C 32.003906 21.792969 32.007812 21.789062 32.007812 21.789062 Z M 32.007812 21.789062 "/>
<path style=" stroke:none;fill-rule:nonzero;fill:rgb(83.137255%,14.901961%,17.647059%);fill-opacity:1;" d="M 40.1875 21.832031 C 40.238281 21.828125 40.289062 21.820312 40.375 21.824219 C 40.476562 21.875 40.542969 21.914062 40.675781 22 C 39.492188 22 38.382812 22 37.273438 22 C 35.644531 22 34.011719 22.003906 32.378906 21.996094 C 32.238281 21.992188 32.097656 21.894531 31.984375 21.8125 C 32.007812 21.789062 32.003906 21.792969 32.027344 21.824219 C 32.398438 21.847656 32.742188 21.839844 33.089844 21.832031 C 33.269531 21.824219 33.445312 21.816406 33.699219 21.84375 C 35.851562 21.886719 37.929688 21.894531 40.007812 21.898438 C 40.066406 21.898438 40.128906 21.855469 40.1875 21.832031 Z M 40.1875 21.832031 "/>
<path style=" stroke:none;fill-rule:nonzero;fill:rgb(86.666667%,13.333333%,16.862745%);fill-opacity:1;" d="M 139.699219 20.800781 C 139.699219 23.710938 139.710938 26.574219 139.691406 29.4375 C 139.6875 29.910156 139.835938 30.050781 140.28125 30.003906 C 140.578125 29.972656 140.875 30 141.175781 30.0625 C 140.683594 30.0625 140.191406 30.0625 139.652344 30.0625 C 139.652344 25.652344 139.652344 21.242188 139.652344 16.828125 C 139.667969 16.828125 139.683594 16.828125 139.699219 16.828125 C 139.699219 18.132812 139.699219 19.441406 139.699219 20.800781 Z M 139.699219 20.800781 "/>
<path style=" stroke:none;fill-rule:nonzero;fill:rgb(86.666667%,13.333333%,16.862745%);fill-opacity:1;" d="M 139.699219 11.199219 C 139.699219 12.960938 139.699219 14.667969 139.699219 16.378906 C 139.679688 16.378906 139.65625 16.378906 139.636719 16.378906 C 139.636719 13.160156 139.636719 9.941406 139.636719 6.722656 C 139.65625 6.722656 139.679688 6.722656 139.699219 6.722656 C 139.699219 8.199219 139.699219 9.675781 139.699219 11.199219 Z M 139.699219 11.199219 "/>
<path style=" stroke:none;fill-rule:nonzero;fill:rgb(85.882353%,15.686275%,15.686275%);fill-opacity:1;" d="M 47.398438 22.761719 C 47.402344 22.65625 47.40625 22.59375 47.414062 22.527344 C 47.429688 22.527344 47.449219 22.527344 47.464844 22.523438 C 47.476562 22.617188 47.496094 22.710938 47.496094 22.808594 C 47.5 25.074219 47.488281 27.339844 47.507812 29.605469 C 47.511719 30.011719 47.382812 30.136719 46.996094 30.105469 C 46.632812 30.074219 46.265625 30.097656 45.851562 30.097656 C 45.851562 25.667969 45.851562 21.269531 45.851562 16.871094 C 45.867188 16.871094 45.882812 16.871094 45.902344 16.867188 C 45.902344 17.046875 45.902344 17.222656 45.902344 17.402344 C 45.902344 21.417969 45.90625 25.433594 45.890625 29.449219 C 45.886719 29.894531 46.007812 30.023438 46.449219 30.007812 C 47.398438 29.980469 47.398438 30.003906 47.398438 29.054688 C 47.398438 26.972656 47.398438 24.886719 47.398438 22.761719 Z M 47.398438 22.761719 "/>
<path style=" stroke:none;fill-rule:nonzero;fill:rgb(86.666667%,14.509804%,15.294118%);fill-opacity:1;" d="M 130.902344 18.003906 C 130.902344 21.714844 130.902344 25.375 130.902344 29.035156 C 130.902344 29.957031 130.898438 29.957031 131.773438 30.0625 C 131.46875 30.0625 131.167969 30.0625 130.832031 30.0625 C 130.832031 25.664062 130.832031 21.296875 130.832031 16.925781 C 130.855469 16.925781 130.878906 16.925781 130.902344 16.921875 C 130.902344 17.265625 130.902344 17.609375 130.902344 18.003906 Z M 130.902344 18.003906 "/>
<path style=" stroke:none;fill-rule:nonzero;fill:rgb(86.666667%,14.509804%,15.294118%);fill-opacity:1;" d="M 132.398438 30.023438 C 132.410156 30.039062 132.40625 30.054688 132.398438 30.074219 C 132.394531 30.054688 132.386719 30.039062 132.398438 30.023438 Z M 132.398438 30.023438 "/>
<path style=" stroke:none;fill-rule:nonzero;fill:rgb(91.764706%,20.784314%,21.568627%);fill-opacity:1;" d="M 40.144531 21.820312 C 40.128906 21.855469 40.066406 21.898438 40.007812 21.898438 C 37.929688 21.894531 35.851562 21.886719 33.742188 21.855469 C 35.839844 21.824219 37.96875 21.816406 40.144531 21.820312 Z M 40.144531 21.820312 "/>
<path style=" stroke:none;fill-rule:nonzero;fill:rgb(91.764706%,20.784314%,21.568627%);fill-opacity:1;" d="M 33.046875 21.820312 C 32.742188 21.839844 32.398438 21.847656 32.027344 21.820312 C 32.335938 21.792969 32.667969 21.800781 33.046875 21.820312 Z M 33.046875 21.820312 "/>
</g>
</svg>
