<svg xmlns="http://www.w3.org/2000/svg" xmlns:xlink="http://www.w3.org/1999/xlink" version="1.1" width="600" height="150" viewBox="0 0 600 150" xml:space="preserve">
<desc>Created with Fabric.js 3.5.0</desc>
<defs>
</defs>
<rect x="0" y="0" width="100%" height="100%" fill="#ffffff"/>
<g transform="matrix(1.9686 0 0 1.9686 300.0043 68.7986)" id="3526">
<g style="" vector-effect="non-scaling-stroke">
		<g transform="matrix(1 0 0 1 -100 12.5)" id="590721">
<rect style="stroke: none; stroke-width: 1; stroke-dasharray: none; stroke-linecap: butt; stroke-dashoffset: 0; stroke-linejoin: miter; stroke-miterlimit: 4; is-custom-font: none; font-file-url: none; fill: rgb(255,255,255); fill-rule: nonzero; opacity: 1;" x="-50" y="-50" rx="0" ry="0" width="100" height="100"/>
</g>
		<g transform="matrix(0.7876 0 0 0.8593 -0.1436 15.0528)" id="440149">
<path style="stroke: none; stroke-width: 1; stroke-dasharray: none; stroke-linecap: butt; stroke-dashoffset: 0; stroke-linejoin: miter; stroke-miterlimit: 4; is-custom-font: none; font-file-url: none; fill: rgb(236,27,36); fill-rule: evenodd; opacity: 1;" vector-effect="non-scaling-stroke" transform=" translate(-189, -24.5)" d="M 0 24.5 L 0 49 L 4 49 C 7.676 49 8 48.782 8 46.309 C 8 43.945 8.152 43.818 9.25 45.264 C 10.779 47.277 15.197 49 18.831 49 C 22.913 49 28.126 45.754 30.173 41.938 C 32.71 37.208 32.641 27.564 30.04 23.299 C 26.139 16.9 17.179 15.031 10.89 19.302 L 7.5 21.604 L 7.838 10.802 L 8.177 0 L 4.088 0 L 0 0 L 0 24.5 M 148 24.5 L 148 49 L 153 49 L 158 49 L 158 38.611 C 158 30.171 158.328 27.834 159.75 26.153 C 162.377 23.049 166.174 22.51 169.044 24.834 C 171.288 26.651 171.488 27.589 171.841 37.896 L 172.221 49 L 176.664 49 L 181.106 49 L 180.933 37.304 C 180.73 23.621 179.873 20.503 175.726 18.358 C 171.656 16.254 163.827 17.013 159.936 19.889 L 157 22.06 L 157 11.03 L 157 0 L 152.5 0 L 148 0 L 148 24.5 M 317 24.5 L 317 49 L 321.46 49 L 325.919 49 L 326.21 40.75 L 326.5 32.5 L 332.795 40.75 L 339.09 49 L 344.611 49 L 350.133 49 L 345.584 43.25 C 343.083 40.087 339.951 36.156 338.624 34.514 L 336.212 31.528 L 342.314 25.014 L 348.415 18.5 L 343.188 18.197 C 338.331 17.916 337.766 18.128 335.23 21.189 C 333.728 23.001 331.05 26.062 329.277 27.992 L 326.054 31.5 L 326.027 15.75 L 326 0 L 321.5 0 L 317 0 L 317 24.5 M 46.415 18.421 C 33.964 23.843 34.899 43.841 47.803 48.1 C 52.387 49.613 60.288 48.603 64.569 45.957 C 68.775 43.358 68.918 41.623 65.058 40.024 C 62.604 39.008 61.737 39.071 59.835 40.403 C 54.989 43.797 47 41.474 47 36.671 C 47 35.206 48.421 35 58.5 35 L 70 35 L 70 31.148 C 70 26.302 66.625 21.085 61.98 18.752 C 57.871 16.687 50.745 16.536 46.415 18.421 M 90.226 18.944 C 86.315 21.4 86 21.441 86 19.5 C 86 18.389 84.833 18 81.5 18 L 77 18 L 77 33.5 L 77 49 L 81.5 49 L 86 49 L 86 39.547 C 86 34.348 86.5 28.998 87.11 27.657 C 89.428 22.57 97.265 21.937 99.073 26.692 C 99.583 28.033 100 33.601 100 39.065 L 100 49 L 104.5 49 L 109 49 L 109 36.056 C 109 23.941 108.851 22.938 106.669 20.402 C 103.451 16.66 95.05 15.915 90.226 18.944 M 124.271 18.964 C 118.148 21.743 115.806 25.983 116.229 33.524 C 116.63 40.695 118.738 44.098 124.566 46.985 C 128.969 49.167 134.366 49.572 138.435 48.025 C 140.602 47.201 141 46.425 141 43.025 C 141 39.207 139.85 37.816 138.5 40 C 137.386 41.802 130.414 41.114 127.635 38.927 C 124.81 36.705 124.048 31.647 125.992 28.014 C 127.654 24.91 133.202 23.64 137.414 25.4 L 141 26.898 L 141 22.984 C 141 20.138 140.472 18.788 139.066 18.035 C 136.033 16.412 128.907 16.859 124.271 18.964 M 202.226 18.944 C 198.315 21.4 198 21.441 198 19.5 C 198 18.389 196.833 18 193.5 18 L 189 18 L 189 33.5 L 189 49 L 193.5 49 L 198 49 L 198 40.149 C 198 35.281 198.505 29.849 199.123 28.078 C 200.574 23.914 204.333 22.333 207.635 24.496 C 209.894 25.977 210 26.559 210 37.523 L 210 49 L 214.369 49 L 218.738 49 L 219.245 38.75 C 219.831 26.91 220.202 25.685 223.67 24.105 C 229.714 21.35 231.985 25.755 231.994 40.25 L 232 49 L 236.5 49 L 241 49 L 241 37.468 C 241 24.356 239.646 19.576 235.483 17.994 C 231.073 16.317 226.488 16.859 222.566 19.52 L 218.853 22.04 L 217.113 19.891 C 214.545 16.72 206.576 16.213 202.226 18.944 M 255.03 18.279 C 250.514 20.564 248 25.619 248 32.413 C 248 39.854 250.273 44.605 255.062 47.173 C 259.421 49.511 263.616 49.49 268.289 47.108 C 271.93 45.252 272 45.252 272 47.108 C 272 48.684 272.752 49 276.5 49 L 281 49 L 281 33.5 L 281 18 L 276.5 18 C 273.186 18 272 18.392 272 19.485 C 272 20.697 271.402 20.606 268.75 18.989 C 265.061 16.74 258.72 16.412 255.03 18.279 M 304.682 18.118 C 303.682 18.7 301.996 20.599 300.936 22.338 L 299.007 25.5 L 299.004 21.75 L 299 18 L 294.5 18 L 290 18 L 290 33.5 L 290 49 L 294.5 49 L 299 49 L 299 41.649 C 299 29.516 301.261 26 309.065 26 C 311.438 26 312.003 25.569 312.014 23.75 C 312.021 22.512 312.299 20.488 312.63 19.25 C 313.169 17.239 312.875 17.003 309.867 17.03 C 308.015 17.047 305.682 17.537 304.682 18.118 M 358.5 18.549 C 354.434 20.632 353 22.759 353 26.706 C 353 30.496 355.945 32.811 364.321 35.602 C 366.973 36.485 369.401 37.882 369.717 38.705 C 370.997 42.04 363.243 43.272 360.25 40.209 C 358.568 38.488 358.373 38.492 355.25 40.308 C 353.462 41.347 352 42.572 352 43.031 C 352 44.689 358.183 48.215 361.983 48.725 C 371.206 49.962 378 46.098 378 39.618 C 378 35.441 375.211 32.895 368.02 30.507 C 361.679 28.401 359.833 26.327 362.538 24.347 C 364.779 22.707 368.909 23.339 370.633 25.586 C 371.575 26.814 372.251 26.855 374.633 25.829 C 376.21 25.15 377.649 24.5 377.831 24.383 C 378.013 24.267 377.639 23.195 377.001 22.001 C 374.561 17.443 364.371 15.541 358.5 18.549 M 12 24.27 C 6.642 27.032 5.594 36.201 10.262 39.471 C 12.943 41.349 17.885 41.403 20.288 39.58 C 23.866 36.866 24.149 28.029 20.748 25.206 C 18.531 23.366 14.575 22.943 12 24.27 M 50.5 24.195 C 48.411 25.379 47.041 26.973 47.015 28.25 C 47.007 28.663 50.15 29 54 29 C 57.85 29 60.993 28.663 60.985 28.25 C 60.957 26.903 59.542 25.321 57.316 24.15 C 54.614 22.728 53.07 22.738 50.5 24.195 M 261.315 23.985 C 258.402 25.188 257 28.038 257 32.76 C 257 39.907 264.605 43.57 270.139 39.088 C 273.285 36.541 273.494 29.032 270.5 26.091 C 268.033 23.667 264.21 22.791 261.315 23.985" stroke-linecap="round"/>
</g>
		<g transform="matrix(0.7876 0 0 0.8593 2.2212 15.4224)" id="653351">
<path style="stroke: none; stroke-width: 1; stroke-dasharray: none; stroke-linecap: butt; stroke-dashoffset: 0; stroke-linejoin: miter; stroke-miterlimit: 4; is-custom-font: none; font-file-url: none; fill: none; fill-rule: evenodd; opacity: 1;" vector-effect="non-scaling-stroke" transform=" translate(-192.0025, -24.93)" d="M 8 9.418 C 8 14.598 7.717 19.574 7.371 20.476 C 6.905 21.691 7.717 21.453 10.511 19.557 C 17.187 15.026 26.029 16.72 30.04 23.299 C 32.641 27.564 32.71 37.208 30.173 41.938 C 28.126 45.754 22.913 49 18.831 49 C 15.197 49 10.779 47.277 9.25 45.264 C 8.15 43.815 8 43.933 8 46.251 C 8 48.623 7.577 48.923 3.75 49.268 C 1.412 49.478 85.037 49.729 189.583 49.825 C 294.129 49.921 379.854 49.813 380.083 49.585 C 380.312 49.357 380.372 38.107 380.216 24.585 L 379.932 0 L 352.966 0 L 326 0 L 326.027 15.75 L 326.054 31.5 L 329.277 27.992 C 331.05 26.062 333.728 23.001 335.23 21.189 C 337.766 18.128 338.331 17.916 343.188 18.197 L 348.415 18.5 L 342.314 25.014 L 336.212 31.528 L 338.624 34.514 C 339.951 36.156 343.083 40.087 345.584 43.25 L 350.133 49 L 344.611 49 L 339.09 49 L 332.795 40.75 L 326.5 32.5 L 326.21 40.75 L 325.919 49 L 321.46 49 L 317 49 L 317 24.5 L 317 0 L 237 0 L 157 0 L 157 11.03 L 157 22.06 L 159.936 19.889 C 163.827 17.013 171.656 16.254 175.726 18.358 C 179.873 20.503 180.73 23.621 180.933 37.304 L 181.106 49 L 176.664 49 L 172.221 49 L 171.841 37.896 C 171.488 27.589 171.288 26.651 169.044 24.834 C 166.174 22.51 162.377 23.049 159.75 26.153 C 158.328 27.834 158 30.171 158 38.611 L 158 49 L 153 49 L 148 49 L 148 24.5 L 148 0 L 78 0 L 8 0 L 8 9.418 M 46.415 18.421 C 33.964 23.843 34.899 43.841 47.803 48.1 C 52.387 49.613 60.288 48.603 64.569 45.957 C 68.775 43.358 68.918 41.623 65.058 40.024 C 62.604 39.008 61.737 39.071 59.835 40.403 C 54.989 43.797 47 41.474 47 36.671 C 47 35.206 48.421 35 58.5 35 L 70 35 L 70 31.148 C 70 26.302 66.625 21.085 61.98 18.752 C 57.871 16.687 50.745 16.536 46.415 18.421 M 90.226 18.944 C 86.315 21.4 86 21.441 86 19.5 C 86 18.389 84.833 18 81.5 18 L 77 18 L 77 33.5 L 77 49 L 81.5 49 L 86 49 L 86 39.547 C 86 34.348 86.5 28.998 87.11 27.657 C 89.428 22.57 97.265 21.937 99.073 26.692 C 99.583 28.033 100 33.601 100 39.065 L 100 49 L 104.5 49 L 109 49 L 109 36.056 C 109 23.941 108.851 22.938 106.669 20.402 C 103.451 16.66 95.05 15.915 90.226 18.944 M 124.271 18.964 C 118.148 21.743 115.806 25.983 116.229 33.524 C 116.63 40.695 118.738 44.098 124.566 46.985 C 128.969 49.167 134.366 49.572 138.435 48.025 C 140.602 47.201 141 46.425 141 43.025 C 141 39.207 139.85 37.816 138.5 40 C 137.386 41.802 130.414 41.114 127.635 38.927 C 124.81 36.705 124.048 31.647 125.992 28.014 C 127.654 24.91 133.202 23.64 137.414 25.4 L 141 26.898 L 141 22.984 C 141 20.138 140.472 18.788 139.066 18.035 C 136.033 16.412 128.907 16.859 124.271 18.964 M 202.226 18.944 C 198.315 21.4 198 21.441 198 19.5 C 198 18.389 196.833 18 193.5 18 L 189 18 L 189 33.5 L 189 49 L 193.5 49 L 198 49 L 198 40.149 C 198 35.281 198.505 29.849 199.123 28.078 C 200.574 23.914 204.333 22.333 207.635 24.496 C 209.894 25.977 210 26.559 210 37.523 L 210 49 L 214.369 49 L 218.738 49 L 219.245 38.75 C 219.831 26.91 220.202 25.685 223.67 24.105 C 229.714 21.35 231.985 25.755 231.994 40.25 L 232 49 L 236.5 49 L 241 49 L 241 37.468 C 241 24.356 239.646 19.576 235.483 17.994 C 231.073 16.317 226.488 16.859 222.566 19.52 L 218.853 22.04 L 217.113 19.891 C 214.545 16.72 206.576 16.213 202.226 18.944 M 255.03 18.279 C 250.514 20.564 248 25.619 248 32.413 C 248 39.854 250.273 44.605 255.062 47.173 C 259.421 49.511 263.616 49.49 268.289 47.108 C 271.93 45.252 272 45.252 272 47.108 C 272 48.684 272.752 49 276.5 49 L 281 49 L 281 33.5 L 281 18 L 276.5 18 C 273.186 18 272 18.392 272 19.485 C 272 20.697 271.402 20.606 268.75 18.989 C 265.061 16.74 258.72 16.412 255.03 18.279 M 304.682 18.118 C 303.682 18.7 301.996 20.599 300.936 22.338 L 299.007 25.5 L 299.004 21.75 L 299 18 L 294.5 18 L 290 18 L 290 33.5 L 290 49 L 294.5 49 L 299 49 L 299 41.649 C 299 29.516 301.261 26 309.065 26 C 311.438 26 312.003 25.569 312.014 23.75 C 312.021 22.512 312.299 20.488 312.63 19.25 C 313.169 17.239 312.875 17.003 309.867 17.03 C 308.015 17.047 305.682 17.537 304.682 18.118 M 358.5 18.549 C 354.434 20.632 353 22.759 353 26.706 C 353 30.496 355.945 32.811 364.321 35.602 C 366.973 36.485 369.401 37.882 369.717 38.705 C 370.997 42.04 363.243 43.272 360.25 40.209 C 358.568 38.488 358.373 38.492 355.25 40.308 C 353.462 41.347 352 42.572 352 43.031 C 352 44.689 358.183 48.215 361.983 48.725 C 371.206 49.962 378 46.098 378 39.618 C 378 35.441 375.211 32.895 368.02 30.507 C 361.679 28.401 359.833 26.327 362.538 24.347 C 364.779 22.707 368.909 23.339 370.633 25.586 C 371.575 26.814 372.251 26.855 374.633 25.829 C 376.21 25.15 377.649 24.5 377.831 24.383 C 378.013 24.267 377.639 23.195 377.001 22.001 C 374.561 17.443 364.371 15.541 358.5 18.549 M 12 24.27 C 6.642 27.032 5.594 36.201 10.262 39.471 C 12.943 41.349 17.885 41.403 20.288 39.58 C 23.866 36.866 24.149 28.029 20.748 25.206 C 18.531 23.366 14.575 22.943 12 24.27 M 50.5 24.195 C 48.411 25.379 47.041 26.973 47.015 28.25 C 47.007 28.663 50.15 29 54 29 C 57.85 29 60.993 28.663 60.985 28.25 C 60.957 26.903 59.542 25.321 57.316 24.15 C 54.614 22.728 53.07 22.738 50.5 24.195 M 261.315 23.985 C 258.402 25.188 257 28.038 257 32.76 C 257 39.907 264.605 43.57 270.139 39.088 C 273.285 36.541 273.494 29.032 270.5 26.091 C 268.033 23.667 264.21 22.791 261.315 23.985" stroke-linecap="round"/>
</g>
</g>
</g>
</svg>